<svg width="917" height="290" viewBox="0 0 917 290" fill="none" xmlns="http://www.w3.org/2000/svg">
<path d="M572.61 280.851C569.742 275.966 564.962 271.082 556.359 271.082H359.807C355.027 271.082 348.466 274.062 343.658 280.851C339.834 286.249 333.324 288.306 329.5 288.563L16.02 288.98C7.7279 288.991 1 282.272 1 273.98V16C1 7.71573 7.71571 1 16 1H901C909.284 1 916 7.71572 916 16V273.98C916 282.272 909.272 288.991 900.98 288.98L587.5 288.563C581.637 288.563 575.478 285.735 572.61 280.851Z" fill="#D9D9D9" stroke="white"/>
</svg>
