<svg width="917" height="331" viewBox="0 0 917 331" fill="none" xmlns="http://www.w3.org/2000/svg">
<path d="M572.61 321.176C569.742 315.588 564.962 310 556.359 310H359.807C355.027 310 348.466 313.41 343.658 321.176C339.834 327.353 333.324 329.706 329.5 330L16.0228 330.477C7.72965 330.49 1 323.77 1 315.477V16C1 7.71573 7.71571 1 16 1H901C909.284 1 916 7.71573 916 16V315.477C916 323.77 909.27 330.49 900.977 330.477L587.5 330C581.637 330 575.478 326.765 572.61 321.176Z" fill="#D9D9D9" stroke="white"/>
</svg>
