<svg width="76" height="76" viewBox="0 0 76 76" fill="none" xmlns="http://www.w3.org/2000/svg">
<g clip-path="url(#clip0_19_3963)">
<path d="M30.7428 76C30.5622 76 30.3805 75.9504 30.2192 75.8485L22.1024 70.738C21.8491 70.5787 21.6827 70.3128 21.6493 70.0154C21.6158 69.7184 21.7197 69.4218 21.9313 69.2105L42.8945 48.2473C40.7521 42.9185 41.9921 36.7238 46.0817 32.6342C51.3661 27.3494 59.761 27.0225 65.4301 31.655C66.2369 30.0394 66.8152 28.1181 66.853 25.9045C66.9938 17.5836 60.4581 12.4994 54.3256 11.2969C53.6131 11.1576 52.9432 11.0687 52.3158 11.0215V19.2783C52.3158 19.6068 52.1517 19.9132 51.8787 20.0957L45.0511 24.6602C44.8225 24.8132 44.5444 24.8604 44.2844 24.801H6.23991C5.69664 24.801 5.25644 24.3608 5.25644 23.8176V1.00113C5.25644 0.457862 5.69664 0.0176615 6.23991 0.0176615H44.3324C44.5782 -0.0287581 44.8363 0.0156946 45.0503 0.158494L51.8779 4.72296C52.1509 4.90549 52.315 5.21194 52.315 5.54042V9.04943C53.0616 9.099 53.8578 9.20089 54.7032 9.3669C61.6142 10.7217 68.9792 16.4856 68.8187 25.9375C68.7711 28.7506 67.9875 31.131 66.9336 33.074C69.3946 35.7466 70.7432 39.1947 70.7432 42.8496C70.7432 46.7088 69.2404 50.3366 66.5119 53.0651C62.4223 57.1552 56.2276 58.3959 50.8988 56.2527L46.5216 60.6303C46.3371 60.8148 46.0872 60.9183 45.826 60.9183H42.3336V64.4108C42.3336 64.6716 42.2301 64.9218 42.0456 65.1063L38.8053 68.3462C38.6208 68.5307 38.371 68.6342 38.1098 68.6342H34.6173V72.1267C34.6173 72.3875 34.5138 72.6377 34.3293 72.8222L31.4387 75.7128C31.2491 75.9016 30.9969 76 30.7428 76ZM24.1933 69.7302L30.6031 73.7663L32.6507 71.7191V67.6503C32.6507 67.1071 33.0909 66.6669 33.6342 66.6669H37.7026L40.3666 64.0032V59.9344C40.3666 59.3912 40.8068 58.951 41.3501 58.951H45.4185L49.9794 54.39C50.2701 54.0989 50.7115 54.0195 51.0852 54.1918C55.8059 56.3593 61.4467 55.3479 65.1213 51.6741C69.7318 47.0632 69.9737 39.7128 65.8463 34.8151C65.1716 35.7643 64.4569 36.57 63.7897 37.2321C64.3518 38.5417 64.0993 40.1207 63.032 41.1884C62.3542 41.8662 61.4533 42.2391 60.4951 42.2391C59.5368 42.2391 58.6359 41.8662 57.9585 41.1884C56.5596 39.7895 56.5596 37.5133 57.9585 36.1148C58.6363 35.437 59.5372 35.0641 60.4954 35.0641C61.2291 35.0641 61.9297 35.2828 62.5214 35.6896C63.1422 35.0562 63.8046 34.2836 64.4203 33.3761C59.523 29.1708 52.1108 29.3871 47.472 34.0256C43.7977 37.7002 42.7859 43.341 44.9547 48.0616C45.1266 48.4357 45.0471 48.8767 44.7564 49.1678L24.1933 69.7302ZM60.4954 37.0303C60.0623 37.0303 59.6556 37.199 59.3495 37.5047C58.7177 38.1365 58.7177 39.1652 59.3495 39.797C59.6556 40.1026 60.0623 40.2714 60.4954 40.2714C60.9286 40.2714 61.3353 40.1026 61.6414 39.797C61.9427 39.4952 62.1001 39.1038 62.1142 38.7081C61.4986 39.1872 61.0757 39.4488 61.0057 39.4913C60.5415 39.7722 59.9364 39.625 59.6548 39.1605C59.3731 38.6966 59.5206 38.0924 59.9837 37.8103C59.9998 37.8005 60.3841 37.5602 60.9636 37.0979C60.8141 37.0531 60.6563 37.0303 60.4954 37.0303ZM7.22337 22.8341H44.2427L50.348 18.7527V11.0073C49.3512 11.0722 48.4952 11.2453 47.7745 11.4664C47.8512 11.7681 47.8921 12.0836 47.8921 12.409C47.8921 14.5144 46.1793 16.2268 44.0743 16.2268C41.9693 16.2268 40.2565 14.514 40.2565 12.409C40.2565 10.3039 41.9693 8.59114 44.0743 8.59114C45.1333 8.59114 46.0928 9.02465 46.7851 9.72331C47.7588 9.38421 48.9432 9.11631 50.348 9.03645V6.06599L44.2427 1.9846H7.22337V22.8341ZM44.0743 10.5585C43.0538 10.5585 42.2234 11.3885 42.2234 12.4094C42.2234 13.4302 43.0538 14.2602 44.0743 14.2602C45.0947 14.2602 45.9252 13.4302 45.9252 12.4094C45.9252 12.3602 45.9232 12.3114 45.9193 12.2634C45.1388 12.7142 44.7611 13.1123 44.7505 13.1237C44.3831 13.5238 43.76 13.5494 43.3611 13.1816C42.9614 12.8138 42.935 12.1914 43.3033 11.7921C43.3548 11.7355 43.8241 11.2398 44.7391 10.682C44.533 10.6021 44.3084 10.5585 44.0743 10.5585Z" fill="#864AFF"/>
<path d="M24.1259 18.7887C23.6459 18.7887 23.2459 18.6287 22.9259 18.3087C22.6059 17.9754 22.4459 17.5687 22.4459 17.0887C22.4459 16.622 22.6059 16.2354 22.9259 15.9287C23.2459 15.6087 23.6459 15.4487 24.1259 15.4487C24.5925 15.4487 24.9859 15.6087 25.3059 15.9287C25.6392 16.2487 25.8059 16.6354 25.8059 17.0887C25.8059 17.5687 25.6392 17.9754 25.3059 18.3087C24.9859 18.6287 24.5925 18.7887 24.1259 18.7887ZM19.5459 7.96871C19.5459 7.20871 19.7325 6.48871 20.1059 5.80871C20.4925 5.12871 21.0059 4.58871 21.6459 4.18871C22.2992 3.77538 23.0125 3.56871 23.7859 3.56871C24.5725 3.56871 25.2792 3.77538 25.9059 4.18871C26.5459 4.60204 27.0392 5.14871 27.3859 5.82871C27.7459 6.50871 27.9325 7.24871 27.9459 8.04871L25.9259 8.28871C25.9125 7.96871 25.8259 7.63538 25.6659 7.28871C25.5059 6.94204 25.2659 6.64871 24.9459 6.40871C24.6392 6.15538 24.2525 6.02871 23.7859 6.02871C23.2125 6.02871 22.7259 6.22871 22.3259 6.62871C21.9392 7.01538 21.7459 7.48871 21.7459 8.04871C21.7459 8.34204 21.7859 8.57538 21.8659 8.74871C21.9592 8.92204 22.1125 9.10871 22.3259 9.30871C22.5525 9.50871 22.9792 9.84871 23.6059 10.3287L24.1259 10.7287C24.4325 10.9554 24.6525 11.1954 24.7859 11.4487C24.9325 11.702 25.0192 11.9887 25.0459 12.3087C25.0859 12.6154 25.1059 13.0554 25.1059 13.6287V14.3287H23.0859V13.2887C23.0859 13.1554 23.0059 12.9887 22.8459 12.7887C22.6859 12.5887 22.3925 12.302 21.9659 11.9287C21.3125 11.3687 20.8325 10.9354 20.5259 10.6287C20.2325 10.3087 19.9925 9.94204 19.8059 9.52871C19.6325 9.10204 19.5459 8.58204 19.5459 7.96871Z" fill="#864AFF"/>
</g>
<defs>
<clipPath id="clip0_19_3963">
<rect width="76" height="76" fill="white"/>
</clipPath>
</defs>
</svg>
