<svg width="60" height="60" viewBox="0 0 60 60" fill="none" xmlns="http://www.w3.org/2000/svg">
<rect width="60" height="60" rx="15" fill="white"/>
<path d="M47.6339 40.2678V33.936C47.6339 30.4838 44.835 27.6846 41.3822 27.6846H18.2516C14.7989 27.6846 12 30.4838 12 33.936V40.2678H47.6339Z" fill="#1F1F1F"/>
<path d="M25.7555 40.7812H17.6245V42.9425H25.7555V40.7812Z" fill="#1F1F1F"/>
<path d="M42.0095 40.7812H33.8784V42.9425H42.0095V40.7812Z" fill="#1F1F1F"/>
<path d="M41.3823 17H18.2516C14.7989 17 12 19.7992 12 23.2515V30.5446H12.0212C12.2184 28.3822 14.5107 26.6344 17.4461 26.3608V24.7053C17.4461 23.6876 18.2712 22.8626 19.289 22.8626H27.1903C28.208 22.8626 29.033 23.6876 29.033 24.7053V26.3234H30.6005V24.7053C30.6005 23.6876 31.4257 22.8626 32.4433 22.8626H40.3448C41.3625 22.8626 42.1874 23.6876 42.1874 24.7053V26.3608C45.1231 26.6343 47.4155 28.3822 47.6126 30.5446H47.6338V23.2515C47.6339 19.7992 44.8349 17 41.3823 17Z" fill="#1F1F1F"/>
</svg>
