<svg width="985" height="228" viewBox="0 0 985 228" fill="none" xmlns="http://www.w3.org/2000/svg">
<g clip-path="url(#clip0_8_1456)">
<path d="M684.486 193C684.821 188.695 685 184.337 685 179.795C685 82.074 598.602 3 492.011 3C385.421 3 299 82.233 299 179.795C299 184.214 299.179 188.616 299.536 193H684.486Z" fill="#A21441" fill-opacity="0.2"/>
<path d="M793 227.5H657H193.5L283 99.5L329 127L426 58L537.5 106L625.5 1.5L793 227.5Z" fill="#D4D4D4"/>
<path d="M613.754 142.681L619.41 145.502" stroke="white" stroke-miterlimit="10" stroke-linecap="round" stroke-linejoin="round"/>
<path d="M544.285 108.042L605.811 138.721" stroke="white" stroke-miterlimit="10" stroke-linecap="round" stroke-linejoin="round"/>
<path d="M319.949 136.647L277.169 167.297" stroke="white" stroke-miterlimit="10" stroke-linecap="round" stroke-linejoin="round"/>
<path d="M643.651 71V38.739L649.513 40.312L650 33.46L625.724 0L595 37.418L611.996 27.722L615.513 38.739L624.892 34.017L643.651 71Z" fill="white"/>
<path d="M455.964 83.753L459.462 72.336L425.903 58L400 76.396L419.328 71.49L431.54 83.753L432.479 74.556L455.964 83.753Z" fill="white"/>
<path d="M277.262 53.0191C272.76 50.5641 270.714 52.6101 269.077 50.5641C267.44 48.5181 273.578 43.1981 261.301 37.8781C261.301 37.8781 260.483 26.4201 243.704 26.0101C226.926 25.6011 231.427 37.4691 226.926 40.3331C222.425 43.1981 221.197 38.6961 216.695 41.5611C212.193 44.4261 214.24 50.1551 210.557 50.9731C206.874 51.7911 201.963 47.2901 197.462 50.1541C192.96 53.0191 192.96 55.4741 190.914 55.4741C188.868 55.4741 184.775 53.8371 182.32 55.4741C179.865 57.1111 177 59.1571 177 59.1571H280.535C280.535 59.1571 281.764 55.4751 277.262 53.0191Z" fill="white"/>
<path d="M29.7101 127.668C33.2701 126.336 34.8882 127.446 36.1822 126.336C37.4772 125.225 32.6222 122.337 42.3322 119.449C42.3322 119.449 42.9791 113.228 56.2481 113.006C69.5181 112.783 65.9582 119.226 69.5182 120.781C73.0772 122.336 74.0492 119.892 77.6082 121.448C81.1682 123.002 79.5512 126.113 82.4632 126.557C85.3752 127.002 89.2592 124.558 92.8192 126.113C96.3782 127.667 96.3782 129.001 97.9972 129.001C99.6142 129.001 102.852 128.112 104.793 129.001C106.734 129.89 109 131 109 131H27.1202C27.1202 131 26.1501 129.001 29.7101 127.668Z" fill="white"/>
<path d="M701.115 58.6679C703.893 57.3359 705.157 58.4459 706.166 57.3359C707.177 56.2249 703.388 53.3369 710.966 50.4489C710.966 50.4489 711.472 44.2279 721.828 44.0059C732.184 43.7829 729.406 50.2259 732.184 51.7809C734.963 53.3369 735.721 50.8919 738.499 52.4479C741.277 54.0019 740.015 57.1129 742.288 57.5569C744.561 58.0019 747.592 55.5579 750.371 57.1129C753.149 58.6669 753.149 60.0009 754.412 60.0009C755.676 60.0009 758.201 59.1119 759.716 60.0009C761.232 60.8899 763 61.9999 763 61.9999H699.094C699.094 61.9999 698.337 60.0019 701.115 58.6679Z" fill="white"/>
<path d="M951.6 115.704C945.83 113.187 943.21 115.285 941.11 113.187C939.01 111.088 946.88 105.633 931.13 100.179C931.13 100.179 930.08 88.4291 908.56 88.0111C887.04 87.5921 892.81 99.76 887.04 102.697C881.27 105.634 879.69 101.018 873.92 103.956C868.14 106.894 870.77 112.768 866.04 113.607C861.32 114.446 855.02 109.83 849.25 112.768C843.47 115.706 843.47 118.223 840.85 118.223C838.22 118.223 832.97 116.545 829.82 118.223C826.68 119.901 823 122 823 122H955.81C955.8 121.997 957.38 118.222 951.6 115.704Z" fill="white"/>
<path d="M358.697 229.408C358.697 229.408 364.131 225.271 372.127 225.168C372.127 225.168 349.675 222.708 349.983 218.197C350.29 213.686 364.233 215.84 373.152 221.889C373.152 221.889 363.003 214.37 364.851 211C366.664 207.696 381.046 214.739 383.506 229.488L358.697 229.408Z" fill="white"/>
<path d="M600.264 220.875C600.264 220.875 617.543 181.792 626.666 181.619C639.079 181.384 609.526 216.006 609.526 216.006C609.526 216.006 632.027 188.74 640.421 194.336C648.507 199.727 618.511 216.697 618.511 216.697C618.511 216.697 642.571 204.993 645.748 212.064C648.097 217.294 630.191 219.633 619.203 220.875C619.203 220.875 642.848 218.451 641.291 224.152C640.421 227.339 622.486 226.107 622.486 226.107C622.486 226.107 633.475 227.028 634.615 229.56H600.265L600.264 220.875Z" fill="white"/>
<path d="M450.864 142.837C450.864 138.109 449.05 134.276 446.806 134.235L446.803 134.231C446.803 134.231 446.79 134.232 446.785 134.232C446.78 134.232 446.775 134.231 446.77 134.231C446.714 134.231 446.66 134.244 446.605 134.248C444.812 134.405 430.928 135.451 419.324 135.451C402.803 135.451 389.74 134.231 389.74 134.231C385.386 143.896 389.74 151.445 389.74 151.445H446.803C446.803 151.443 446.804 151.442 446.805 151.441C449.05 151.4 450.864 147.566 450.864 142.837Z" fill="#B48493"/>
<path d="M389.824 151.444C392.086 151.444 393.919 147.591 393.919 142.837C393.919 138.084 392.086 134.23 389.824 134.23C387.562 134.23 385.729 138.084 385.729 142.837C385.729 147.591 387.562 151.444 389.824 151.444Z" fill="#31020E"/>
<path d="M391.019 135.848C388.945 134.759 386.82 137.252 386.82 142.712C386.82 148.172 388.306 150.206 389.533 150.206C393.162 150.206 393.641 137.725 390.22 137.414C386.799 137.103 387.218 147.719 389.568 147.719C391.693 147.719 391.768 138.621 389.825 139.408C388.587 139.909 388.432 145.042 389.639 145.121C389.982 145.144 390.44 144.276 390.405 142.902" stroke="white" stroke-width="0.25" stroke-miterlimit="10" stroke-linecap="round"/>
<path d="M407.325 151.444C407.325 151.444 408.603 149.108 408.603 143.077C408.603 137.046 406.314 134.958 406.314 134.958H403.604C403.604 134.958 406.045 137.046 406.045 143.077C406.045 149.108 404.614 151.444 404.614 151.444H407.325Z" fill="#31020E"/>
<path d="M432.344 151.444C432.344 151.444 433.622 149.108 433.622 143.077C433.622 137.046 431.334 134.958 431.334 134.958H428.623C428.623 134.958 431.065 137.046 431.065 143.077C431.065 149.108 429.634 151.444 429.634 151.444H432.344Z" fill="#31020E"/>
<path d="M430.629 221.844H390.372C388.249 221.844 386.528 220.123 386.528 218V155.288C386.528 153.165 388.249 151.444 390.372 151.444H430.629C432.752 151.444 434.473 153.164 434.473 155.288V218C434.473 220.123 432.752 221.844 430.629 221.844Z" fill="#A21441"/>
<path opacity="0.5" d="M430.629 221.844H390.372C388.249 221.844 386.528 220.123 386.528 218V155.288C386.528 153.165 388.249 151.444 390.372 151.444H430.629C432.752 151.444 434.473 153.164 434.473 155.288V218C434.473 220.123 432.752 221.844 430.629 221.844Z" fill="#A21441"/>
<path d="M397.189 221.844C395.066 221.844 393.345 220.123 393.345 218V155.288C393.345 153.165 395.066 151.444 397.189 151.444" stroke="#31020E" stroke-width="0.5" stroke-miterlimit="10" stroke-linecap="round"/>
<path d="M443.88 221.844H403.622C401.499 221.844 399.778 220.123 399.778 218V155.288C399.778 153.165 401.499 151.444 403.622 151.444H443.88C446.002 151.444 447.723 153.164 447.723 155.288V218C447.724 220.123 446.002 221.844 443.88 221.844Z" fill="#A21441"/>
<path d="M393.345 223.333C393.194 223.333 393.047 223.348 392.902 223.369V221.844H390.288V226.39C390.288 228.078 391.657 229.447 393.345 229.447C395.033 229.447 396.401 228.078 396.401 226.39C396.401 224.702 395.034 223.333 393.345 223.333Z" fill="#31020E"/>
<path d="M408.439 223.333C408.288 223.333 408.141 223.348 407.996 223.369V221.844H405.382V226.39C405.382 228.078 406.75 229.447 408.438 229.447C410.126 229.447 411.496 228.078 411.496 226.39C411.496 224.702 410.128 223.333 408.439 223.333Z" fill="#31020E"/>
<path d="M428.932 223.333C428.781 223.333 428.634 223.348 428.489 223.369V221.844H425.875V226.39C425.875 228.078 427.243 229.447 428.932 229.447C430.62 229.447 431.988 228.078 431.988 226.39C431.988 224.702 430.62 223.333 428.932 223.333Z" fill="#31020E"/>
<path d="M444.026 223.333C443.875 223.333 443.728 223.348 443.583 223.369V221.844H440.969V226.39C440.969 228.078 442.337 229.447 444.025 229.447C445.713 229.447 447.083 228.078 447.083 226.39C447.083 224.702 445.714 223.333 444.026 223.333Z" fill="#31020E"/>
<path d="M407.618 215.693H404.26C403.586 215.693 403.04 215.147 403.04 214.473V159.893C403.04 159.22 403.586 158.673 404.26 158.673H407.618C408.291 158.673 408.837 159.22 408.837 159.893V214.473C408.837 215.147 408.292 215.693 407.618 215.693Z" stroke="#31020E" stroke-width="0.5" stroke-miterlimit="10" stroke-linecap="round"/>
<path d="M419.493 215.693H416.135C415.461 215.693 414.915 215.147 414.915 214.473V159.893C414.915 159.22 415.461 158.673 416.135 158.673H419.493C420.166 158.673 420.712 159.22 420.712 159.893V214.473C420.712 215.147 420.166 215.693 419.493 215.693Z" stroke="#31020E" stroke-width="0.5" stroke-miterlimit="10" stroke-linecap="round"/>
<path d="M431.367 215.693H428.009C427.336 215.693 426.79 215.147 426.79 214.473V159.893C426.79 159.22 427.336 158.673 428.009 158.673H431.367C432.041 158.673 432.587 159.22 432.587 159.893V214.473C432.587 215.147 432.041 215.693 431.367 215.693Z" stroke="#31020E" stroke-width="0.5" stroke-miterlimit="10" stroke-linecap="round"/>
<path d="M443.242 215.693H439.884C439.211 215.693 438.664 215.147 438.664 214.473V159.893C438.664 159.22 439.211 158.673 439.884 158.673H443.242C443.915 158.673 444.462 159.22 444.462 159.893V214.473C444.462 215.147 443.916 215.693 443.242 215.693Z" stroke="#31020E" stroke-width="0.5" stroke-miterlimit="10" stroke-linecap="round"/>
<path d="M412.77 114.439H411.25V154.215H412.77V114.439Z" fill="#31020E"/>
<path d="M436.252 114.439H434.731V154.215H436.252V114.439Z" fill="#31020E"/>
<path d="M412.01 116.167V111.605H435.492V116.167" stroke="#A21441" stroke-width="5" stroke-miterlimit="10" stroke-linejoin="round"/>
<path d="M598.572 229.559H526.267C523.932 229.559 522.039 227.667 522.039 225.332V172.462C522.039 170.127 523.932 168.234 526.267 168.234H598.572C600.907 168.234 602.8 170.127 602.8 172.462V225.332C602.8 227.667 600.907 229.559 598.572 229.559Z" fill="#31020E"/>
<path d="M532.36 229.559C530.026 229.559 528.133 227.667 528.133 225.332V172.462C528.133 170.127 530.026 168.234 532.36 168.234" stroke="white" stroke-width="0.5" stroke-miterlimit="10" stroke-linecap="round"/>
<path d="M611.923 229.559H539.617C537.282 229.559 535.39 227.667 535.39 225.332V172.462C535.39 170.127 537.282 168.234 539.617 168.234H611.923C614.258 168.234 616.15 170.127 616.15 172.462V225.332C616.15 227.667 614.258 229.559 611.923 229.559Z" fill="url(#paint0_linear_8_1456)"/>
<path d="M611.923 229.559H539.617C537.282 229.559 535.39 227.667 535.39 225.332V172.462C535.39 170.127 537.282 168.234 539.617 168.234H611.923C614.258 168.234 616.15 170.127 616.15 172.462V225.332C616.15 227.667 614.258 229.559 611.923 229.559Z" fill="#A21441"/>
<path d="M539.617 226.853C538.779 226.853 538.097 226.171 538.097 225.332V172.462C538.097 171.623 538.779 170.941 539.617 170.941H611.923C612.762 170.941 613.444 171.623 613.444 172.462V225.332C613.444 226.171 612.762 226.853 611.923 226.853H539.617Z" stroke="#31020E" stroke-width="0.75" stroke-linecap="round" stroke-linejoin="round" stroke-dasharray="5 5"/>
<path d="M531.745 172.573L530.877 172.326C530.44 172.201 530.217 171.718 530.404 171.305L531.662 168.536C531.814 168.201 532.188 168.028 532.541 168.129C532.895 168.23 533.121 168.574 533.074 168.939L532.684 171.955C532.626 172.405 532.181 172.698 531.745 172.573Z" fill="white"/>
<path d="M603.279 208.455L586.239 215.577L585.888 214.736C586.318 214.557 586.521 214.062 586.341 213.633C586.161 213.203 585.667 213 585.237 213.179L584.854 212.264C585.284 212.084 585.487 211.59 585.307 211.16C585.128 210.73 584.636 210.534 584.206 210.713L583.824 209.798C584.253 209.618 584.456 209.124 584.277 208.694C584.097 208.264 583.603 208.061 583.173 208.241L582.79 207.325C583.22 207.145 583.423 206.651 583.243 206.221C583.063 205.791 582.569 205.588 582.139 205.768L581.788 204.927L598.827 197.805L599.179 198.645C598.749 198.825 598.546 199.32 598.726 199.749C598.905 200.179 599.4 200.382 599.829 200.203L600.212 201.118C599.782 201.298 599.579 201.792 599.759 202.222C599.939 202.652 600.433 202.855 600.863 202.675L601.246 203.591C600.816 203.77 600.61 204.259 600.79 204.688C600.97 205.118 601.464 205.321 601.894 205.141L602.277 206.057C601.847 206.236 601.644 206.731 601.823 207.161C602.003 207.591 602.498 207.794 602.927 207.614L603.279 208.455Z" fill="white"/>
<path d="M601.342 208.195L597.653 199.371L583.76 205.179L587.449 214.004L601.342 208.195Z" stroke="#31020E" stroke-width="0.25" stroke-miterlimit="10" stroke-linecap="round" stroke-linejoin="round"/>
<path opacity="0.5" d="M561.905 191.444L560.355 192.662L561.456 194.297L559.604 194.973L560.143 196.869L558.173 196.94L558.102 198.91L556.206 198.372L555.53 200.223L553.894 199.122L552.677 200.672L551.46 199.122L549.825 200.223L549.148 198.371L547.252 198.91L547.181 196.94L545.211 196.869L545.75 194.973L543.898 194.297L544.999 192.662L543.449 191.444L544.999 190.227L543.899 188.591L545.75 187.915L545.212 186.019L547.181 185.948L547.252 183.978L549.148 184.517L549.825 182.666L551.46 183.766L552.677 182.216L553.894 183.766L555.53 182.666L556.207 184.517L558.103 183.979L558.173 185.948L560.143 186.02L559.605 187.915L561.456 188.592L560.355 190.227L561.905 191.444Z" fill="white"/>
<path d="M592.308 189.678L581.02 187.725L581.728 183.637L593.016 185.591L592.308 189.678Z" fill="#31020E"/>
<path d="M440.627 88.0696C440.627 88.0696 437.264 88.3804 436.454 85.5835C436.454 85.5835 438.356 85.1011 439.963 86.6468C439.963 86.6468 439.08 85.2208 439.288 84.1152C439.288 84.1152 441.035 84.7135 441.222 87.1547L440.627 88.0696Z" fill="#A21441"/>
<path d="M483.031 111.605C483.031 111.605 492.437 114.405 493.992 115.441C495.547 116.478 498.657 130.733 498.312 134.776C497.968 138.806 486.839 142.396 486.839 142.396L483.031 111.605Z" fill="#A21441"/>
<path d="M498.055 61.184L499.625 55.0688C499.625 55.0688 490.762 56.1749 489.465 55.9156C488.169 55.6563 487.263 55.6254 486.554 55.7516C485.845 55.8777 484.964 56.6324 485.569 57.242C486.173 57.8516 489.634 58.4212 489.858 58.7325C490.083 59.0433 491.543 61.4926 491.543 61.4926L490.215 80.0274L479.848 74.3124L478.008 87.1209C478.008 87.1209 494.615 94.7584 498.347 91.2853C502.266 87.6385 498.055 61.184 498.055 61.184Z" fill="#FFDBDA"/>
<path d="M469.214 199.35L470.169 217.973L482.08 217.285L484.092 199.35H469.214Z" fill="#FFDBDA"/>
<path d="M469.214 214.69C469.214 214.69 476.598 209.968 486.251 210.267L482.536 219.943C482.536 219.943 488.29 218.491 493.163 218.284C500.73 217.962 498.035 229.488 498.035 229.488H467.97C467.97 229.488 467.245 225.906 469.525 221.446C469.526 219.271 469.214 215.882 469.214 214.69Z" fill="#31020E"/>
<path d="M498.397 227.121C498.261 228.507 498.034 229.487 498.034 229.487H467.97C467.97 229.487 467.716 228.236 467.981 226.287C469.513 226.379 473.974 226.736 476.059 227.976L498.397 227.121Z" fill="#31020E"/>
<path d="M480.981 220.41C480.981 220.41 477.093 217.882 478.506 216.004C480.024 213.984 482.108 216.807 481.966 220.073C481.966 220.073 482.186 214.285 484.402 214.293C487.072 214.303 483.003 220.15 483.003 220.15C483.003 220.15 483.901 218.82 486.338 217.973C488.774 217.127 490.588 220.323 492.23 220.72" stroke="#31020E" stroke-width="0.5" stroke-miterlimit="10" stroke-linecap="round" stroke-linejoin="round"/>
<path d="M427.581 186.005L416.186 200.994L425.822 208.222L439.057 195.697L427.581 186.005Z" fill="#FFDBDA"/>
<path d="M416.445 199.934C416.445 199.934 426.767 199.658 432.445 206.569L423.667 210.302L425.776 217.973C425.776 217.973 431.284 217.357 433.827 220.875C436.626 224.747 432.41 229.447 432.41 229.447H419.106L404.385 209.818C404.385 209.818 408.418 204.246 412.721 203.675L416.445 199.934Z" fill="#31020E"/>
<path d="M423.43 210.198C423.43 210.198 429.938 210.168 429.581 212.641C429.223 215.113 423.43 210.824 423.43 210.824C423.43 210.824 427.973 214.651 426.945 215.678C425.728 216.895 423.132 211.866 423.132 211.866C423.132 211.866 423.817 213.219 423.758 215.968C423.698 218.717 421.732 221.844 421.732 221.844" stroke="#31020E" stroke-width="0.5" stroke-miterlimit="10" stroke-linecap="round" stroke-linejoin="round"/>
<path d="M484.075 108.952C484.075 108.952 486.675 115.738 488.877 133.158C490.802 148.38 490.838 181.963 487.511 195.026C487.03 196.913 485.976 198.065 485.197 198.57C484.86 200.255 483.78 205.274 483.78 205.274L468.852 203.019C468.852 203.019 468.541 200.22 468.42 198.787C463.103 193.161 468.316 173.463 469.191 164.636C466.304 147.407 467.753 110.341 467.753 110.341L484.075 108.952Z" fill="white"/>
<path d="M474.759 131.563L472.22 135.245C472.22 135.245 471.711 153.994 468.945 163.035C467.986 156.36 467.58 147.297 467.445 138.569C468.685 135.83 469.681 133.637 469.681 133.637L474.759 131.563Z" fill="#31020E"/>
<path d="M453.792 110.853C453.792 110.853 450.261 114.61 449.38 118.546C448.025 124.598 449.38 132.158 449.38 132.158L446.851 155.215C446.851 155.215 434.336 168.201 429.128 176.229C425.053 182.51 426.902 185.368 426.902 185.368L422.302 191.693L435.261 199.934L438.942 197.499C438.942 197.499 441.863 197.443 444.385 195.426C446.906 193.409 464.194 171.352 467.784 160.648C471.83 148.583 471.277 109.72 471.277 109.72L453.792 110.853Z" fill="white"/>
<path d="M473.66 70.7993C473.66 70.7993 479.968 73.3845 481.316 75.9761C483.283 79.76 480.409 89.4435 480.946 93.8743C481.484 98.3052 484.84 109.181 484.303 109.718C483.766 110.256 471.547 114.955 453.69 110.927C453.69 110.927 454.443 104.975 454.361 101.528C453.556 96.4075 448.9 80.2678 448.363 74.7629C451.094 72.3011 463.312 68.9287 463.312 68.9287L473.66 70.7993Z" fill="#670926"/>
<path d="M455.133 83.4654C455.133 83.4654 453.915 88.3596 452.367 92.7179C451.311 88.4733 450.088 83.6711 449.265 79.8596L455.133 83.4654Z" fill="white"/>
<path d="M461.111 50.7371C461.111 50.7371 459.728 52.8621 458.527 55.7997C457.21 59.0221 456.929 61.4844 460.049 61.8277C464.117 61.9376 467.539 59.6182 467.539 59.6182L470.32 51.9011" fill="#A21441"/>
<path d="M462.305 50.5449C462.305 50.5449 456.791 57.9513 458.45 60.8976C459.607 62.9533 466.997 61.3632 469.024 60.4136C471.755 59.1348 473.205 54.5042 473.205 54.5042" fill="#31020E"/>
<path d="M472.567 65.0444C472.567 65.0444 475.366 65.7184 477.27 64.6437C479.993 63.1072 482.78 47.53 476.796 44.4754C470.812 41.4208 461.732 44.4597 462.833 52.3918C463.117 54.435 464.391 60.4955 464.391 60.4955L463.312 68.9294C463.312 68.9294 466.367 71.9218 473.659 70.7994L472.567 65.0444Z" fill="#FFDBDA"/>
<path d="M433.694 227.581C433.071 228.713 432.411 229.449 432.411 229.449H419.109L404.383 209.818C404.383 209.818 405.689 208.021 407.316 206.613C407.316 206.613 409.179 209.538 410.148 213.273L420.072 227.58H433.694V227.581Z" fill="#31020E"/>
<path d="M461.128 130.266C461.128 130.266 459.008 153.895 457.672 158.189C455.737 164.409 432.41 190.448 432.41 190.448" stroke="#31020E" stroke-width="0.5" stroke-miterlimit="10" stroke-linecap="round" stroke-linejoin="round"/>
<path d="M427.331 186.005C427.331 186.005 431.634 191.433 438.58 196.669" stroke="#31020E" stroke-width="0.5" stroke-miterlimit="10" stroke-linecap="round" stroke-linejoin="round"/>
<path d="M468.869 198.794C468.869 198.794 478.511 199.969 484.316 198.794" stroke="#31020E" stroke-width="0.5" stroke-miterlimit="10" stroke-linecap="round" stroke-linejoin="round"/>
<path d="M457.792 119.07L446.234 98.4051C446.234 98.4051 452.947 87.89 454.649 84.5993C457.5 79.0873 453.145 72.5212 448.364 74.7642C448.364 74.7642 446.58 76.2195 443.556 81.4376C440.029 87.5234 434.482 98.9763 435.469 100.928C437.095 104.142 452.816 122.595 452.816 122.595C452.764 125.084 454.501 128.531 454.501 128.531L460.954 120.781C460.073 120.055 457.792 119.07 457.792 119.07Z" fill="#FFDBDA"/>
<path d="M461.445 119.624L453.115 129.365L454.739 130.941L462.715 120.542L461.445 119.624Z" fill="#31020E"/>
<path d="M468.587 49.3551C468.587 49.3551 474.545 46.5474 479.495 48.3357C479.495 48.3357 480.126 50.0432 480.276 51.5846C480.276 51.5846 484.589 48.3297 483.746 46.4954C483.149 45.1993 481.543 45.744 481.543 45.744C481.543 45.744 484.975 41.2298 482.346 39.1091C479.84 37.0875 476.177 40.3013 476.177 40.3013C476.177 40.3013 469.386 39.8865 464.825 42.0121C460.263 44.1371 461.814 51.2002 461.814 51.2002L463.802 55.5417L466.792 54.7864L466.641 53.5715C466.641 53.5715 468.886 52.7936 468.587 49.3551Z" fill="#31020E"/>
<path d="M476.178 40.3011C476.178 40.3011 469.005 41.0808 461.393 51.8519C461.393 51.8519 454.337 45.7438 461.56 38.6943C464.275 36.0441 471.374 33.6403 476.178 40.3011Z" fill="#A21441"/>
<path d="M466.058 53.9001C465.73 52.9765 464.531 50.5629 462.241 51.7594C459.572 53.1546 462.141 58.9746 464.686 58.6384C467.231 58.3017 466.47 55.0636 466.058 53.9001Z" fill="#FFDBDA"/>
<path d="M470.225 39.7235C470.128 39.776 470.031 39.8302 469.935 39.8859C468.903 40.4847 468.594 41.8328 469.27 42.8154C469.27 42.8154 471.713 41.0337 473.728 40.4955C472.898 39.429 471.416 39.0841 470.225 39.7235Z" fill="#31020E"/>
<path d="M472.567 65.0444C472.567 65.0444 469.112 64.1349 467.242 61.2898C467.242 61.2898 467.781 66.0964 473.042 67.5462L472.567 65.0444Z" fill="#31020E"/>
<path d="M490.215 80.0277L493.215 81.7223L490.356 78.0635L490.215 80.0277Z" fill="url(#paint1_linear_8_1456)"/>
<path d="M454.047 71.9288C454.047 71.9288 478.008 83.1997 489.283 118.861L492.714 117.757C492.714 117.757 484.362 86.9315 458.847 69.5146L454.047 71.9288Z" fill="#31020E"/>
<path d="M488.532 118.344L493.009 117.065L493.889 120.003L489.499 121.33L488.532 118.344Z" fill="#31020E"/>
<path d="M491.326 138.704C490.785 134.276 489.318 125.96 488.852 123.34L495.371 121.288C495.371 121.288 496.87 129.261 497.206 132.549C497.621 136.608 492.765 138.232 491.326 138.704Z" stroke="#31020E" stroke-width="0.25" stroke-miterlimit="10" stroke-linecap="round" stroke-linejoin="round" stroke-dasharray="2 2"/>
<path d="M439.445 89.2282C439.445 89.2282 443.849 93.0483 448.537 94.7619L450.648 91.3716C450.648 91.3716 445.283 87.8298 441.517 85.1357L439.445 89.2282Z" fill="#A21441"/>
<path d="M503.097 45.2115C502.982 45.2261 502.87 45.2537 502.76 45.2894L484.597 49.4831C483.526 49.619 482.845 51.2026 483.076 53.0201C483.307 54.8376 484.362 56.2008 485.432 56.0649L504.067 55.588C504.182 55.595 504.297 55.5939 504.413 55.5793C506.1 55.3654 507.172 52.8707 506.808 50.0077C506.445 47.1448 504.784 44.9976 503.097 45.2115Z" fill="#31020E"/>
<path d="M506.267 50.0714C506.574 52.4855 505.648 54.5916 504.2 54.7751C502.751 54.9592 501.329 53.1509 501.022 50.7368C500.716 48.3227 501.642 46.2166 503.09 46.0331C504.539 45.8496 505.961 47.6573 506.267 50.0714Z" fill="url(#paint2_linear_8_1456)"/>
<path d="M494.394 46.316C494.278 46.3306 494.166 46.3582 494.056 46.3939L475.894 50.5876C474.823 50.7235 474.142 52.3071 474.373 54.1246C474.603 55.9421 475.658 57.3059 476.729 57.1694L495.363 56.6924C495.479 56.6995 495.595 56.6984 495.71 56.6838C497.397 56.4699 498.469 53.9752 498.106 51.1122C497.742 48.2493 496.08 46.1021 494.394 46.316Z" fill="#31020E"/>
<path d="M497.564 51.1764C497.871 53.5905 496.945 55.6965 495.497 55.8801C494.048 56.0642 492.626 54.2559 492.319 51.8418C492.013 49.4277 492.938 47.3216 494.387 47.1381C495.835 46.9545 497.258 48.7628 497.564 51.1764Z" fill="url(#paint3_linear_8_1456)"/>
<path d="M480.076 53.6357C480.076 53.6357 481.085 57.0996 481.102 69.6525C481.11 75.2262 479.405 85.4533 486.632 84.789C494.148 84.0976 496.304 67.2151 494.371 56.719L493.215 56.7487C493.215 56.7487 494.441 62.5688 493.716 68.6509C492.991 74.733 492.541 83.6661 486.684 84.3229C481.116 84.9471 482.57 72.8013 482.658 69.7223C482.778 65.5406 482.969 56.8668 482.105 53.2729L480.076 53.6357Z" fill="#31020E"/>
<path d="M476.022 51.1296L491.953 48.0198" stroke="#31020E" stroke-width="0.5" stroke-miterlimit="10" stroke-linecap="round" stroke-linejoin="round"/>
<path d="M552.098 114.08C550.086 116.763 545.195 121.918 545.195 121.918C544.301 122.294 531.895 109.588 532.248 109.122C532.231 107.563 531.414 105.915 530.889 104.374C530.479 103.175 530.203 101.168 529.516 100.317C529.086 99.7844 528.13 99.7324 527.735 101.513C527.554 102.331 527.782 103.787 527.67 104.231C527.557 104.674 526.936 103.808 525.996 102.711C525.055 101.614 522.036 97.7325 521.447 97.3491C520.472 96.7157 519.574 98.2116 521.106 100.387C522.076 101.767 523.248 103.114 523.842 103.948C522.381 103.799 522.211 105.123 522.177 105.255C521.584 105.31 521.239 105.558 521.043 105.74C520.825 105.942 520.637 106.444 520.919 106.853C519.966 107.53 520.325 108.554 520.504 108.871C520.683 109.189 521.866 110.255 522.729 110.109C524.094 112.539 524.748 113.097 526.865 113.61C527.577 113.783 532.12 124.392 542.072 132.409C542.884 133.063 544.683 134.723 546.505 134.089C551.089 132.494 561.553 122.31 561.553 122.31C558.259 119.207 554.193 115.734 552.098 114.08Z" fill="#FFDBDA"/>
<path d="M524.358 105.541C524.676 106.035 525.281 106.726 525.373 107.366C525.437 107.809 525.062 108.214 524.627 108.111C524.089 107.983 523.54 107.328 523.173 107.004C522.747 106.565 522.309 106.088 522.183 105.469C522.198 106.118 522.62 106.671 523.02 107.145C523.33 107.503 523.872 108.076 524.399 108.333C524.457 108.71 524.507 109.627 523.536 109.267C522.326 108.818 521.032 106.994 521.032 106.994C521.144 107.299 521.972 108.518 522.899 109.163C522.98 109.348 523.104 109.75 522.809 110.038C522.809 110.038 523.171 109.952 523.182 109.338C523.407 109.46 523.634 109.543 523.855 109.562C524.835 109.646 524.79 108.818 524.721 108.443C525.024 108.504 525.304 108.417 525.509 108.062C526.018 107.181 524.938 106.155 524.358 105.541Z" fill="url(#paint4_linear_8_1456)"/>
<path d="M570.733 106.839C570.733 106.839 562.524 104.7 560.66 105.163C559.043 105.564 554.001 111.415 549.084 117.147C550.387 118.693 555.241 123.863 558.088 126.547L570.733 106.839Z" fill="white"/>
<path d="M554.858 150.621C569.37 155.95 584.911 149.154 584.911 149.154C584.911 149.154 582.493 143.811 582.24 142.913C582.056 142.281 583.1 125.229 583.1 125.229C583.1 125.229 579.421 114.88 576.43 112.463C573.449 110.047 566.337 109.621 566.337 109.621C566.337 109.621 557.716 117.58 556.726 120.284C555.725 122.977 555.861 126.579 555.265 134.145C554.474 144.19 554.858 150.621 554.858 150.621Z" fill="white"/>
<path d="M577.299 121.874L579.71 134.876L585.217 134.595L584.911 129.032L577.299 121.874Z" fill="#1C1C23"/>
<path d="M559.282 108.943L544.905 118.228L528.898 117.479L516.361 124.738L530.546 153.767L541.103 146.146L555.523 146.4L569.037 137.213L559.282 108.943Z" fill="white" stroke="#1C1C23" stroke-width="0.5" stroke-miterlimit="10" stroke-linecap="round" stroke-linejoin="round"/>
<path opacity="0.3" d="M518.484 125.385L529.568 119.052L545.529 119.884L558.422 111.432L567.097 136.568L554.907 144.766L540.451 144.614L531.159 151.321L518.484 125.385Z" fill="#D89AA5"/>
<path d="M528.898 117.479L541.103 146.146" stroke="#1C1C23" stroke-width="0.5" stroke-miterlimit="10" stroke-linecap="round" stroke-linejoin="round"/>
<path d="M544.906 118.228L555.523 146.4" stroke="#1C1C23" stroke-width="0.5" stroke-miterlimit="10" stroke-linecap="round" stroke-linejoin="round"/>
<path d="M592.803 127.571C588.075 128.687 584.233 128.948 581.171 128.863C581.171 128.863 582.525 132.02 582.886 133.208C580.935 132.532 573.882 129.343 569.733 127.425C569.684 126.79 569.739 125.974 566.609 123.849C564.794 122.617 564.705 121.012 563.758 121.331C562.981 121.593 563.201 122.897 563.78 123.888C563.866 124.035 563.974 124.189 564.086 124.342C563.022 124.191 561.136 123.626 561.136 123.626C561.136 123.626 559.038 122.819 557.911 122.565C557.032 122.367 556.28 122.775 556.352 123.284C555.469 122.909 554.848 122.749 554.165 122.924C553.533 123.087 553.342 123.739 554.125 124.326C554.436 124.559 555.561 125.428 556.074 125.72C555.765 125.601 555.461 125.47 555.167 125.428C553.957 125.257 553.352 126.253 554.7 127.039C555.364 127.426 555.923 127.758 556.363 128.051C556.264 128.025 556.163 127.997 556.072 127.979C555.185 127.797 554.101 128.566 555.528 129.44C556.88 130.266 557.727 130.788 558.522 131.106C561.895 132.457 565.222 133.342 566.475 133.067C573.377 137.894 579.227 141.179 585.922 144.485C590.769 146.879 594.809 145.019 595.387 140.589C595.613 138.866 593.694 130.754 592.803 127.571Z" fill="#FFDBDA"/>
<path d="M562.984 126.545C562.984 126.545 560.656 125.966 559.627 125.522C559.286 125.376 556.609 124.264 556.211 123.719C556.072 123.529 556.07 123.302 556.07 123.172C556.157 123.205 556.254 123.243 556.352 123.286C556.352 123.286 556.375 123.457 556.465 123.562C556.742 123.886 558.295 124.672 559.822 125.289C561.127 125.82 562.984 126.545 562.984 126.545Z" fill="url(#paint5_linear_8_1456)"/>
<path d="M562.394 128.321C562.053 128.267 559.876 127.915 559.015 127.585C558.447 127.368 556.85 126.524 555.783 125.896C555.469 125.706 555.215 125.544 555.036 125.414C555.079 125.419 555.123 125.425 555.166 125.43C555.442 125.468 555.729 125.582 556.016 125.69C556.049 125.706 556.07 125.717 556.07 125.717C556.07 125.717 557.635 126.762 559.145 127.347C560.293 127.791 562.069 128.24 562.394 128.321Z" fill="url(#paint6_linear_8_1456)"/>
<path d="M561.522 129.924C561.208 129.88 558.674 129.501 557.776 129.068C557.012 128.711 555.94 128.186 555.523 127.98C555.702 127.942 555.892 127.942 556.076 127.98C556.157 127.996 556.26 128.023 556.352 128.045C556.357 128.05 556.363 128.05 556.363 128.05C556.363 128.05 557.657 128.733 558.664 129.079C559.6 129.404 561.279 129.853 561.522 129.924Z" fill="url(#paint7_linear_8_1456)"/>
<path d="M587.614 111.481C586.865 110.132 577.019 107.613 577.019 107.613L573.218 113.305L577.016 121.053L580.721 131.825C581.962 131.661 589.74 129.482 593.514 128.152C591.351 120.918 588.327 112.765 587.614 111.481Z" fill="white"/>
<path d="M593.153 94.3585C590.418 103.212 579.854 107.811 569.557 104.631C559.26 101.451 553.129 91.6954 555.864 82.8413C558.599 73.9877 569.163 69.3885 579.46 72.5687C589.757 75.7495 595.888 85.505 593.153 94.3585Z" fill="#31020E"/>
<path opacity="0.5" d="M585.547 92.4021C583.973 97.4988 577.705 100.089 571.547 98.1869C565.389 96.285 561.674 90.6117 563.248 85.5144C564.822 80.4176 571.09 77.8276 577.248 79.7295C583.406 81.632 587.122 87.3053 585.547 92.4021Z" fill="#31020E"/>
<path d="M585.427 105.409C574.268 110.347 564.372 104.619 563.164 102.789C564.464 100.526 567.809 96.1839 566.781 94.2944C565.747 92.4049 563.116 92.1883 563.164 87.516C563.17 87.1695 563.186 86.8447 563.213 86.5415C563.776 80.337 569.125 83.1036 569.666 83.0007L580.809 83.4068C581.307 83.8345 581.886 84.3975 582.433 85.0905C583.857 86.8609 585.113 89.4921 584.366 92.8813V92.8867C582.931 97.9813 583.483 102.859 585.427 105.409Z" fill="#31020E"/>
<path d="M576.901 99.4141C580.733 94.9016 580.422 89.5845 580.422 89.5845C580.459 80.6161 568.107 80.6524 565.249 86.695C563.38 90.6467 562.702 97.5896 563.705 100.193C564.686 102.74 566.891 104.141 569.627 103.831L568.765 106.269C568.765 106.269 567.624 106.069 567.341 106.031C565.862 108.529 565.554 115.514 570.733 115.249C575.912 114.984 577.9 107.845 577.9 107.845L576.085 107.284L576.901 99.4141Z" fill="#FFDBDA"/>
<path d="M582.222 90.7537C580.977 96.0269 579.038 96.433 579.038 96.433C579.038 96.433 578.865 95.2202 578.075 94.0995C576.954 92.497 575.146 90.64 575.584 89.0212C575.113 89.3135 574.382 89.568 573.213 89.6492C569.889 89.8766 565.947 87.7651 564.307 89.2432C564.307 89.2432 563.641 89.2378 563.419 88.1983C563.419 88.1983 563.235 87.5378 563.213 86.5416C563.208 86.4658 563.208 86.39 563.208 86.3088C563.208 84.717 563.635 82.389 565.693 80.4671C568.708 77.6518 575.936 78.0686 579.504 82.4432C579.504 82.4432 580.062 82.7734 580.809 83.4069C581.307 83.8346 581.886 84.3976 582.433 85.0906C582.828 86.4495 582.796 88.3336 582.222 90.7537Z" fill="#31020E"/>
<path d="M577.652 93.7724C577.652 93.7724 579.988 92.1032 581.206 93.3447C582.91 95.0831 579.445 99.2254 577.701 98.5194C575.614 97.6753 577.652 93.7724 577.652 93.7724Z" fill="#FFDBDA"/>
<path d="M582.886 133.208C582.886 133.208 587.37 134.707 589.318 135.831C589.318 135.831 586.262 132.724 582.368 131.824L582.886 133.208Z" fill="#1C1C23"/>
<path d="M569.627 103.831C569.627 103.831 572.281 103.323 574.295 101.131C574.295 101.131 573.144 104.133 569.038 105.498L569.627 103.831Z" fill="#1C1C23"/>
<path d="M533.261 183.238L523.892 191.89C523.892 191.89 518.646 189.27 517.47 185.319C522.267 178.497 525.718 173.658 525.718 173.658" fill="#FFDBDA"/>
<path d="M499.995 183.371L516.408 199.131C516.995 199.679 517.905 199.673 518.483 199.114C519.822 197.82 521.995 196.668 523.218 194.16C523.755 193.054 523.964 192.61 523.896 191.885C523.896 191.885 522.172 190.93 521.631 189.871C521.073 188.779 521.57 187.13 521.633 186.894C521.694 186.672 524.248 184.935 524.004 183.546C522.921 180.827 518.79 178.283 518.312 178.007C516.81 180.217 515.702 181.387 514.687 181.835C512.048 180.87 509.332 179.425 504.727 178.271C503.048 177.856 501.186 178.089 499.286 180.519C498.896 181.244 499.388 182.814 499.995 183.371Z" fill="#999999"/>
<path d="M499.285 180.519C499.557 180.211 518.718 198.897 518.718 198.897C518.729 199.011 517.936 200.908 516.219 201.773C516.219 201.773 502.655 186.274 498.585 182.422C498.143 182.003 498.927 180.941 499.285 180.519Z" fill="#31020E"/>
<path d="M515.149 182.056C515.149 182.056 517.53 183.987 517.934 186.891" stroke="white" stroke-width="0.75" stroke-miterlimit="10" stroke-linecap="round"/>
<path d="M515.113 186.11C514.344 183.264 512.505 181.4 512.505 181.4" stroke="white" stroke-width="0.75" stroke-miterlimit="10" stroke-linecap="round"/>
<path d="M509.506 180.233C509.506 180.233 511.461 181.361 512.593 185.192" stroke="white" stroke-width="0.75" stroke-miterlimit="10" stroke-linecap="round"/>
<path d="M584.911 149.154C584.911 149.154 583.098 149.834 581.465 150.379C575.022 147.539 559.058 138.195 553.265 140.358C546.046 143.053 524.185 175.453 524.185 175.453C525.836 179.148 531.918 184.254 535.834 184.85C535.834 184.85 553.659 166.361 556.931 161.107C556.931 161.107 564.772 167.302 568.706 168.246H585.852C585.852 168.246 591.742 159.782 584.911 149.154Z" fill="#670926"/>
<path d="M587.078 153.475C584.929 152.262 581.464 150.378 581.464 150.378C583.099 149.836 584.912 149.154 584.912 149.154C585.871 150.643 586.574 152.089 587.078 153.475Z" fill="#31020E"/>
<path d="M568.706 168.246H575.523C575.523 168.246 563.739 154.613 554.132 159.485C553.072 160.022 551.713 161.236 550.762 162.734C548.101 166.924 546.192 173.21 545.664 174.394C548.09 171.752 550.585 168.986 552.648 166.571L552.639 166.539L560.393 161.502L568.706 168.246Z" fill="#31020E"/>
<path d="M559.581 199.067L563.688 211.906C563.688 211.906 569.878 212.23 573.018 209.21C572.162 200.437 571.51 194.189 571.51 194.189" fill="#FFDBDA"/>
<path d="M576.066 220.314C577.919 222.346 578.438 225.301 578.475 226.677L561.733 229.333C561.423 228.258 560.36 225.351 563.774 222.859C563.796 222.85 563.451 212.142 563.451 212.142C561.988 211.297 560.757 209.441 559.714 206.765L570.49 203.841C570.889 206.378 571.504 208.516 572.999 209.021C572.999 209.021 573.882 209.317 574.197 210.996C574.325 211.677 574.28 213.736 574.28 213.736L576.066 220.314Z" fill="#999999"/>
<path d="M579.302 229.333H561.467C561.278 229.096 561.054 227.845 561.333 227.196C561.333 227.196 566.02 227.3 570.963 226.718C576.406 226.078 578.324 225.267 578.324 225.267C578.666 225.8 579.547 227.481 579.302 229.333Z" fill="#31020E"/>
<path d="M569.962 219.584C565.426 221.066 563.774 222.858 563.774 222.858C563.779 222.858 563.768 222.466 563.733 221.19C567.039 219.587 569.962 219.584 569.962 219.584Z" fill="#999999"/>
<path d="M565.138 211.968C566.733 212.584 570.291 211.915 571.343 210.757" stroke="white" stroke-width="0.75" stroke-miterlimit="10" stroke-linecap="round"/>
<path d="M565.188 214.704C567.423 215.404 570.719 214.839 572.012 213.378" stroke="white" stroke-width="0.75" stroke-miterlimit="10" stroke-linecap="round"/>
<path d="M565.031 217.508C566.935 218.486 570.917 217.951 572.913 216.119" stroke="white" stroke-width="0.75" stroke-miterlimit="10" stroke-linecap="round"/>
<path d="M573.099 200.495C568.161 202.017 561.15 202.845 559.569 203.013C556.808 194.318 549.911 172.137 549.997 167.833C550.122 161.541 553.803 159.706 556.196 159.046C563.565 157.015 568.957 165.31 570.733 174.984C572.054 182.196 572.801 194.626 573.099 200.495Z" fill="#670926"/>
</g>
<defs>
<linearGradient id="paint0_linear_8_1456" x1="575.77" y1="168.669" x2="575.77" y2="224.122" gradientUnits="userSpaceOnUse">
<stop stop-color="#E4816F"/>
<stop offset="1" stop-color="#E25E52"/>
</linearGradient>
<linearGradient id="paint1_linear_8_1456" x1="490.215" y1="79.8927" x2="493.215" y2="79.8927" gradientUnits="userSpaceOnUse">
<stop stop-color="#FFCBCA"/>
<stop offset="1" stop-color="#E994A8"/>
</linearGradient>
<linearGradient id="paint2_linear_8_1456" x1="502.905" y1="44.5763" x2="504.256" y2="55.2215" gradientUnits="userSpaceOnUse">
<stop stop-color="white"/>
<stop offset="1" stop-color="#8A8C8E"/>
</linearGradient>
<linearGradient id="paint3_linear_8_1456" x1="494.202" y1="45.6815" x2="495.553" y2="56.3266" gradientUnits="userSpaceOnUse">
<stop stop-color="white"/>
<stop offset="1" stop-color="#8A8C8E"/>
</linearGradient>
<linearGradient id="paint4_linear_8_1456" x1="521.033" y1="107.754" x2="525.641" y2="107.754" gradientUnits="userSpaceOnUse">
<stop stop-color="#FFCBCA"/>
<stop offset="1" stop-color="#E994A8"/>
</linearGradient>
<linearGradient id="paint5_linear_8_1456" x1="556.07" y1="124.859" x2="562.984" y2="124.859" gradientUnits="userSpaceOnUse">
<stop stop-color="#FFCBCA"/>
<stop offset="1" stop-color="#E994A8"/>
</linearGradient>
<linearGradient id="paint6_linear_8_1456" x1="555.036" y1="126.867" x2="562.394" y2="126.867" gradientUnits="userSpaceOnUse">
<stop stop-color="#FFCBCA"/>
<stop offset="1" stop-color="#E994A8"/>
</linearGradient>
<linearGradient id="paint7_linear_8_1456" x1="555.523" y1="128.938" x2="561.522" y2="128.938" gradientUnits="userSpaceOnUse">
<stop stop-color="#FFCBCA"/>
<stop offset="1" stop-color="#E994A8"/>
</linearGradient>
<clipPath id="clip0_8_1456">
<rect width="985" height="228" fill="white"/>
</clipPath>
</defs>
</svg>
