<svg width="1440" height="582" viewBox="0 0 1440 582" fill="none" xmlns="http://www.w3.org/2000/svg">
<g clip-path="url(#clip0_470_2567)">
<g clip-path="url(#clip1_470_2567)">
<path d="M912.486 462C912.821 457.695 913 453.337 913 448.795C913 351.074 826.602 272 720.011 272C613.421 272 527 351.233 527 448.795C527 453.214 527.179 457.616 527.536 462H912.486Z" fill="#A21441" fill-opacity="0.2"/>
<path d="M1021 496.5H885H421.5L511 368.5L557 396L654 327L765.5 375L853.5 270.5L1021 496.5Z" fill="#D4D4D4"/>
<path d="M841.753 411.681L847.41 414.502" stroke="white" stroke-miterlimit="10" stroke-linecap="round" stroke-linejoin="round"/>
<path d="M772.285 377.042L833.811 407.721" stroke="white" stroke-miterlimit="10" stroke-linecap="round" stroke-linejoin="round"/>
<path d="M547.949 405.647L505.168 436.297" stroke="white" stroke-miterlimit="10" stroke-linecap="round" stroke-linejoin="round"/>
<path d="M871.651 340V307.739L877.513 309.312L878 302.46L853.724 269L823 306.418L839.996 296.722L843.513 307.739L852.892 303.017L871.651 340Z" fill="white"/>
<path d="M683.964 352.753L687.462 341.336L653.903 327L628 345.396L647.328 340.49L659.54 352.753L660.479 343.556L683.964 352.753Z" fill="white"/>
<path d="M505.262 322.019C500.76 319.564 498.714 321.61 497.077 319.564C495.44 317.518 501.578 312.198 489.301 306.878C489.301 306.878 488.483 295.42 471.704 295.01C454.926 294.601 459.427 306.469 454.926 309.333C450.425 312.198 449.197 307.696 444.695 310.561C440.193 313.426 442.24 319.155 438.557 319.973C434.874 320.791 429.963 316.29 425.462 319.154C420.96 322.019 420.96 324.474 418.914 324.474C416.868 324.474 412.775 322.837 410.32 324.474C407.865 326.111 405 328.157 405 328.157H508.535C508.535 328.157 509.764 324.475 505.262 322.019Z" fill="white"/>
<path d="M257.71 396.668C261.27 395.336 262.888 396.446 264.182 395.336C265.477 394.225 260.622 391.337 270.332 388.449C270.332 388.449 270.979 382.228 284.248 382.006C297.518 381.783 293.958 388.226 297.518 389.781C301.077 391.336 302.049 388.892 305.608 390.448C309.168 392.002 307.551 395.113 310.463 395.557C313.375 396.002 317.259 393.558 320.819 395.113C324.378 396.667 324.378 398.001 325.997 398.001C327.614 398.001 330.852 397.112 332.793 398.001C334.734 398.89 337 400 337 400H255.12C255.12 400 254.15 398.001 257.71 396.668Z" fill="white"/>
<path d="M929.115 327.668C931.893 326.336 933.157 327.446 934.166 326.336C935.177 325.225 931.388 322.337 938.966 319.449C938.966 319.449 939.472 313.228 949.828 313.006C960.184 312.783 957.406 319.226 960.184 320.781C962.963 322.337 963.721 319.892 966.499 321.448C969.277 323.002 968.015 326.113 970.288 326.557C972.561 327.002 975.592 324.558 978.371 326.113C981.149 327.667 981.149 329.001 982.412 329.001C983.676 329.001 986.201 328.112 987.716 329.001C989.232 329.89 991 331 991 331H927.094C927.094 331 926.337 329.002 929.115 327.668Z" fill="white"/>
<path d="M1179.6 384.704C1173.83 382.187 1171.21 384.285 1169.11 382.187C1167.01 380.088 1174.88 374.633 1159.13 369.179C1159.13 369.179 1158.08 357.429 1136.56 357.011C1115.04 356.592 1120.81 368.76 1115.04 371.697C1109.27 374.634 1107.69 370.018 1101.92 372.956C1096.14 375.894 1098.77 381.768 1094.04 382.607C1089.32 383.446 1083.02 378.83 1077.25 381.768C1071.47 384.706 1071.47 387.223 1068.85 387.223C1066.22 387.223 1060.97 385.545 1057.82 387.223C1054.68 388.901 1051 391 1051 391H1183.81C1183.8 390.997 1185.38 387.222 1179.6 384.704Z" fill="white"/>
</g>
<path d="M568.697 496.408C568.697 496.408 574.131 492.271 582.127 492.168C582.127 492.168 559.675 489.708 559.983 485.197C560.29 480.686 574.233 482.84 583.152 488.889C583.152 488.889 573.003 481.37 574.851 478C576.664 474.696 591.046 481.739 593.506 496.488L568.697 496.408Z" fill="white"/>
<path d="M810.264 487.875C810.264 487.875 827.543 448.792 836.666 448.619C849.078 448.384 819.526 483.007 819.526 483.007C819.526 483.007 842.027 455.74 850.42 461.336C858.507 466.727 828.511 483.697 828.511 483.697C828.511 483.697 852.57 471.993 855.747 479.065C858.097 484.295 840.191 486.633 829.202 487.875C829.202 487.875 852.848 485.451 851.291 491.152C850.42 494.339 832.485 493.107 832.485 493.107C832.485 493.107 843.475 494.028 844.615 496.56H810.265L810.264 487.875Z" fill="white"/>
<path d="M660.864 409.837C660.864 405.109 659.05 401.275 656.806 401.234L656.803 401.23C656.803 401.23 656.79 401.232 656.785 401.232C656.78 401.232 656.775 401.23 656.77 401.23C656.714 401.23 656.66 401.243 656.605 401.248C654.812 401.404 640.928 402.45 629.324 402.45C612.803 402.45 599.74 401.23 599.74 401.23C595.386 410.896 599.74 418.444 599.74 418.444H656.803C656.803 418.443 656.804 418.442 656.805 418.441C659.05 418.4 660.864 414.566 660.864 409.837Z" fill="#B48493"/>
<path d="M599.824 418.444C602.086 418.444 603.919 414.591 603.919 409.837C603.919 405.084 602.086 401.23 599.824 401.23C597.562 401.23 595.729 405.084 595.729 409.837C595.729 414.591 597.562 418.444 599.824 418.444Z" fill="#31020E"/>
<path d="M601.018 402.848C598.945 401.759 596.82 404.252 596.82 409.712C596.82 415.172 598.306 417.206 599.533 417.206C603.161 417.206 603.641 404.725 600.22 404.414C596.799 404.103 597.218 414.718 599.567 414.718C601.693 414.718 601.768 405.621 599.825 406.407C598.587 406.909 598.432 412.042 599.638 412.121C599.982 412.143 600.44 411.276 600.405 409.902" stroke="white" stroke-width="0.25" stroke-miterlimit="10" stroke-linecap="round"/>
<path d="M617.325 418.444C617.325 418.444 618.603 416.108 618.603 410.077C618.603 404.046 616.314 401.958 616.314 401.958H613.604C613.604 401.958 616.045 404.046 616.045 410.077C616.045 416.108 614.614 418.444 614.614 418.444H617.325Z" fill="#31020E"/>
<path d="M642.344 418.444C642.344 418.444 643.622 416.108 643.622 410.077C643.622 404.046 641.333 401.958 641.333 401.958H638.623C638.623 401.958 641.064 404.046 641.064 410.077C641.064 416.108 639.633 418.444 639.633 418.444H642.344Z" fill="#31020E"/>
<path d="M640.629 488.844H600.372C598.249 488.844 596.528 487.123 596.528 485V422.288C596.528 420.165 598.249 418.444 600.372 418.444H640.629C642.752 418.444 644.473 420.164 644.473 422.288V485C644.473 487.123 642.752 488.844 640.629 488.844Z" fill="#A21441"/>
<path opacity="0.5" d="M640.629 488.844H600.372C598.249 488.844 596.528 487.123 596.528 485V422.288C596.528 420.165 598.249 418.444 600.372 418.444H640.629C642.752 418.444 644.473 420.164 644.473 422.288V485C644.473 487.123 642.752 488.844 640.629 488.844Z" fill="#A21441"/>
<path d="M607.189 488.844C605.066 488.844 603.345 487.123 603.345 485V422.288C603.345 420.165 605.066 418.444 607.189 418.444" stroke="#31020E" stroke-width="0.5" stroke-miterlimit="10" stroke-linecap="round"/>
<path d="M653.879 488.844H613.622C611.499 488.844 609.778 487.123 609.778 485V422.288C609.778 420.165 611.499 418.444 613.622 418.444H653.879C656.002 418.444 657.723 420.164 657.723 422.288V485C657.723 487.123 656.002 488.844 653.879 488.844Z" fill="#A21441"/>
<path d="M603.345 490.334C603.194 490.334 603.047 490.348 602.902 490.369V488.844H600.288V493.39C600.288 495.078 601.656 496.447 603.344 496.447C605.032 496.447 606.401 495.078 606.401 493.39C606.401 491.702 605.034 490.334 603.345 490.334Z" fill="#31020E"/>
<path d="M618.439 490.334C618.288 490.334 618.141 490.348 617.996 490.369V488.844H615.381V493.39C615.381 495.078 616.75 496.447 618.438 496.447C620.126 496.447 621.495 495.078 621.495 493.39C621.495 491.702 620.127 490.334 618.439 490.334Z" fill="#31020E"/>
<path d="M638.932 490.334C638.781 490.334 638.634 490.348 638.489 490.369V488.844H635.875V493.39C635.875 495.078 637.243 496.447 638.931 496.447C640.619 496.447 641.988 495.078 641.988 493.39C641.988 491.702 640.62 490.334 638.932 490.334Z" fill="#31020E"/>
<path d="M654.026 490.334C653.875 490.334 653.728 490.348 653.583 490.369V488.844H650.968V493.39C650.968 495.078 652.337 496.447 654.025 496.447C655.713 496.447 657.082 495.078 657.082 493.39C657.082 491.702 655.714 490.334 654.026 490.334Z" fill="#31020E"/>
<path d="M617.618 482.693H614.26C613.586 482.693 613.04 482.147 613.04 481.473V426.893C613.04 426.22 613.586 425.673 614.26 425.673H617.618C618.291 425.673 618.837 426.22 618.837 426.893V481.473C618.837 482.147 618.292 482.693 617.618 482.693Z" stroke="#31020E" stroke-width="0.5" stroke-miterlimit="10" stroke-linecap="round"/>
<path d="M629.493 482.693H626.135C625.461 482.693 624.915 482.147 624.915 481.473V426.893C624.915 426.22 625.461 425.673 626.135 425.673H629.493C630.166 425.673 630.712 426.22 630.712 426.893V481.473C630.712 482.147 630.166 482.693 629.493 482.693Z" stroke="#31020E" stroke-width="0.5" stroke-miterlimit="10" stroke-linecap="round"/>
<path d="M641.367 482.693H638.009C637.336 482.693 636.79 482.147 636.79 481.473V426.893C636.79 426.22 637.336 425.673 638.009 425.673H641.367C642.041 425.673 642.587 426.22 642.587 426.893V481.473C642.587 482.147 642.041 482.693 641.367 482.693Z" stroke="#31020E" stroke-width="0.5" stroke-miterlimit="10" stroke-linecap="round"/>
<path d="M653.242 482.693H649.884C649.21 482.693 648.664 482.147 648.664 481.473V426.893C648.664 426.22 649.21 425.673 649.884 425.673H653.242C653.915 425.673 654.461 426.22 654.461 426.893V481.473C654.462 482.147 653.916 482.693 653.242 482.693Z" stroke="#31020E" stroke-width="0.5" stroke-miterlimit="10" stroke-linecap="round"/>
<path d="M622.77 381.439H621.25V421.215H622.77V381.439Z" fill="#31020E"/>
<path d="M646.253 381.439H644.732V421.215H646.253V381.439Z" fill="#31020E"/>
<path d="M622.01 383.167V378.605H645.492V383.167" stroke="#A21441" stroke-width="5" stroke-miterlimit="10" stroke-linejoin="round"/>
<path d="M808.573 496.559H736.267C733.932 496.559 732.04 494.667 732.04 492.332V439.462C732.04 437.127 733.932 435.234 736.267 435.234H808.573C810.907 435.234 812.8 437.127 812.8 439.462V492.332C812.8 494.667 810.908 496.559 808.573 496.559Z" fill="#31020E"/>
<path d="M742.36 496.559C740.026 496.559 738.133 494.667 738.133 492.332V439.462C738.133 437.127 740.026 435.234 742.36 435.234" stroke="white" stroke-width="0.5" stroke-miterlimit="10" stroke-linecap="round"/>
<path d="M821.924 496.559H749.617C747.283 496.559 745.39 494.667 745.39 492.332V439.462C745.39 437.127 747.283 435.234 749.617 435.234H821.924C824.258 435.234 826.151 437.127 826.151 439.462V492.332C826.151 494.667 824.258 496.559 821.924 496.559Z" fill="url(#paint0_linear_470_2567)"/>
<path d="M821.924 496.559H749.617C747.283 496.559 745.39 494.667 745.39 492.332V439.462C745.39 437.127 747.283 435.234 749.617 435.234H821.924C824.258 435.234 826.151 437.127 826.151 439.462V492.332C826.151 494.667 824.258 496.559 821.924 496.559Z" fill="#A21441"/>
<path d="M749.617 493.853C748.779 493.853 748.097 493.171 748.097 492.332V439.462C748.097 438.623 748.779 437.941 749.617 437.941H821.924C822.762 437.941 823.445 438.623 823.445 439.462V492.332C823.445 493.171 822.762 493.853 821.924 493.853H749.617Z" stroke="#31020E" stroke-width="0.75" stroke-linecap="round" stroke-linejoin="round" stroke-dasharray="5 5"/>
<path d="M741.745 439.573L740.877 439.326C740.44 439.201 740.217 438.718 740.404 438.305L741.662 435.536C741.814 435.201 742.188 435.028 742.541 435.129C742.895 435.23 743.121 435.574 743.074 435.939L742.684 438.955C742.626 439.405 742.181 439.698 741.745 439.573Z" fill="white"/>
<path d="M813.279 475.455L796.239 482.577L795.888 481.736C796.318 481.557 796.521 481.062 796.341 480.633C796.162 480.203 795.667 480 795.237 480.179L794.855 479.264C795.284 479.084 795.487 478.59 795.308 478.16C795.128 477.73 794.636 477.534 794.207 477.713L793.824 476.798C794.254 476.618 794.457 476.124 794.277 475.694C794.097 475.264 793.603 475.061 793.173 475.241L792.79 474.325C793.22 474.145 793.423 473.651 793.243 473.221C793.064 472.791 792.569 472.588 792.139 472.768L791.788 471.927L808.828 464.805L809.179 465.645C808.749 465.825 808.546 466.32 808.726 466.749C808.906 467.179 809.4 467.382 809.83 467.203L810.213 468.118C809.783 468.298 809.58 468.792 809.759 469.222C809.939 469.652 810.433 469.855 810.863 469.675L811.246 470.591C810.816 470.77 810.61 471.259 810.79 471.688C810.97 472.118 811.464 472.321 811.894 472.141L812.277 473.057C811.847 473.236 811.644 473.731 811.824 474.161C812.003 474.591 812.498 474.794 812.928 474.614L813.279 475.455Z" fill="white"/>
<path d="M811.342 475.196L807.653 466.371L793.76 472.179L797.449 481.004L811.342 475.196Z" stroke="#31020E" stroke-width="0.25" stroke-miterlimit="10" stroke-linecap="round" stroke-linejoin="round"/>
<path opacity="0.5" d="M771.906 458.444L770.356 459.662L771.456 461.297L769.605 461.973L770.143 463.869L768.173 463.94L768.102 465.91L766.206 465.372L765.53 467.223L763.894 466.122L762.677 467.672L761.46 466.122L759.825 467.223L759.149 465.371L757.252 465.91L757.181 463.94L755.211 463.869L755.75 461.973L753.899 461.297L754.999 459.662L753.449 458.444L754.999 457.227L753.899 455.591L755.75 454.915L755.212 453.019L757.182 452.948L757.253 450.978L759.149 451.517L759.825 449.666L761.46 450.766L762.677 449.216L763.894 450.766L765.53 449.666L766.207 451.517L768.103 450.979L768.174 452.948L770.143 453.02L769.605 454.915L771.456 455.592L770.356 457.227L771.906 458.444Z" fill="white"/>
<path d="M802.309 456.678L791.021 454.725L791.728 450.637L803.016 452.591L802.309 456.678Z" fill="#31020E"/>
<path d="M650.627 355.07C650.627 355.07 647.265 355.38 646.455 352.584C646.455 352.584 648.357 352.101 649.963 353.647C649.963 353.647 649.081 352.221 649.288 351.115C649.288 351.115 651.035 351.713 651.222 354.155L650.627 355.07Z" fill="#A21441"/>
<path d="M693.031 378.605C693.031 378.605 702.438 381.405 703.992 382.441C705.547 383.478 708.658 397.733 708.312 401.776C707.968 405.806 696.839 409.396 696.839 409.396L693.031 378.605Z" fill="#A21441"/>
<path d="M708.055 328.184L709.626 322.069C709.626 322.069 700.762 323.175 699.466 322.916C698.17 322.656 697.264 322.625 696.554 322.752C695.846 322.878 694.965 323.632 695.569 324.242C696.174 324.852 699.634 325.421 699.859 325.733C700.084 326.043 701.544 328.493 701.544 328.493L700.216 347.027L689.848 341.312L688.009 354.121C688.009 354.121 704.616 361.758 708.348 358.285C712.266 354.638 708.055 328.184 708.055 328.184Z" fill="#FFDBDA"/>
<path d="M679.214 466.35L680.169 484.973L692.08 484.285L694.092 466.35H679.214Z" fill="#FFDBDA"/>
<path d="M679.215 481.69C679.215 481.69 686.598 476.968 696.252 477.267L692.536 486.943C692.536 486.943 698.29 485.491 703.163 485.284C710.731 484.962 708.036 496.488 708.036 496.488H677.971C677.971 496.488 677.245 492.906 679.525 488.446C679.526 486.271 679.215 482.882 679.215 481.69Z" fill="#31020E"/>
<path d="M708.397 494.121C708.262 495.507 708.034 496.487 708.034 496.487H677.97C677.97 496.487 677.716 495.236 677.981 493.287C679.513 493.379 683.974 493.736 686.059 494.976L708.397 494.121Z" fill="#31020E"/>
<path d="M690.982 487.41C690.982 487.41 687.094 484.882 688.506 483.004C690.025 480.984 692.109 483.807 691.966 487.073C691.966 487.073 692.187 481.285 694.403 481.293C697.073 481.303 693.003 487.15 693.003 487.15C693.003 487.15 693.902 485.82 696.338 484.973C698.775 484.127 700.589 487.323 702.23 487.72" stroke="#31020E" stroke-width="0.5" stroke-miterlimit="10" stroke-linecap="round" stroke-linejoin="round"/>
<path d="M637.581 453.005L626.186 467.994L635.822 475.222L649.057 462.697L637.581 453.005Z" fill="#FFDBDA"/>
<path d="M626.445 466.935C626.445 466.935 636.767 466.658 642.445 473.57L633.667 477.302L635.776 484.974C635.776 484.974 641.284 484.357 643.827 487.875C646.626 491.747 642.41 496.447 642.41 496.447H629.106L614.385 476.818C614.385 476.818 618.418 471.246 622.721 470.676L626.445 466.935Z" fill="#31020E"/>
<path d="M633.43 477.198C633.43 477.198 639.938 477.168 639.581 479.641C639.223 482.113 633.43 477.824 633.43 477.824C633.43 477.824 637.973 481.651 636.945 482.678C635.728 483.895 633.132 478.866 633.132 478.866C633.132 478.866 633.817 480.219 633.758 482.968C633.698 485.717 631.732 488.844 631.732 488.844" stroke="#31020E" stroke-width="0.5" stroke-miterlimit="10" stroke-linecap="round" stroke-linejoin="round"/>
<path d="M694.076 375.952C694.076 375.952 696.675 382.738 698.877 400.158C700.802 415.38 700.838 448.963 697.511 462.026C697.03 463.913 695.976 465.065 695.197 465.57C694.861 467.255 693.781 472.274 693.781 472.274L678.852 470.019C678.852 470.019 678.541 467.22 678.42 465.787C673.103 460.161 678.317 440.463 679.191 431.636C676.304 414.407 677.753 377.341 677.753 377.341L694.076 375.952Z" fill="white"/>
<path d="M684.76 398.563L682.22 402.245C682.22 402.245 681.712 420.994 678.945 430.035C677.987 423.36 677.581 414.297 677.445 405.569C678.685 402.83 679.681 400.637 679.681 400.637L684.76 398.563Z" fill="#31020E"/>
<path d="M663.792 377.853C663.792 377.853 660.261 381.61 659.38 385.546C658.025 391.598 659.38 399.158 659.38 399.158L656.851 422.215C656.851 422.215 644.336 435.201 639.128 443.229C635.053 449.51 636.902 452.368 636.902 452.368L632.303 458.693L645.262 466.934L648.942 464.499C648.942 464.499 651.864 464.443 654.385 462.426C656.906 460.409 674.194 438.352 677.784 427.648C681.831 415.583 681.277 376.72 681.277 376.72L663.792 377.853Z" fill="white"/>
<path d="M683.66 337.799C683.66 337.799 689.969 340.384 691.316 342.976C693.284 346.76 690.41 356.443 690.947 360.874C691.484 365.305 694.841 376.181 694.304 376.718C693.767 377.256 681.548 381.955 663.69 377.927C663.69 377.927 664.443 371.975 664.361 368.528C663.557 363.408 658.901 347.268 658.364 341.763C661.094 339.301 673.312 335.929 673.312 335.929L683.66 337.799Z" fill="#670926"/>
<path d="M665.134 350.466C665.134 350.466 663.916 355.36 662.367 359.718C661.312 355.474 660.088 350.671 659.265 346.86L665.134 350.466Z" fill="white"/>
<path d="M671.112 317.737C671.112 317.737 669.729 319.862 668.528 322.8C667.21 326.022 666.93 328.485 670.05 328.828C674.118 328.938 677.539 326.618 677.539 326.618L680.321 318.901" fill="#A21441"/>
<path d="M672.305 317.545C672.305 317.545 666.791 324.951 668.45 327.898C669.607 329.953 676.997 328.363 679.024 327.414C681.755 326.135 683.206 321.504 683.206 321.504" fill="#31020E"/>
<path d="M682.567 332.045C682.567 332.045 685.366 332.719 687.27 331.644C689.993 330.107 692.78 314.53 686.796 311.476C680.812 308.421 671.733 311.46 672.833 319.392C673.117 321.435 674.391 327.496 674.391 327.496L673.312 335.93C673.312 335.93 676.367 338.922 683.66 337.8L682.567 332.045Z" fill="#FFDBDA"/>
<path d="M643.694 494.581C643.072 495.713 642.411 496.449 642.411 496.449H629.109L614.383 476.818C614.383 476.818 615.689 475.021 617.316 473.613C617.316 473.613 619.18 476.539 620.149 480.274L630.073 494.581H643.694V494.581Z" fill="#31020E"/>
<path d="M671.128 397.266C671.128 397.266 669.008 420.895 667.672 425.188C665.737 431.409 642.411 457.448 642.411 457.448" stroke="#31020E" stroke-width="0.5" stroke-miterlimit="10" stroke-linecap="round" stroke-linejoin="round"/>
<path d="M637.331 453.005C637.331 453.005 641.634 458.433 648.58 463.669" stroke="#31020E" stroke-width="0.5" stroke-miterlimit="10" stroke-linecap="round" stroke-linejoin="round"/>
<path d="M678.869 465.794C678.869 465.794 688.511 466.969 694.316 465.794" stroke="#31020E" stroke-width="0.5" stroke-miterlimit="10" stroke-linecap="round" stroke-linejoin="round"/>
<path d="M667.792 386.07L656.234 365.405C656.234 365.405 662.947 354.89 664.649 351.599C667.5 346.087 663.145 339.521 658.364 341.764C658.364 341.764 656.58 343.22 653.556 348.438C650.029 354.523 644.482 365.976 645.469 367.928C647.095 371.142 662.816 389.595 662.816 389.595C662.764 392.084 664.501 395.531 664.501 395.531L670.954 387.781C670.073 387.055 667.792 386.07 667.792 386.07Z" fill="#FFDBDA"/>
<path d="M671.445 386.624L663.115 396.365L664.739 397.941L672.715 387.542L671.445 386.624Z" fill="#31020E"/>
<path d="M678.587 316.355C678.587 316.355 684.545 313.547 689.495 315.336C689.495 315.336 690.126 317.043 690.276 318.585C690.276 318.585 694.589 315.33 693.746 313.495C693.15 312.199 691.543 312.744 691.543 312.744C691.543 312.744 694.975 308.23 692.346 306.109C689.841 304.087 686.178 307.301 686.178 307.301C686.178 307.301 679.387 306.887 674.825 309.012C670.264 311.137 671.815 318.2 671.815 318.2L673.802 322.542L676.792 321.786L676.641 320.572C676.641 320.572 678.886 319.794 678.587 316.355Z" fill="#31020E"/>
<path d="M686.178 307.301C686.178 307.301 679.005 308.081 671.393 318.852C671.393 318.852 664.337 312.744 671.56 305.695C674.275 303.044 681.375 300.641 686.178 307.301Z" fill="#A21441"/>
<path d="M676.058 320.9C675.731 319.977 674.531 317.563 672.241 318.76C669.572 320.155 672.142 325.975 674.686 325.639C677.231 325.302 676.471 322.064 676.058 320.9Z" fill="#FFDBDA"/>
<path d="M680.225 306.724C680.128 306.776 680.031 306.83 679.935 306.886C678.903 307.485 678.594 308.833 679.271 309.815C679.271 309.815 681.714 308.034 683.729 307.496C682.899 306.429 681.416 306.084 680.225 306.724Z" fill="#31020E"/>
<path d="M682.567 332.044C682.567 332.044 679.112 331.135 677.242 328.29C677.242 328.29 677.781 333.096 683.042 334.546L682.567 332.044Z" fill="#31020E"/>
<path d="M700.215 347.028L703.215 348.722L700.356 345.063L700.215 347.028Z" fill="url(#paint1_linear_470_2567)"/>
<path d="M664.048 338.929C664.048 338.929 688.008 350.2 699.283 385.861L702.714 384.757C702.714 384.757 694.362 353.932 668.848 336.515L664.048 338.929Z" fill="#31020E"/>
<path d="M698.533 385.344L703.01 384.065L703.889 387.003L699.5 388.33L698.533 385.344Z" fill="#31020E"/>
<path d="M701.327 405.704C700.785 401.276 699.318 392.96 698.853 390.34L705.371 388.288C705.371 388.288 706.87 396.261 707.206 399.549C707.621 403.608 702.766 405.232 701.327 405.704Z" stroke="#31020E" stroke-width="0.25" stroke-miterlimit="10" stroke-linecap="round" stroke-linejoin="round" stroke-dasharray="2 2"/>
<path d="M649.445 356.228C649.445 356.228 653.85 360.048 658.537 361.762L660.649 358.372C660.649 358.372 655.284 354.83 651.517 352.136L649.445 356.228Z" fill="#A21441"/>
<path d="M713.098 312.212C712.982 312.227 712.87 312.254 712.76 312.29L694.597 316.484C693.527 316.619 692.845 318.203 693.076 320.021C693.307 321.838 694.362 323.201 695.432 323.065L714.067 322.588C714.182 322.595 714.297 322.594 714.413 322.58C716.1 322.366 717.172 319.871 716.808 317.008C716.446 314.145 714.784 311.998 713.098 312.212Z" fill="#31020E"/>
<path d="M716.268 317.072C716.574 319.486 715.648 321.592 714.2 321.776C712.752 321.96 711.329 320.152 711.022 317.738C710.716 315.323 711.642 313.217 713.09 313.034C714.539 312.85 715.961 314.658 716.268 317.072Z" fill="url(#paint2_linear_470_2567)"/>
<path d="M704.395 313.316C704.279 313.331 704.166 313.358 704.057 313.394L685.894 317.588C684.823 317.724 684.142 319.307 684.373 321.125C684.604 322.942 685.658 324.306 686.729 324.169L705.364 323.692C705.479 323.699 705.595 323.698 705.711 323.684C707.397 323.47 708.47 320.975 708.106 318.112C707.743 315.249 706.08 313.102 704.395 313.316Z" fill="#31020E"/>
<path d="M707.564 318.177C707.871 320.591 706.945 322.697 705.497 322.88C704.049 323.064 702.626 321.256 702.319 318.842C702.013 316.428 702.939 314.322 704.387 314.138C705.835 313.955 707.258 315.763 707.564 318.177Z" fill="url(#paint3_linear_470_2567)"/>
<path d="M690.076 320.636C690.076 320.636 691.085 324.1 691.103 336.653C691.11 342.226 689.405 352.453 696.632 351.789C704.148 351.098 706.304 334.215 704.371 323.719L703.215 323.749C703.215 323.749 704.442 329.569 703.716 335.651C702.991 341.733 702.541 350.666 696.684 351.323C691.117 351.947 692.57 339.801 692.658 336.722C692.778 332.541 692.969 323.867 692.105 320.273L690.076 320.636Z" fill="#31020E"/>
<path d="M686.023 318.13L701.954 315.02" stroke="#31020E" stroke-width="0.5" stroke-miterlimit="10" stroke-linecap="round" stroke-linejoin="round"/>
<path d="M762.098 381.08C760.086 383.763 755.195 388.918 755.195 388.918C754.301 389.294 741.895 376.588 742.248 376.122C742.231 374.563 741.414 372.915 740.889 371.374C740.479 370.175 740.203 368.168 739.516 367.317C739.086 366.784 738.13 366.732 737.735 368.513C737.554 369.331 737.782 370.787 737.67 371.231C737.557 371.674 736.936 370.808 735.996 369.711C735.055 368.614 732.036 364.732 731.447 364.349C730.472 363.716 729.574 365.212 731.106 367.387C732.076 368.767 733.248 370.114 733.842 370.948C732.381 370.799 732.211 372.123 732.177 372.255C731.584 372.31 731.239 372.558 731.043 372.74C730.825 372.942 730.637 373.444 730.919 373.853C729.966 374.53 730.325 375.554 730.504 375.871C730.683 376.189 731.866 377.255 732.729 377.109C734.094 379.539 734.748 380.097 736.865 380.61C737.577 380.783 742.12 391.392 752.072 399.409C752.884 400.063 754.683 401.723 756.505 401.089C761.089 399.494 771.553 389.31 771.553 389.31C768.259 386.207 764.193 382.734 762.098 381.08Z" fill="#FFDBDA"/>
<path d="M734.358 372.541C734.676 373.035 735.281 373.726 735.373 374.366C735.437 374.809 735.062 375.214 734.627 375.111C734.088 374.983 733.54 374.328 733.172 374.004C732.746 373.565 732.309 373.088 732.183 372.469C732.197 373.118 732.62 373.671 733.02 374.145C733.329 374.503 733.872 375.076 734.399 375.333C734.457 375.71 734.506 376.627 733.536 376.267C732.326 375.818 731.032 373.994 731.032 373.994C731.143 374.299 731.972 375.518 732.898 376.163C732.98 376.348 733.104 376.75 732.809 377.038C732.809 377.038 733.171 376.952 733.182 376.338C733.407 376.46 733.634 376.543 733.855 376.562C734.835 376.646 734.79 375.818 734.72 375.443C735.023 375.504 735.304 375.417 735.509 375.062C736.017 374.181 734.937 373.155 734.358 372.541Z" fill="url(#paint4_linear_470_2567)"/>
<path d="M780.733 373.839C780.733 373.839 772.524 371.7 770.66 372.163C769.043 372.564 764.001 378.415 759.084 384.147C760.387 385.693 765.241 390.863 768.088 393.547L780.733 373.839Z" fill="white"/>
<path d="M764.858 417.621C779.37 422.95 794.911 416.154 794.911 416.154C794.911 416.154 792.493 410.811 792.24 409.913C792.056 409.281 793.1 392.229 793.1 392.229C793.1 392.229 789.421 381.88 786.43 379.463C783.449 377.047 776.337 376.621 776.337 376.621C776.337 376.621 767.716 384.58 766.726 387.284C765.725 389.977 765.861 393.579 765.265 401.145C764.474 411.19 764.858 417.621 764.858 417.621Z" fill="white"/>
<path d="M787.299 388.874L789.71 401.876L795.217 401.595L794.911 396.032L787.299 388.874Z" fill="#1C1C23"/>
<path d="M769.282 375.943L754.906 385.228L738.899 384.479L726.361 391.738L740.547 420.767L751.103 413.146L765.524 413.4L779.038 404.213L769.282 375.943Z" fill="white" stroke="#1C1C23" stroke-width="0.5" stroke-miterlimit="10" stroke-linecap="round" stroke-linejoin="round"/>
<path opacity="0.3" d="M728.484 392.385L739.568 386.052L755.53 386.884L768.422 378.432L777.097 403.568L764.908 411.766L750.451 411.614L741.16 418.321L728.484 392.385Z" fill="#D89AA5"/>
<path d="M738.899 384.479L751.104 413.146" stroke="#1C1C23" stroke-width="0.5" stroke-miterlimit="10" stroke-linecap="round" stroke-linejoin="round"/>
<path d="M754.906 385.228L765.524 413.4" stroke="#1C1C23" stroke-width="0.5" stroke-miterlimit="10" stroke-linecap="round" stroke-linejoin="round"/>
<path d="M802.803 394.571C798.075 395.687 794.233 395.948 791.171 395.863C791.171 395.863 792.525 399.02 792.886 400.208C790.935 399.532 783.882 396.343 779.733 394.425C779.684 393.79 779.739 392.974 776.609 390.849C774.794 389.617 774.705 388.012 773.758 388.331C772.981 388.593 773.201 389.897 773.78 390.888C773.866 391.035 773.974 391.189 774.086 391.342C773.022 391.191 771.136 390.626 771.136 390.626C771.136 390.626 769.038 389.819 767.911 389.565C767.032 389.367 766.28 389.775 766.352 390.284C765.469 389.909 764.848 389.749 764.165 389.924C763.533 390.087 763.342 390.739 764.125 391.326C764.436 391.559 765.561 392.428 766.074 392.72C765.765 392.601 765.461 392.47 765.167 392.428C763.957 392.257 763.352 393.253 764.7 394.039C765.364 394.426 765.923 394.758 766.363 395.051C766.264 395.025 766.163 394.997 766.072 394.979C765.185 394.797 764.101 395.566 765.528 396.44C766.88 397.266 767.727 397.788 768.522 398.106C771.895 399.457 775.222 400.342 776.475 400.067C783.377 404.894 789.227 408.179 795.922 411.485C800.769 413.879 804.809 412.019 805.387 407.589C805.613 405.866 803.694 397.754 802.803 394.571Z" fill="#FFDBDA"/>
<path d="M772.984 393.545C772.984 393.545 770.656 392.966 769.627 392.522C769.286 392.376 766.609 391.264 766.211 390.719C766.072 390.529 766.07 390.302 766.07 390.172C766.157 390.205 766.254 390.243 766.352 390.286C766.352 390.286 766.375 390.457 766.466 390.562C766.742 390.886 768.295 391.672 769.822 392.289C771.127 392.82 772.984 393.545 772.984 393.545Z" fill="url(#paint5_linear_470_2567)"/>
<path d="M772.394 395.321C772.053 395.267 769.876 394.915 769.015 394.585C768.447 394.368 766.85 393.523 765.783 392.895C765.469 392.706 765.215 392.544 765.036 392.414C765.079 392.419 765.123 392.424 765.166 392.43C765.442 392.468 765.729 392.581 766.016 392.69C766.049 392.706 766.07 392.717 766.07 392.717C766.07 392.717 767.635 393.762 769.145 394.346C770.293 394.79 772.069 395.24 772.394 395.321Z" fill="url(#paint6_linear_470_2567)"/>
<path d="M771.522 396.924C771.208 396.88 768.674 396.501 767.776 396.068C767.012 395.711 765.94 395.186 765.523 394.98C765.702 394.942 765.892 394.942 766.076 394.98C766.157 394.996 766.26 395.023 766.352 395.045C766.357 395.05 766.363 395.05 766.363 395.05C766.363 395.05 767.657 395.733 768.664 396.079C769.6 396.404 771.279 396.853 771.522 396.924Z" fill="url(#paint7_linear_470_2567)"/>
<path d="M797.614 378.481C796.865 377.132 787.019 374.612 787.019 374.612L783.218 380.305L787.017 388.053L790.721 398.824C791.962 398.66 799.74 396.482 803.514 395.152C801.351 387.918 798.328 379.764 797.614 378.481Z" fill="white"/>
<path d="M803.153 361.358C800.418 370.212 789.854 374.811 779.557 371.631C769.26 368.451 763.129 358.695 765.864 349.841C768.599 340.988 779.163 336.388 789.46 339.568C799.757 342.749 805.888 352.505 803.153 361.358Z" fill="#31020E"/>
<path opacity="0.5" d="M795.547 359.402C793.973 364.499 787.705 367.089 781.547 365.187C775.389 363.285 771.674 357.611 773.247 352.514C774.822 347.417 781.09 344.827 787.248 346.729C793.405 348.632 797.122 354.305 795.547 359.402Z" fill="#31020E"/>
<path d="M795.427 372.409C784.268 377.347 774.372 371.619 773.164 369.789C774.464 367.526 777.809 363.184 776.781 361.294C775.747 359.405 773.116 359.188 773.164 354.516C773.17 354.169 773.186 353.844 773.213 353.541C773.776 347.337 779.125 350.103 779.666 350L790.809 350.407C791.307 350.834 791.886 351.397 792.433 352.09C793.857 353.861 795.113 356.492 794.366 359.881V359.886C792.931 364.981 793.483 369.859 795.427 372.409Z" fill="#31020E"/>
<path d="M786.901 366.414C790.733 361.902 790.422 356.584 790.422 356.584C790.459 347.616 778.107 347.652 775.249 353.695C773.38 357.647 772.702 364.59 773.705 367.193C774.686 369.74 776.891 371.141 779.627 370.831L778.765 373.269C778.765 373.269 777.624 373.069 777.341 373.031C775.862 375.529 775.554 382.514 780.733 382.249C785.912 381.984 787.9 374.845 787.9 374.845L786.085 374.284L786.901 366.414Z" fill="#FFDBDA"/>
<path d="M792.222 357.753C790.976 363.027 789.038 363.433 789.038 363.433C789.038 363.433 788.865 362.22 788.074 361.099C786.954 359.497 785.145 357.64 785.584 356.021C785.113 356.313 784.382 356.568 783.213 356.649C779.888 356.876 775.947 354.765 774.307 356.243C774.307 356.243 773.641 356.238 773.419 355.198C773.419 355.198 773.235 354.538 773.213 353.541C773.208 353.466 773.208 353.39 773.208 353.309C773.208 351.717 773.635 349.389 775.693 347.467C778.708 344.652 785.936 345.068 789.504 349.443C789.504 349.443 790.061 349.773 790.808 350.407C791.307 350.834 791.886 351.397 792.433 352.09C792.828 353.449 792.795 355.333 792.222 357.753Z" fill="#31020E"/>
<path d="M787.652 360.772C787.652 360.772 789.988 359.103 791.205 360.344C792.91 362.083 789.445 366.225 787.7 365.519C785.614 364.675 787.652 360.772 787.652 360.772Z" fill="#FFDBDA"/>
<path d="M792.886 400.208C792.886 400.208 797.37 401.707 799.318 402.831C799.318 402.831 796.262 399.724 792.368 398.824L792.886 400.208Z" fill="#1C1C23"/>
<path d="M779.627 370.831C779.627 370.831 782.281 370.323 784.296 368.131C784.296 368.131 783.145 371.133 779.038 372.498L779.627 370.831Z" fill="#1C1C23"/>
<path d="M743.261 450.238L733.892 458.89C733.892 458.89 728.646 456.271 727.471 452.319C732.267 445.497 735.718 440.659 735.718 440.659" fill="#FFDBDA"/>
<path d="M709.994 450.371L726.408 466.131C726.995 466.68 727.905 466.674 728.483 466.114C729.822 464.821 731.995 463.668 733.218 461.161C733.755 460.055 733.963 459.611 733.896 458.886C733.896 458.886 732.171 457.93 731.631 456.871C731.073 455.779 731.569 454.13 731.633 453.894C731.693 453.673 734.248 451.935 734.003 450.546C732.921 447.827 728.79 445.283 728.312 445.007C726.81 447.217 725.702 448.387 724.687 448.835C722.048 447.87 719.332 446.425 714.726 445.272C713.047 444.856 711.186 445.089 709.286 447.519C708.895 448.244 709.388 449.814 709.994 450.371Z" fill="#999999"/>
<path d="M709.285 447.519C709.557 447.211 728.718 465.897 728.718 465.897C728.729 466.011 727.936 467.909 726.219 468.773C726.219 468.773 712.655 453.275 708.585 449.422C708.143 449.003 708.927 447.942 709.285 447.519Z" fill="#31020E"/>
<path d="M725.149 449.056C725.149 449.056 727.53 450.987 727.934 453.892" stroke="white" stroke-width="0.75" stroke-miterlimit="10" stroke-linecap="round"/>
<path d="M725.113 453.11C724.344 450.264 722.505 448.4 722.505 448.4" stroke="white" stroke-width="0.75" stroke-miterlimit="10" stroke-linecap="round"/>
<path d="M719.506 447.233C719.506 447.233 721.461 448.361 722.593 452.192" stroke="white" stroke-width="0.75" stroke-miterlimit="10" stroke-linecap="round"/>
<path d="M794.911 416.154C794.911 416.154 793.098 416.833 791.465 417.379C785.022 414.539 769.058 405.195 763.265 407.357C756.046 410.053 734.185 442.453 734.185 442.453C735.836 446.148 741.918 451.254 745.834 451.85C745.834 451.85 763.659 433.36 766.931 428.107C766.931 428.107 774.772 434.302 778.706 435.245H795.852C795.852 435.245 801.742 426.782 794.911 416.154Z" fill="#670926"/>
<path d="M797.078 420.475C794.929 419.262 791.464 417.378 791.464 417.378C793.099 416.836 794.913 416.154 794.913 416.154C795.871 417.643 796.575 419.089 797.078 420.475Z" fill="#31020E"/>
<path d="M778.706 435.246H785.523C785.523 435.246 773.739 421.613 764.132 426.485C763.072 427.022 761.713 428.236 760.762 429.734C758.101 433.924 756.192 440.21 755.664 441.394C758.09 438.752 760.585 435.986 762.648 433.571L762.639 433.539L770.393 428.502L778.706 435.246Z" fill="#31020E"/>
<path d="M769.581 466.067L773.688 478.906C773.688 478.906 779.878 479.23 783.018 476.21C782.162 467.436 781.51 461.188 781.51 461.188" fill="#FFDBDA"/>
<path d="M786.066 487.314C787.919 489.345 788.438 492.301 788.475 493.677L771.733 496.333C771.423 495.258 770.36 492.351 773.774 489.859C773.796 489.85 773.451 479.142 773.451 479.142C771.988 478.296 770.757 476.441 769.714 473.764L780.49 470.84C780.889 473.378 781.504 475.515 782.999 476.021C782.999 476.021 783.882 476.317 784.197 477.995C784.325 478.677 784.28 480.736 784.28 480.736L786.066 487.314Z" fill="#999999"/>
<path d="M789.302 496.332H771.466C771.277 496.095 771.054 494.845 771.333 494.196C771.333 494.196 776.02 494.3 780.963 493.718C786.406 493.078 788.324 492.267 788.324 492.267C788.665 492.799 789.546 494.481 789.302 496.332Z" fill="#31020E"/>
<path d="M779.962 486.584C775.426 488.066 773.774 489.858 773.774 489.858C773.779 489.858 773.768 489.466 773.732 488.19C777.039 486.587 779.962 486.584 779.962 486.584Z" fill="#999999"/>
<path d="M775.138 478.968C776.733 479.585 780.291 478.915 781.342 477.757" stroke="white" stroke-width="0.75" stroke-miterlimit="10" stroke-linecap="round"/>
<path d="M775.187 481.704C777.423 482.404 780.719 481.839 782.012 480.378" stroke="white" stroke-width="0.75" stroke-miterlimit="10" stroke-linecap="round"/>
<path d="M775.031 484.508C776.935 485.486 780.916 484.951 782.913 483.119" stroke="white" stroke-width="0.75" stroke-miterlimit="10" stroke-linecap="round"/>
<path d="M783.099 467.496C778.161 469.017 771.15 469.845 769.569 470.013C766.808 461.318 759.911 439.137 759.997 434.833C760.122 428.542 763.803 426.706 766.196 426.046C773.565 424.016 778.957 432.31 780.733 441.985C782.054 449.196 782.801 461.627 783.099 467.496Z" fill="#670926"/>
</g>
<defs>
<linearGradient id="paint0_linear_470_2567" x1="785.77" y1="435.669" x2="785.77" y2="491.122" gradientUnits="userSpaceOnUse">
<stop stop-color="#E4816F"/>
<stop offset="1" stop-color="#E25E52"/>
</linearGradient>
<linearGradient id="paint1_linear_470_2567" x1="700.215" y1="346.893" x2="703.215" y2="346.893" gradientUnits="userSpaceOnUse">
<stop stop-color="#FFCBCA"/>
<stop offset="1" stop-color="#E994A8"/>
</linearGradient>
<linearGradient id="paint2_linear_470_2567" x1="712.905" y1="311.577" x2="714.256" y2="322.222" gradientUnits="userSpaceOnUse">
<stop stop-color="white"/>
<stop offset="1" stop-color="#8A8C8E"/>
</linearGradient>
<linearGradient id="paint3_linear_470_2567" x1="704.202" y1="312.682" x2="705.553" y2="323.327" gradientUnits="userSpaceOnUse">
<stop stop-color="white"/>
<stop offset="1" stop-color="#8A8C8E"/>
</linearGradient>
<linearGradient id="paint4_linear_470_2567" x1="731.032" y1="374.754" x2="735.641" y2="374.754" gradientUnits="userSpaceOnUse">
<stop stop-color="#FFCBCA"/>
<stop offset="1" stop-color="#E994A8"/>
</linearGradient>
<linearGradient id="paint5_linear_470_2567" x1="766.07" y1="391.859" x2="772.984" y2="391.859" gradientUnits="userSpaceOnUse">
<stop stop-color="#FFCBCA"/>
<stop offset="1" stop-color="#E994A8"/>
</linearGradient>
<linearGradient id="paint6_linear_470_2567" x1="765.036" y1="393.867" x2="772.394" y2="393.867" gradientUnits="userSpaceOnUse">
<stop stop-color="#FFCBCA"/>
<stop offset="1" stop-color="#E994A8"/>
</linearGradient>
<linearGradient id="paint7_linear_470_2567" x1="765.523" y1="395.938" x2="771.522" y2="395.938" gradientUnits="userSpaceOnUse">
<stop stop-color="#FFCBCA"/>
<stop offset="1" stop-color="#E994A8"/>
</linearGradient>
<clipPath id="clip0_470_2567">
<rect width="1439.95" height="581.979" fill="white"/>
</clipPath>
<clipPath id="clip1_470_2567">
<rect width="1439.95" height="581.979" fill="white" transform="translate(-32 -7)"/>
</clipPath>
</defs>
</svg>
