<svg width="90" height="89" viewBox="0 0 90 89" fill="none" xmlns="http://www.w3.org/2000/svg">
<path d="M66.4858 21.8693C78.5303 33.9138 78.5303 53.4417 66.4858 65.4861C54.4414 77.5306 34.9135 77.5306 22.869 65.4861C10.8246 53.4417 10.8246 33.9138 22.869 21.8693C34.9135 9.8249 54.4414 9.8249 66.4858 21.8693Z" fill="white" stroke="#A21441" stroke-width="1.5"/>
<path d="M64.5114 63.2003C63.4101 59.2838 60.3567 56.2187 56.4445 55.102L49.2278 53.0427H44.6782H40.1286L32.912 55.102C28.9998 56.2182 25.9464 59.2838 24.845 63.2003L22.8595 66.5116C28.5311 71.9328 36.2127 75.2691 44.6788 75.2691C53.1443 75.2691 60.8259 71.9328 66.4975 66.5116L64.5114 63.2003Z" fill="#31020E"/>
<path d="M48.9303 47.2373H44.6784H40.4266L39.0864 54.2523C39.0864 54.2523 41.4854 56.767 44.6784 56.8997C47.8715 56.7675 50.2699 54.2523 50.2699 54.2523L48.9303 47.2373Z" fill="#FFE6E0"/>
<path d="M54.1894 37.3939C54.1894 43.1435 49.9312 50.8437 44.6778 50.8437C39.4249 50.8437 35.1661 43.1435 35.1661 37.3939C35.1661 31.6442 39.4244 26.9832 44.6778 26.9832C49.9312 26.9826 54.1894 31.6437 54.1894 37.3939Z" fill="#FFDBDA"/>
<path d="M36.3719 38.1965C36.3268 39.3201 35.658 40.8004 34.9081 40.7701C34.1581 40.7399 33.6109 39.2108 33.656 38.0871C33.7012 36.9635 34.346 36.0772 35.096 36.1074C35.8454 36.1377 36.417 37.0729 36.3719 38.1965Z" fill="#FFDBDA"/>
<path d="M55.5259 38.0957C55.5641 39.2199 55.0068 40.7453 54.2569 40.7707C53.5069 40.7962 52.8477 39.3117 52.8095 38.1876C52.7713 37.0634 53.3488 36.1319 54.0987 36.1065C54.8487 36.0815 55.4877 36.9721 55.5259 38.0957Z" fill="#FFDBDA"/>
</svg>
