<svg width="19" height="75" viewBox="0 0 19 75" fill="none" xmlns="http://www.w3.org/2000/svg">
<path d="M10 74.3333C10.7364 74.3333 11.3333 73.7364 11.3333 73C11.3333 72.2636 10.7364 71.6667 10 71.6667C9.26362 71.6667 8.66667 72.2636 8.66667 73C8.66667 73.7364 9.26362 74.3333 10 74.3333ZM10 18.3333C10.7364 18.3333 11.3333 17.7364 11.3333 17C11.3333 16.2636 10.7364 15.6667 10 15.6667C9.26362 15.6667 8.66667 16.2636 8.66667 17C8.66667 17.7364 9.26362 18.3333 10 18.3333ZM10.25 71C10.25 70.8619 10.1381 70.75 10 70.75C9.86193 70.75 9.75 70.8619 9.75 71L10.25 71ZM9.75 67C9.75 67.1381 9.86193 67.25 10 67.25C10.1381 67.25 10.25 67.1381 10.25 67L9.75 67ZM10.25 63C10.25 62.8619 10.1381 62.75 10 62.75C9.86193 62.75 9.75 62.8619 9.75 63L10.25 63ZM9.75 59C9.75 59.1381 9.86193 59.25 10 59.25C10.1381 59.25 10.25 59.1381 10.25 59L9.75 59ZM10.25 55C10.25 54.8619 10.1381 54.75 10 54.75C9.86193 54.75 9.75 54.8619 9.75 55L10.25 55ZM9.75 51C9.75 51.1381 9.86193 51.25 10 51.25C10.1381 51.25 10.25 51.1381 10.25 51L9.75 51ZM10.25 47C10.25 46.8619 10.1381 46.75 10 46.75C9.86193 46.75 9.75 46.8619 9.75 47L10.25 47ZM9.75 43C9.75 43.1381 9.86193 43.25 10 43.25C10.1381 43.25 10.25 43.1381 10.25 43L9.75 43ZM10.25 39C10.25 38.8619 10.1381 38.75 10 38.75C9.86193 38.75 9.75 38.8619 9.75 39L10.25 39ZM9.75 35C9.75 35.1381 9.86193 35.25 10 35.25C10.1381 35.25 10.25 35.1381 10.25 35L9.75 35ZM10.25 31C10.25 30.8619 10.1381 30.75 10 30.75C9.86193 30.75 9.75 30.8619 9.75 31L10.25 31ZM9.75 27C9.75 27.1381 9.86193 27.25 10 27.25C10.1381 27.25 10.25 27.1381 10.25 27L9.75 27ZM10.25 23C10.25 22.8619 10.1381 22.75 10 22.75C9.86193 22.75 9.75 22.8619 9.75 23L10.25 23ZM9.75 19C9.75 19.1381 9.86193 19.25 10 19.25C10.1381 19.25 10.25 19.1381 10.25 19L9.75 19ZM10.25 73L10.25 71L9.75 71L9.75 73L10.25 73ZM10.25 67L10.25 63L9.75 63L9.75 67L10.25 67ZM10.25 59L10.25 55L9.75 55L9.75 59L10.25 59ZM10.25 51L10.25 47L9.75 47L9.75 51L10.25 51ZM10.25 43L10.25 39L9.75 39L9.75 43L10.25 43ZM10.25 35L10.25 31L9.75 31L9.75 35L10.25 35ZM10.25 27L10.25 23L9.75 23L9.75 27L10.25 27ZM10.25 19L10.25 17L9.75 17L9.75 19L10.25 19Z" fill="black" fill-opacity="0.2"/>
<path d="M9.41699 51.9263C8.67432 51.9199 8.13477 50.9106 8.13477 49.6982L8.13477 47.1401C8.13477 46.7847 8.07764 46.6514 7.83643 46.4419L3.18359 42.1763C3.03125 42.043 2.95508 41.8779 2.95508 41.6875L2.95508 40.9512C2.95508 40.7861 3.10107 40.6909 3.27881 40.7734L8.13477 42.9697L8.50293 39.7451L6.39551 38.5962C6.23682 38.5137 6.16699 38.374 6.16699 38.1646L6.16699 37.8916C6.16699 37.7266 6.2749 37.6187 6.43994 37.6187L12.394 37.6187C12.5591 37.6187 12.6606 37.7266 12.6606 37.8916L12.6606 38.1646C12.6606 38.374 12.5908 38.5137 12.4385 38.5962L10.3311 39.7451L10.6992 42.9697L15.5552 40.7734C15.7266 40.6909 15.8789 40.7861 15.8789 40.9512L15.8789 41.6875C15.8789 41.8779 15.7964 42.043 15.6504 42.1763L10.9912 46.4419C10.7563 46.6514 10.6992 46.7847 10.6992 47.1401L10.6992 49.6982C10.6992 50.9106 10.1533 51.9199 9.41699 51.9263Z" fill="#CCCCCC"/>
</svg>
