<svg width="957" height="235" viewBox="0 0 957 235" fill="none" xmlns="http://www.w3.org/2000/svg">
<path opacity="0.2" d="M665.009 199.363C665.335 194.916 665.509 190.414 665.509 185.722C665.509 84.7797 581.569 3.09888 478.011 3.09888C374.454 3.09888 290.492 84.944 290.492 185.722C290.492 190.287 290.666 194.834 291.013 199.363H665.009Z" fill="#A21441"/>
<path d="M770.434 235H638.304H187.992L274.946 102.78L319.637 131.187L413.877 59.9122L522.204 109.495L607.7 1.54956L770.434 235Z" fill="#D4D4D4"/>
<path d="M596.289 147.385L601.784 150.299" stroke="#FEFEFE" stroke-miterlimit="10" stroke-linecap="round" stroke-linejoin="round"/>
<path d="M528.797 111.604L588.572 143.294" stroke="#FEFEFE" stroke-miterlimit="10" stroke-linecap="round" stroke-linejoin="round"/>
<path d="M310.844 141.152L269.281 172.812" stroke="#FEFEFE" stroke-miterlimit="10" stroke-linecap="round" stroke-linejoin="round"/>
<path d="M625.337 73.3407V40.0161L631.032 41.641L631.505 34.5631L607.92 0L578.07 38.6516L594.583 28.6359L598 40.0161L607.112 35.1384L625.337 73.3407Z" fill="#FEFEFE"/>
<path d="M442.989 86.5141L446.387 74.7207L413.783 59.9121L388.617 78.9146L407.395 73.8468L419.26 86.5141L420.172 77.0139L442.989 86.5141Z" fill="#FEFEFE"/>
<path d="M269.37 54.767C264.996 52.2311 263.008 54.3445 261.418 52.2311C259.828 50.1176 265.791 44.6222 253.863 39.1268C253.863 39.1268 253.068 27.2911 236.767 26.8676C220.466 26.4451 224.839 38.7044 220.466 41.6628C216.093 44.6222 214.9 39.9718 210.526 42.9313C206.153 45.8907 208.141 51.8086 204.563 52.6535C200.985 53.4985 196.214 48.8491 191.841 51.8075C187.467 54.767 187.467 57.3029 185.479 57.3029C183.491 57.3029 179.515 55.612 177.13 57.3029C174.744 58.9939 171.961 61.1074 171.961 61.1074H272.55C272.55 61.1074 273.744 57.304 269.37 54.767Z" fill="#FEFEFE"/>
<path d="M237.341 199.706C231.219 197.189 228.437 199.287 226.21 197.189C223.984 195.091 232.331 189.635 215.636 184.18C215.636 184.18 214.524 172.431 191.707 172.011C168.892 171.591 175.012 183.761 168.892 186.698C162.771 189.635 161.101 185.019 154.979 187.957C148.857 190.895 151.641 196.769 146.632 197.608C141.624 198.447 134.946 193.831 128.825 196.768C122.703 199.706 122.703 202.223 119.921 202.223C117.139 202.223 111.573 200.545 108.234 202.223C104.896 203.902 101 206 101 206H241.792C241.792 206 243.463 202.224 237.341 199.706Z" fill="#FEFEFE"/>
<path d="M28.8679 131.877C32.3266 130.501 33.8986 131.647 35.1558 130.501C36.4139 129.353 31.6971 126.37 41.1308 123.387C41.1308 123.387 41.7594 116.961 54.6508 116.731C67.5432 116.501 64.0845 123.156 67.5432 124.763C71.001 126.369 71.9453 123.844 75.403 125.452C78.8617 127.057 77.2907 130.271 80.1199 130.729C82.949 131.189 86.7225 128.664 90.1812 130.271C93.6389 131.876 93.6389 133.254 95.2119 133.254C96.7829 133.254 99.9287 132.335 101.814 133.254C103.7 134.172 105.902 135.319 105.902 135.319H26.3516C26.3516 135.319 25.4092 133.254 28.8679 131.877Z" fill="#FEFEFE"/>
<path d="M951.941 71.6169C946.335 69.0169 943.789 71.1841 941.749 69.0169C939.709 66.8487 947.355 61.2139 932.053 55.5801C932.053 55.5801 931.033 43.4427 910.125 43.0109C889.218 42.5781 894.824 55.1472 889.218 58.1811C883.612 61.2149 882.077 56.4467 876.471 59.4816C870.856 62.5164 873.411 68.5841 868.815 69.4507C864.23 70.3174 858.109 65.5492 852.503 68.5841C846.888 71.619 846.888 74.2189 844.342 74.2189C841.787 74.2189 836.686 72.4856 833.626 74.2189C830.575 75.9522 827 78.1204 827 78.1204H956.031C956.021 78.1173 957.556 74.2179 951.941 71.6169Z" fill="#FEFEFE"/>
<path d="M509.719 161.508L514.642 163.963" stroke="white" stroke-miterlimit="10" stroke-linecap="round" stroke-linejoin="round"/>
<path d="M547.37 159.537H439.344V233.976H547.37V159.537Z" fill="white" stroke="black" stroke-miterlimit="10" stroke-linecap="round" stroke-linejoin="round"/>
<path d="M505.096 197.831H490.023V233.976H505.096V197.831Z" fill="white" stroke="#263238" stroke-miterlimit="10" stroke-linecap="round" stroke-linejoin="round"/>
<path d="M503.485 200.413H491.641V233.976H503.485V200.413Z" fill="#31020E"/>
<path d="M514.219 192.943H511.016V233.977H514.219V192.943Z" fill="white" stroke="#263238" stroke-miterlimit="10" stroke-linecap="round" stroke-linejoin="round"/>
<path d="M514.774 219.57H510.453V233.976H514.774V219.57Z" fill="white" stroke="#263238" stroke-miterlimit="10" stroke-linecap="round" stroke-linejoin="round"/>
<path d="M550.682 160.501H450.302C450.119 160.501 450.066 160.248 450.235 160.175L464.251 154.106L478.265 148.037C478.775 147.818 479.323 147.703 479.878 147.703H518.56C519.072 147.703 519.581 147.8 520.057 147.989L550.745 160.173C550.918 160.242 550.869 160.501 550.682 160.501Z" fill="#31020E"/>
<path d="M517.901 196.11H460.242L464.552 183.632H510.263L517.901 196.11Z" fill="#31020E"/>
<path d="M484.929 159.537H435.547V233.976H484.929V159.537Z" fill="white" stroke="#263238" stroke-miterlimit="10" stroke-linecap="round" stroke-linejoin="round"/>
<path d="M459.517 147.144L432.562 159.438C432.394 159.515 432.449 159.767 432.632 159.767H487.851C488.035 159.767 488.089 159.515 487.922 159.438L460.967 147.144C460.506 146.934 459.977 146.934 459.517 147.144Z" fill="#31020E"/>
<path d="M497.564 207.19C498.277 207.19 498.855 206.612 498.855 205.899C498.855 205.186 498.277 204.608 497.564 204.608C496.851 204.608 496.273 205.186 496.273 205.899C496.273 206.612 496.851 207.19 497.564 207.19Z" fill="white"/>
<path d="M544.147 201.059H520.266V221.067H544.147V201.059Z" fill="white" stroke="#31020E" stroke-miterlimit="10" stroke-linecap="round" stroke-linejoin="round"/>
<path d="M535.106 202.878H529.297V207.19H535.106V202.878Z" fill="#31020E" stroke="#31020E" stroke-miterlimit="10" stroke-linecap="round" stroke-linejoin="round"/>
<path d="M535.106 209.126H529.297V219.248H535.106V209.126Z" fill="#31020E" stroke="#31020E" stroke-miterlimit="10" stroke-linecap="round" stroke-linejoin="round"/>
<path d="M527.689 202.878H522.438V207.19H527.689V202.878Z" fill="#31020E" stroke="#31020E" stroke-miterlimit="10" stroke-linecap="round" stroke-linejoin="round"/>
<path d="M541.978 202.878H536.727V207.19H541.978V202.878Z" fill="#31020E" stroke="#31020E" stroke-miterlimit="10" stroke-linecap="round" stroke-linejoin="round"/>
<path d="M541.978 209.126H536.727V219.248H541.978V209.126Z" fill="#31020E" stroke="#31020E" stroke-miterlimit="10" stroke-linecap="round" stroke-linejoin="round"/>
<path d="M527.689 209.126H522.438V219.248H527.689V209.126Z" fill="#31020E" stroke="#31020E" stroke-miterlimit="10" stroke-linecap="round" stroke-linejoin="round"/>
<path d="M475.405 201.059H445.07V221.067H475.405V201.059Z" fill="white" stroke="#31020E" stroke-miterlimit="10" stroke-linecap="round" stroke-linejoin="round"/>
<path d="M459.918 202.878H454.109V207.19H459.918V202.878Z" fill="#31020E" stroke="#31020E" stroke-miterlimit="10" stroke-linecap="round" stroke-linejoin="round"/>
<path d="M459.918 209.126H454.109V219.248H459.918V209.126Z" fill="#31020E" stroke="#31020E" stroke-miterlimit="10" stroke-linecap="round" stroke-linejoin="round"/>
<path d="M452.493 202.878H447.242V207.19H452.493V202.878Z" fill="#31020E" stroke="#31020E" stroke-miterlimit="10" stroke-linecap="round" stroke-linejoin="round"/>
<path d="M466.782 202.878H461.531V207.19H466.782V202.878Z" fill="#31020E" stroke="#31020E" stroke-miterlimit="10" stroke-linecap="round" stroke-linejoin="round"/>
<path d="M466.782 209.126H461.531V219.248H466.782V209.126Z" fill="#31020E" stroke="#31020E" stroke-miterlimit="10" stroke-linecap="round" stroke-linejoin="round"/>
<path d="M473.556 202.878H468.305V207.19H473.556V202.878Z" fill="#31020E" stroke="#31020E" stroke-miterlimit="10" stroke-linecap="round" stroke-linejoin="round"/>
<path d="M473.556 209.126H468.305V219.248H473.556V209.126Z" fill="#31020E" stroke="#31020E" stroke-miterlimit="10" stroke-linecap="round" stroke-linejoin="round"/>
<path d="M452.493 209.126H447.242V219.248H452.493V209.126Z" fill="#31020E" stroke="#31020E" stroke-miterlimit="10" stroke-linecap="round" stroke-linejoin="round"/>
<path d="M475.405 162.656H445.07V182.664H475.405V162.656Z" fill="white" stroke="#263238" stroke-miterlimit="10" stroke-linecap="round" stroke-linejoin="round"/>
<path d="M459.918 164.474H454.109V168.787H459.918V164.474Z" fill="#31020E" stroke="#31020E" stroke-miterlimit="10" stroke-linecap="round" stroke-linejoin="round"/>
<path d="M459.918 170.724H454.109V180.845H459.918V170.724Z" fill="#31020E" stroke="#31020E" stroke-miterlimit="10" stroke-linecap="round" stroke-linejoin="round"/>
<path d="M452.493 164.474H447.242V168.787H452.493V164.474Z" fill="#31020E" stroke="#31020E" stroke-miterlimit="10" stroke-linecap="round" stroke-linejoin="round"/>
<path d="M466.782 164.474H461.531V168.787H466.782V164.474Z" fill="#31020E" stroke="#31020E" stroke-miterlimit="10" stroke-linecap="round" stroke-linejoin="round"/>
<path d="M466.782 170.724H461.531V180.845H466.782V170.724Z" fill="#31020E" stroke="#31020E" stroke-miterlimit="10" stroke-linecap="round" stroke-linejoin="round"/>
<path d="M473.556 164.474H468.305V168.787H473.556V164.474Z" fill="#31020E" stroke="#31020E" stroke-miterlimit="10" stroke-linecap="round" stroke-linejoin="round"/>
<path d="M473.556 170.724H468.305V180.845H473.556V170.724Z" fill="#31020E" stroke="#31020E" stroke-miterlimit="10" stroke-linecap="round" stroke-linejoin="round"/>
<path d="M452.493 170.724H447.242V180.845H452.493V170.724Z" fill="#31020E" stroke="#31020E" stroke-miterlimit="10" stroke-linecap="round" stroke-linejoin="round"/>
<path d="M544.147 162.656H520.266V182.664H544.147V162.656Z" fill="white" stroke="#263238" stroke-miterlimit="10" stroke-linecap="round" stroke-linejoin="round"/>
<path d="M535.106 164.474H529.297V168.787H535.106V164.474Z" fill="#31020E" stroke="#31020E" stroke-miterlimit="10" stroke-linecap="round" stroke-linejoin="round"/>
<path d="M535.106 170.724H529.297V180.845H535.106V170.724Z" fill="#31020E" stroke="#31020E" stroke-miterlimit="10" stroke-linecap="round" stroke-linejoin="round"/>
<path d="M527.689 164.474H522.438V168.787H527.689V164.474Z" fill="#31020E" stroke="#31020E" stroke-miterlimit="10" stroke-linecap="round" stroke-linejoin="round"/>
<path d="M541.978 164.474H536.727V168.787H541.978V164.474Z" fill="#31020E" stroke="#31020E" stroke-miterlimit="10" stroke-linecap="round" stroke-linejoin="round"/>
<path d="M541.978 170.724H536.727V180.845H541.978V170.724Z" fill="#31020E" stroke="#31020E" stroke-miterlimit="10" stroke-linecap="round" stroke-linejoin="round"/>
<path d="M527.689 170.724H522.438V180.845H527.689V170.724Z" fill="#31020E" stroke="#31020E" stroke-miterlimit="10" stroke-linecap="round" stroke-linejoin="round"/>
<path d="M506.391 162.656H489.609V182.664H506.391V162.656Z" fill="white" stroke="#31020E" stroke-miterlimit="10" stroke-linecap="round" stroke-linejoin="round"/>
<path d="M504.45 164.474H498.641V168.787H504.45V164.474Z" fill="#31020E" stroke="#31020E" stroke-miterlimit="10" stroke-linecap="round" stroke-linejoin="round"/>
<path d="M504.45 170.724H498.641V180.845H504.45V170.724Z" fill="#31020E" stroke="#31020E" stroke-miterlimit="10" stroke-linecap="round" stroke-linejoin="round"/>
<path d="M497.024 164.474H491.773V168.787H497.024V164.474Z" fill="#31020E" stroke="#31020E" stroke-miterlimit="10" stroke-linecap="round" stroke-linejoin="round"/>
<path d="M497.024 170.724H491.773V180.845H497.024V170.724Z" fill="#31020E" stroke="#31020E" stroke-miterlimit="10" stroke-linecap="round" stroke-linejoin="round"/>
<path d="M396.791 147.169H278.742V234.222H396.791V147.169Z" fill="white" stroke="#31020E" stroke-miterlimit="10" stroke-linecap="round" stroke-linejoin="round"/>
<path d="M406.735 149.622H268.797L279.108 153.377H396.423L406.735 149.622Z" fill="white" stroke="#31020E" stroke-miterlimit="10" stroke-linecap="round" stroke-linejoin="round"/>
<path d="M406.735 149.63H268.797L278.217 136.089C278.776 135.286 279.692 134.808 280.669 134.808H394.862C395.84 134.808 396.756 135.286 397.315 136.089L406.735 149.63Z" fill="#31020E" stroke="#31020E" stroke-miterlimit="10" stroke-linecap="round" stroke-linejoin="round"/>
<path d="M290.527 124.138H280.727V137.274H290.527V124.138Z" fill="white" stroke="#31020E" stroke-miterlimit="10" stroke-linecap="round" stroke-linejoin="round"/>
<path d="M290.528 124.138H287.953V137.274H290.528V124.138Z" fill="white" stroke="#31020E" stroke-miterlimit="10" stroke-linecap="round" stroke-linejoin="round"/>
<path d="M292.146 120H279.109V126.758H292.146V120Z" fill="white" stroke="#31020E" stroke-miterlimit="10" stroke-linecap="round" stroke-linejoin="round"/>
<path d="M292.149 120H287.641V126.758H292.149V120Z" fill="white" stroke="#31020E" stroke-miterlimit="10" stroke-linecap="round" stroke-linejoin="round"/>
<path d="M309.101 153.877H292.992V178.943H309.101V153.877Z" fill="white" stroke="#31020E" stroke-miterlimit="10" stroke-linecap="round" stroke-linejoin="round"/>
<path d="M307.357 155.439H294.734V177.7H307.357V155.439Z" fill="#31020E" stroke="white" stroke-miterlimit="10" stroke-linecap="round" stroke-linejoin="round"/>
<path d="M307.357 155.439H294.734V167.627H307.357V155.439Z" fill="#31020E" stroke="white" stroke-miterlimit="10" stroke-linecap="round" stroke-linejoin="round"/>
<path d="M303.877 155.439H298.219V167.627H303.877V155.439Z" fill="#31020E" stroke="white" stroke-miterlimit="10" stroke-linecap="round" stroke-linejoin="round"/>
<path d="M311.711 202.192H290.383V227.258H311.711V202.192Z" fill="white" stroke="#31020E" stroke-miterlimit="10" stroke-linecap="round" stroke-linejoin="round"/>
<path d="M309.408 203.753H292.695V226.015H309.408V203.753Z" fill="#31020E" stroke="white" stroke-miterlimit="10" stroke-linecap="round" stroke-linejoin="round"/>
<path d="M309.408 203.753H292.695V215.941H309.408V203.753Z" fill="#31020E" stroke="white" stroke-miterlimit="10" stroke-linecap="round" stroke-linejoin="round"/>
<path d="M304.796 203.753H297.305V215.941H304.796V203.753Z" fill="#31020E" stroke="white" stroke-miterlimit="10" stroke-linecap="round" stroke-linejoin="round"/>
<path d="M384.836 202.192H363.508V227.258H384.836V202.192Z" fill="white" stroke="#31020E" stroke-miterlimit="10" stroke-linecap="round" stroke-linejoin="round"/>
<path d="M382.525 203.753H365.812V226.015H382.525V203.753Z" fill="#31020E" stroke="white" stroke-miterlimit="10" stroke-linecap="round" stroke-linejoin="round"/>
<path d="M382.525 203.753H365.812V215.941H382.525V203.753Z" fill="#31020E" stroke="white" stroke-miterlimit="10" stroke-linecap="round" stroke-linejoin="round"/>
<path d="M377.921 203.753H370.43V215.941H377.921V203.753Z" fill="#31020E" stroke="white" stroke-miterlimit="10" stroke-linecap="round" stroke-linejoin="round"/>
<path d="M383.093 153.877H366.984V178.943H383.093V153.877Z" fill="white" stroke="#31020E" stroke-miterlimit="10" stroke-linecap="round" stroke-linejoin="round"/>
<path d="M381.357 155.439H368.734V177.7H381.357V155.439Z" fill="#31020E" stroke="white" stroke-miterlimit="10" stroke-linecap="round" stroke-linejoin="round"/>
<path d="M381.357 155.439H368.734V167.627H381.357V155.439Z" fill="#31020E" stroke="white" stroke-miterlimit="10" stroke-linecap="round" stroke-linejoin="round"/>
<path d="M377.869 155.439H372.211V167.627H377.869V155.439Z" fill="#31020E" stroke="white" stroke-miterlimit="10" stroke-linecap="round" stroke-linejoin="round"/>
<path d="M342.608 157.615H331.305V175.205H342.608V157.615Z" fill="white" stroke="#31020E" stroke-miterlimit="10" stroke-linecap="round" stroke-linejoin="round"/>
<path d="M341.389 158.711H332.531V173.962H341.389V158.711Z" fill="#31020E" stroke="white" stroke-miterlimit="10" stroke-linecap="round" stroke-linejoin="round"/>
<path d="M341.389 158.711H332.531V167.263H341.389V158.711Z" fill="#31020E" stroke="white" stroke-miterlimit="10" stroke-linecap="round" stroke-linejoin="round"/>
<path d="M338.939 158.711H334.969V167.263H338.939V158.711Z" fill="#31020E" stroke="white" stroke-miterlimit="10" stroke-linecap="round" stroke-linejoin="round"/>
<path d="M353.063 195.048H322.477V225.952H353.063V195.048Z" fill="white" stroke="#31020E" stroke-miterlimit="10" stroke-linecap="round" stroke-linejoin="round"/>
<path d="M349.576 199.401H325.953V225.952H349.576V199.401Z" fill="#31020E" stroke="#31020E" stroke-miterlimit="10" stroke-linecap="round" stroke-linejoin="round"/>
<path d="M333.478 199.401H330.312V225.952H333.478V199.401Z" fill="white" stroke="#31020E" stroke-miterlimit="10" stroke-linecap="round" stroke-linejoin="round"/>
<path d="M343.923 199.401H340.758V225.952H343.923V199.401Z" fill="white" stroke="#31020E" stroke-miterlimit="10" stroke-linecap="round" stroke-linejoin="round"/>
<path d="M327.384 193.446H323.707L337.771 181.265L351.835 193.446H348.276V195.477H358.87L338.278 177.641C337.987 177.389 337.555 177.389 337.264 177.641L316.672 195.477H327.384V193.446Z" fill="white" stroke="#31020E" stroke-miterlimit="10" stroke-linecap="round" stroke-linejoin="round"/>
<path d="M353.217 225.952H322.477V228.657H353.217V225.952Z" fill="white" stroke="#31020E" stroke-miterlimit="10" stroke-linecap="round" stroke-linejoin="round"/>
<path d="M353.217 228.582H322.477V231.287H353.217V228.582Z" fill="white" stroke="#31020E" stroke-miterlimit="10" stroke-linecap="round" stroke-linejoin="round"/>
<path d="M353.217 231.212H322.477V233.916H353.217V231.212Z" fill="white" stroke="#31020E" stroke-miterlimit="10" stroke-linecap="round" stroke-linejoin="round"/>
<path d="M325.957 199.401H322.883" stroke="#31020E" stroke-miterlimit="10" stroke-linecap="round" stroke-linejoin="round"/>
<path d="M352.941 199.401H349.867" stroke="#31020E" stroke-miterlimit="10" stroke-linecap="round" stroke-linejoin="round"/>
<path d="M414.425 216.136C414.425 216.136 424.567 217.138 429.707 223.426C429.707 223.426 435.137 216.143 444.892 216.292C447.723 212.881 449.425 208.499 449.427 203.72C449.431 192.833 440.608 184.003 429.72 184C418.833 183.997 410.003 192.819 410 203.706C409.998 208.425 411.657 212.758 414.421 216.152L414.425 216.136Z" fill="#A21441" fill-opacity="0.4"/>
<path opacity="0.3" d="M414.425 216.136C414.425 216.136 424.567 217.138 429.707 223.426C429.707 223.426 435.137 216.143 444.892 216.292C447.723 212.881 449.425 208.499 449.427 203.72C449.431 192.833 440.608 184.003 429.72 184C418.833 183.997 410.003 192.819 410 203.706C409.998 208.425 411.657 212.758 414.421 216.152L414.425 216.136Z" fill="white"/>
<path d="M429.342 183L429 233.842H430.711L429.342 183Z" fill="#31020E"/>
<path d="M429.711 224.54C429.711 224.54 433.135 218.378 439.297 216.495C439.297 216.495 432.792 218.035 429.539 223.341L429.711 224.54Z" fill="#31020E"/>
<path d="M429.711 207.079C429.711 207.079 433.135 200.916 439.297 199.033C439.297 199.033 432.792 200.573 429.539 205.881L429.711 207.079Z" fill="#31020E"/>
<path d="M429.711 215.809C429.711 215.809 433.135 209.647 439.297 207.764C439.297 207.764 432.792 209.304 429.539 214.611L429.711 215.809Z" fill="#31020E"/>
<path d="M429.203 211.53C429.203 211.53 425.9 205.368 419.953 203.485C419.953 203.485 426.23 205.025 429.369 210.331L429.203 211.53Z" fill="#31020E"/>
<path d="M429.203 220.09C429.203 220.09 425.9 213.927 419.953 212.044C419.953 212.044 426.23 213.584 429.369 218.891L429.203 220.09Z" fill="#31020E"/>
<path d="M545.723 218.218C545.723 218.218 553.917 219.029 558.07 224.109C558.07 224.109 562.458 218.224 570.34 218.345C572.626 215.588 574.003 212.049 574.004 208.187C574.006 199.391 566.878 192.257 558.082 192.254C549.285 192.25 542.152 199.379 542.148 208.176C542.148 211.989 543.486 215.489 545.72 218.232L545.723 218.218Z" fill="#31020E"/>
<path opacity="0.5" d="M545.723 218.218C545.723 218.218 553.917 219.029 558.07 224.109C558.07 224.109 562.458 218.224 570.34 218.345C572.626 215.588 574.003 212.049 574.004 208.187C574.006 199.391 566.878 192.257 558.082 192.254C549.285 192.25 542.152 199.379 542.148 208.176C542.148 211.989 543.486 215.489 545.72 218.232L545.723 218.218Z" fill="white"/>
<path d="M557.792 193.377L557.516 234.455H558.899L557.792 193.377Z" fill="#31020E"/>
<path d="M558.209 222.56C558.209 222.56 560.975 217.581 565.954 216.06C565.954 216.06 560.698 217.305 558.07 221.592L558.209 222.56Z" fill="#31020E"/>
<path d="M558.209 208.453C558.209 208.453 560.975 203.473 565.954 201.952C565.954 201.952 560.698 203.197 558.07 207.485L558.209 208.453Z" fill="#31020E"/>
<path d="M558.209 215.506C558.209 215.506 560.975 210.527 565.954 209.005C565.954 209.005 560.698 210.25 558.07 214.538L558.209 215.506Z" fill="#31020E"/>
<path d="M557.802 212.049C557.802 212.049 555.133 207.069 550.328 205.549C550.328 205.549 555.4 206.793 557.936 211.081L557.802 212.049Z" fill="#31020E"/>
<path d="M557.802 218.964C557.802 218.964 555.133 213.985 550.328 212.464C550.328 212.464 555.4 213.709 557.936 217.996L557.802 218.964Z" fill="#31020E"/>
<path d="M257.574 218.218C257.574 218.218 265.769 219.029 269.922 224.109C269.922 224.109 274.31 218.224 282.191 218.345C284.478 215.588 285.854 212.049 285.855 208.187C285.859 199.391 278.73 192.257 269.933 192.254C261.137 192.25 254.003 199.379 254 208.176C253.999 211.989 255.338 215.489 257.572 218.232L257.574 218.218Z" fill="#A21441" fill-opacity="0.4"/>
<path opacity="0.5" d="M257.574 218.218C257.574 218.218 265.769 219.029 269.922 224.109C269.922 224.109 274.31 218.224 282.191 218.345C284.478 215.588 285.854 212.049 285.855 208.187C285.859 199.391 278.73 192.257 269.933 192.254C261.137 192.25 254.003 199.379 254 208.176C253.999 211.989 255.338 215.489 257.572 218.232L257.574 218.218Z" fill="white"/>
<path d="M269.652 193.377L269.375 234.455H270.758L269.652 193.377Z" fill="#31020E"/>
<path d="M270.068 222.56C270.068 222.56 272.835 217.581 277.813 216.06C277.813 216.06 272.558 217.305 269.93 221.592L270.068 222.56Z" fill="#31020E"/>
<path d="M270.068 208.453C270.068 208.453 272.835 203.473 277.813 201.952C277.813 201.952 272.558 203.197 269.93 207.485L270.068 208.453Z" fill="#31020E"/>
<path d="M270.068 215.506C270.068 215.506 272.835 210.527 277.813 209.005C277.813 209.005 272.558 210.25 269.93 214.538L270.068 215.506Z" fill="#31020E"/>
<path d="M269.653 212.049C269.653 212.049 266.984 207.069 262.18 205.549C262.18 205.549 267.251 206.793 269.787 211.081L269.653 212.049Z" fill="#31020E"/>
<path d="M269.653 218.964C269.653 218.964 266.984 213.985 262.18 212.464C262.18 212.464 267.251 213.709 269.787 217.996L269.653 218.964Z" fill="#31020E"/>
<path d="M381.243 205.347C381.243 205.347 395.555 206.762 402.808 215.635C402.808 215.635 410.471 205.357 424.236 205.568C428.23 200.754 430.633 194.571 430.635 187.827C430.641 172.464 418.19 160.005 402.827 160C387.464 159.995 375.005 172.445 375 187.807C374.997 194.467 377.337 200.581 381.238 205.37L381.243 205.347Z" fill="#31020E" fill-opacity="0.3"/>
<path opacity="0.3" d="M382.243 201.347C382.243 201.347 396.555 202.762 403.808 211.635C403.808 211.635 411.471 201.357 425.236 201.568C429.23 196.754 431.633 190.571 431.635 183.827C431.641 168.464 419.19 156.005 403.827 156C388.464 155.995 376.005 168.445 376 183.807C375.997 190.467 378.337 196.581 382.238 201.37L382.243 201.347Z" fill="white"/>
<path d="M402.483 163L402 234.744H404.416L402.483 163Z" fill="#31020E"/>
<path d="M403.062 217.327C403.062 217.327 407.894 208.63 416.589 205.973C416.589 205.973 407.411 208.147 402.82 215.635L403.062 217.327Z" fill="#31020E"/>
<path d="M403.062 192.687C403.062 192.687 407.894 183.991 416.589 181.334C416.589 181.334 407.411 183.508 402.82 190.997L403.062 192.687Z" fill="#31020E"/>
<path d="M403.062 205.007C403.062 205.007 407.894 196.31 416.589 193.654C416.589 193.654 407.411 195.827 402.82 203.316L403.062 205.007Z" fill="#31020E"/>
<path d="M402.35 198.968C402.35 198.968 397.688 190.272 389.297 187.615C389.297 187.615 398.154 189.788 402.583 197.277L402.35 198.968Z" fill="#31020E"/>
<path d="M402.35 211.047C402.35 211.047 397.688 202.35 389.297 199.693C389.297 199.693 398.154 201.867 402.583 209.355L402.35 211.047Z" fill="#31020E"/>
<g filter="url(#filter0_d_1357_10110)">
<path d="M602.172 146.404C601.131 145.2 586.635 135.079 585.547 134.321L588.021 133.896C588.021 133.896 601.273 145.153 602.172 146.404Z" fill="#F4F4F4"/>
<path opacity="0.5" d="M602.172 146.404C601.131 145.2 586.635 135.079 585.547 134.321L588.021 133.896C588.021 133.896 601.273 145.153 602.172 146.404Z" fill="#FEFEFE"/>
<path d="M602.218 146.495C602.218 146.502 602.218 146.509 602.218 146.509C602.218 146.522 602.212 146.536 602.204 146.556C602.089 146.813 601.096 147.036 599.987 147.185C599.973 147.185 599.96 147.185 599.946 147.191C598.587 147.36 597.08 147.414 596.835 147.252C596.524 147.036 586.066 141.803 579.663 138.604C579.575 138.564 579.494 138.524 579.412 138.483C579.385 138.469 579.365 138.456 579.358 138.456H579.352V138.449C579.04 138.294 578.736 138.145 578.446 137.996C577.357 137.455 576.451 137.002 575.809 136.685C575.153 136.36 574.781 136.171 574.781 136.171L585.545 134.325C586.16 134.751 591.054 138.166 595.382 141.282C595.531 141.384 595.679 141.492 595.828 141.6C596.234 141.89 596.626 142.174 597.018 142.452C599.648 144.365 601.791 145.968 602.17 146.407C602.184 146.427 602.197 146.448 602.204 146.461C602.211 146.474 602.218 146.488 602.218 146.495Z" fill="#F4F4F4"/>
<g opacity="0.1">
<path d="M602.22 146.495C602.22 146.502 602.22 146.509 602.22 146.509C602.22 146.522 602.213 146.536 602.206 146.556C602.091 146.813 601.098 147.036 599.989 147.185C599.975 147.185 599.961 147.185 599.948 147.191C598.589 147.36 597.081 147.415 596.837 147.252C596.52 147.036 585.79 141.667 579.414 138.483C580.462 138.99 594.22 145.609 597.02 142.451C599.649 144.365 601.793 145.967 602.172 146.406C602.185 146.426 602.199 146.447 602.205 146.461C602.213 146.474 602.22 146.488 602.22 146.495Z" fill="#31020E"/>
</g>
<path d="M743.996 158.306V158.312C743.996 159.753 736.066 160.219 734.984 159.908C733.801 159.57 647.477 125.596 647.477 125.596L679.239 113.021C679.483 113.19 679.787 113.407 680.153 113.657C680.281 113.745 680.416 113.839 680.558 113.934C686.413 117.99 703.897 130.112 719.17 140.781C719.474 140.991 719.772 141.201 720.069 141.41C720.475 141.687 720.874 141.971 721.273 142.249C731.86 149.646 741.042 156.102 743.996 158.306Z" fill="#F4F4F4"/>
<path d="M743.999 158.306C736.264 152.532 685.841 117.591 679.242 113.021L683.265 111.426C683.265 111.426 742.005 156.102 743.776 157.88C743.924 158.036 743.999 158.171 743.999 158.306Z" fill="#F4F4F4"/>
<path opacity="0.5" d="M743.999 158.306C736.264 152.532 685.841 117.591 679.242 113.021L683.265 111.426C683.265 111.426 742.005 156.102 743.776 157.88C743.924 158.036 743.999 158.171 743.999 158.306Z" fill="#FEFEFE"/>
<g opacity="0.5">
<path opacity="0.1" d="M743.996 158.306V158.312C743.996 159.753 736.066 160.219 734.984 159.908C733.801 159.57 647.477 125.596 647.477 125.596L679.239 113.021C679.239 113.021 671.383 122.007 690.023 135.826C702.727 145.244 716.249 147.198 721.272 142.249C731.86 149.646 741.042 156.102 743.996 158.306Z" fill="#31020E"/>
</g>
<path d="M672.008 136.742C669.554 137.933 666.886 138.869 666.693 136.404C666.614 135.393 667.397 134.312 671.344 132.412C672.27 131.966 674.53 130.976 675.196 133.027C675.836 135.001 672.932 136.292 672.008 136.742Z" fill="#F4F4F4"/>
<path opacity="0.1" d="M672.008 136.742C669.554 137.933 666.886 138.869 666.693 136.404C666.614 135.393 667.397 134.312 671.344 132.412C672.27 131.966 674.53 130.976 675.196 133.027C675.836 135.001 672.932 136.292 672.008 136.742Z" fill="#31020E"/>
<path d="M692.039 144.94C689.586 146.131 686.917 147.067 686.724 144.602C686.645 143.59 687.428 142.51 691.376 140.61C692.302 140.164 694.562 139.174 695.228 141.225C695.868 143.199 692.963 144.491 692.039 144.94Z" fill="#F4F4F4"/>
<path opacity="0.1" d="M692.039 144.94C689.586 146.131 686.917 147.067 686.724 144.602C686.645 143.59 687.428 142.51 691.376 140.61C692.302 140.164 694.562 139.174 695.228 141.225C695.868 143.199 692.963 144.491 692.039 144.94Z" fill="#31020E"/>
<path d="M712.063 153.137C709.609 154.328 706.94 155.264 706.747 152.799C706.669 151.787 707.452 150.707 711.399 148.807C712.325 148.361 714.586 147.371 715.252 149.422C715.892 151.397 712.987 152.688 712.063 153.137Z" fill="#F4F4F4"/>
<path opacity="0.1" d="M712.063 153.137C709.609 154.328 706.94 155.264 706.747 152.799C706.669 151.787 707.452 150.707 711.399 148.807C712.325 148.361 714.586 147.371 715.252 149.422C715.892 151.397 712.987 152.688 712.063 153.137Z" fill="#31020E"/>
<path d="M705.519 131.6C703.105 135.893 697.629 137.441 694.16 138.827C684.952 142.505 678.272 144.574 674.98 136.211C674.554 135.129 674.317 134.122 674.243 133.182C673.702 126.874 680.233 123.723 683.553 121.979C683.559 121.973 683.559 121.973 683.559 121.973C687.562 119.863 690.395 118.498 692.504 117.612C695.945 116.158 697.48 115.976 699.062 115.922C700.921 115.861 705.126 116.328 706.506 124.042C707.074 127.253 706.601 129.694 705.519 131.6Z" fill="#F4F4F4"/>
<path d="M705.627 125.603C705.627 130.302 702.689 134.11 699.064 134.11C695.439 134.11 692.5 130.301 692.5 125.603C692.5 120.904 695.439 117.095 699.064 117.095C702.689 117.095 705.627 120.904 705.627 125.603Z" fill="#31020E"/>
<path d="M704.865 125.603C704.865 129.754 702.269 133.12 699.065 133.12C695.862 133.12 693.266 129.754 693.266 125.603C693.266 121.452 695.862 118.086 699.065 118.086C702.269 118.086 704.865 121.452 704.865 125.603Z" fill="#31020E"/>
<path d="M568.102 123.352L566.581 123.907L563.159 125.151C560.09 123.819 555.872 122.001 551.314 120.04C539.841 115.111 526.264 109.324 523.648 108.438C523.743 108.465 523.858 108.499 523.98 108.54C524.068 108.567 524.169 108.6 524.277 108.634C524.399 108.675 524.534 108.715 524.676 108.762C524.75 108.789 524.825 108.809 524.906 108.837C525.176 108.925 525.48 109.019 525.812 109.127C526.102 109.221 526.406 109.323 526.737 109.431C527.508 109.681 528.38 109.972 529.341 110.29C529.631 110.391 529.929 110.486 530.233 110.587C530.503 110.676 530.78 110.77 531.064 110.864C531.22 110.919 531.368 110.966 531.524 111.013C531.983 111.168 532.45 111.325 532.937 111.486C533.247 111.594 533.559 111.696 533.876 111.804C537.547 113.035 541.814 114.468 546.06 115.901L547.216 116.287C548.744 116.807 550.272 117.322 551.753 117.822C554.565 118.775 557.242 119.674 559.582 120.465C559.961 120.594 560.326 120.722 560.684 120.844C561.949 121.269 563.098 121.655 564.092 121.993L564.105 122C564.409 122.101 564.7 122.202 564.978 122.298C565.119 122.345 565.255 122.392 565.383 122.433C565.451 122.46 565.519 122.48 565.586 122.5C567.175 123.041 568.102 123.352 568.102 123.352Z" fill="#F4F4F4"/>
<path opacity="0.5" d="M568.102 123.352L566.581 123.907L563.159 125.151C560.09 123.819 555.872 122.001 551.314 120.04C539.841 115.111 526.264 109.324 523.648 108.438C523.743 108.465 523.858 108.499 523.98 108.54C524.068 108.567 524.169 108.6 524.277 108.634C524.399 108.675 524.534 108.715 524.676 108.762C524.75 108.789 524.825 108.809 524.906 108.837C525.176 108.925 525.48 109.019 525.812 109.127C526.102 109.221 526.406 109.323 526.737 109.431C527.508 109.681 528.38 109.972 529.341 110.29C529.631 110.391 529.929 110.486 530.233 110.587C530.503 110.676 530.78 110.77 531.064 110.864C531.22 110.919 531.368 110.966 531.524 111.013C531.983 111.168 532.45 111.325 532.937 111.486C533.247 111.594 533.559 111.696 533.876 111.804C537.547 113.035 541.814 114.468 546.06 115.901L547.216 116.287C548.744 116.807 550.272 117.322 551.753 117.822C554.565 118.775 557.242 119.674 559.582 120.465C559.961 120.594 560.326 120.722 560.684 120.844C561.949 121.269 563.098 121.655 564.092 121.993L564.105 122C564.409 122.101 564.7 122.202 564.978 122.298C565.119 122.345 565.255 122.392 565.383 122.433C565.451 122.46 565.519 122.48 565.586 122.5C567.175 123.041 568.102 123.352 568.102 123.352Z" fill="#FEFEFE"/>
<path d="M563.159 125.151L553.984 128.49C553.984 128.49 533.499 118.984 521.282 113.028C521.194 112.987 521.147 112.967 521.147 112.967C521.092 112.939 521.039 112.912 520.984 112.886C519.706 112.264 518.524 111.682 517.469 111.162C514.312 109.58 512.31 108.505 512.385 108.356C512.723 107.68 520.329 107.511 523.372 108.356C523.399 108.363 523.419 108.37 523.453 108.376C523.508 108.39 523.575 108.41 523.649 108.437C526.178 109.296 538.943 114.725 550.152 119.538C550.24 119.578 550.321 119.613 550.409 119.646C550.713 119.782 551.017 119.91 551.315 120.039C555.871 122 560.09 123.818 563.159 125.151Z" fill="#F4F4F4"/>
<g opacity="0.1">
<path d="M563.159 125.151L553.984 128.49C553.984 128.49 533.498 118.984 521.281 113.028C523.303 113.886 544.033 123.019 549.147 121.751C550.353 121.452 551.044 120.756 551.314 120.039C555.87 122 560.089 123.818 563.159 125.151Z" fill="#31020E"/>
</g>
<path d="M586.757 112.074L564.5 122.777C564.5 122.777 564.73 103.698 564.899 89.973C564.905 89.5001 564.912 89.0335 564.919 88.5734C564.926 88.1948 564.926 87.8227 564.932 87.4578C564.993 82.7587 565.047 78.9727 565.067 77.2553C565.149 71.732 565.744 70.6092 567.204 71.5087C568.671 72.4082 575.168 78.0604 577.122 80.582C578.725 82.6507 582.274 95.1787 584.586 103.793C584.606 103.867 584.626 103.934 584.641 104.009C584.776 104.509 584.911 104.996 585.033 105.462C586.06 109.337 586.757 112.074 586.757 112.074Z" fill="#F4F4F4"/>
<g opacity="0.1">
<path d="M586.757 112.074L564.5 122.777C564.5 122.777 564.73 103.698 564.899 89.9729C568.178 97.2816 574.648 107.267 585.033 105.462C586.06 109.337 586.757 112.074 586.757 112.074Z" fill="#31020E"/>
</g>
<path d="M548.947 134.449C546.656 128.721 556.384 123.518 567.427 118.56C578.47 113.602 687.321 65.5995 703.097 61.3173C718.872 57.0352 737.245 62.8995 740.352 71.9095C745.015 85.4314 725.382 96.7606 654.869 125.997C645.629 129.828 604.301 139.75 581.062 139.825C556.215 139.905 550.074 137.266 548.947 134.449Z" fill="#F4F4F4"/>
<path opacity="0.5" d="M548.947 134.449C546.656 128.721 556.384 123.518 567.427 118.56C578.47 113.602 687.321 65.5995 703.097 61.3173C718.872 57.0352 737.245 62.8995 740.352 71.9095C745.015 85.4314 725.382 96.7606 654.869 125.997C645.629 129.828 604.301 139.75 581.062 139.825C556.215 139.905 550.074 137.266 548.947 134.449Z" fill="#FEFEFE"/>
<path opacity="0.1" d="M654.869 125.998C645.627 129.831 604.297 139.749 581.06 139.824C556.214 139.906 550.075 137.269 548.946 134.449C547.75 131.454 549.838 128.601 553.686 125.849C553.659 126.41 553.753 126.971 553.984 127.539C555.011 130.102 560.583 132.495 583.123 132.421C604.211 132.354 634.541 115.276 642.924 111.801C706.903 85.2713 731.892 83.0658 727.659 70.7947C725.82 65.4538 718.066 61.3293 708.911 60.2001C723.095 58.5028 737.625 63.9861 740.349 71.9102C745.013 85.4321 725.38 96.763 654.869 125.998Z" fill="#31020E"/>
<path d="M583.453 115.558L585.955 114.476V118.154L583.453 119.236V115.558Z" fill="#31020E"/>
<path d="M588.016 113.584L590.686 112.427V116.105L588.016 117.262V113.584Z" fill="#31020E"/>
<path d="M592.75 111.535L595.42 110.379V114.057L592.75 115.213V111.535Z" fill="#31020E"/>
<path d="M597.484 109.486L600.155 108.331V112.008L597.484 113.164V109.486Z" fill="#31020E"/>
<path d="M602.219 107.438L604.889 106.282V109.96L602.219 111.116V107.438Z" fill="#31020E"/>
<path d="M606.945 105.389L609.616 104.233V107.911L606.945 109.068V105.389Z" fill="#31020E"/>
<path d="M611.68 103.34L614.35 102.185V105.863L611.68 107.019V103.34Z" fill="#31020E"/>
<path d="M616.414 101.292L619.085 100.136V103.814L616.414 104.97V101.292Z" fill="#31020E"/>
<path d="M621.148 99.2438L623.819 98.0874V101.765L621.148 102.922V99.2438Z" fill="#31020E"/>
<path d="M625.875 97.1952L628.545 96.0388V99.7168L625.875 100.873V97.1952Z" fill="#31020E"/>
<path d="M630.609 95.1464L633.28 93.99V97.668L630.609 98.8243V95.1464Z" fill="#31020E"/>
<path d="M635.344 93.0977L638.014 91.9421V95.6193L635.344 96.7757V93.0977Z" fill="#31020E"/>
<path d="M640.078 91.0491L642.749 89.8936V93.5707L640.078 94.7271V91.0491Z" fill="#31020E"/>
<path d="M644.812 89.0005L647.483 87.845V91.523L644.812 92.6785V89.0005Z" fill="#31020E"/>
<path d="M649.539 86.952L652.21 85.7964V89.4744L649.539 90.6299V86.952Z" fill="#31020E"/>
<path d="M654.273 84.9039L656.945 83.7476V87.4255L654.273 88.5819V84.9039Z" fill="#31020E"/>
<path d="M659.008 82.8553L661.678 81.699V85.3769L659.008 86.5333V82.8553Z" fill="#31020E"/>
<path d="M663.742 80.8067L666.413 79.6504V83.3283L663.742 84.4847V80.8067Z" fill="#31020E"/>
<path d="M668.469 78.7579L671.139 77.6016V81.2795L668.469 82.4359V78.7579Z" fill="#31020E"/>
<path d="M673.203 76.7094L675.874 75.553V79.231L673.203 80.3873V76.7094Z" fill="#31020E"/>
<path d="M677.938 74.6608L680.608 73.5044V77.1824L677.938 78.3387V74.6608Z" fill="#31020E"/>
<path d="M685.342 71.4558V75.1338L682.672 76.2902V72.6122L685.342 71.4558Z" fill="#31020E"/>
<path d="M690.077 69.408V73.0851L687.406 74.2415V70.5635L690.077 69.408Z" fill="#31020E"/>
<path d="M694.803 67.3591V71.0371L692.133 72.1927V68.5147L694.803 67.3591Z" fill="#31020E"/>
<path d="M699.538 65.3105V68.9885L696.867 70.1441V66.4661L699.538 65.3105Z" fill="#31020E"/>
<path d="M711.914 63.8061C713.375 62.6433 715.105 61.9471 716.876 61.4941V63.9413C715.281 63.8805 713.651 63.8397 711.914 63.8061Z" fill="#31020E"/>
<path d="M722.683 60.9123V64.2926C721.439 64.1774 720.196 64.1029 718.938 64.0421V61.0876C720.175 60.9123 721.433 60.8515 722.683 60.9123Z" fill="#31020E"/>
<path d="M734.586 65.6859C733.538 65.6587 732.578 65.4762 731.612 65.361C730.638 65.2665 729.718 65.0769 728.779 64.9889C727.42 64.7792 726.075 64.6303 724.742 64.5023V61.1284C726.372 61.3653 727.974 61.7702 729.475 62.42C730.428 62.7786 731.314 63.2923 732.186 63.8061C732.619 64.0494 733.025 64.3743 733.431 64.692C733.829 65.0097 734.221 65.3274 734.586 65.6859Z" fill="#31020E"/>
<path d="M649.542 95.654L618.174 110.748C618.174 110.748 568.315 84.0183 532.537 64.4864C532.496 64.4664 532.47 64.4528 532.455 64.4456L532.442 64.4392C513.343 54.0063 498.766 45.9069 499.003 45.5956C499.605 44.7842 509.212 44.8858 513.011 45.3996C513.464 45.454 513.836 45.5212 514.1 45.5956C515.709 46.035 572.122 66.9328 611.627 81.5839C633.079 89.5424 649.542 95.654 649.542 95.654Z" fill="#F4F4F4"/>
<g opacity="0.1">
<path d="M649.544 95.6541L618.177 110.748C618.177 110.748 568.318 84.0184 532.539 64.4866C535.338 65.8998 599.48 98.2237 607.856 93.3694C611.02 91.5368 611.845 86.8113 611.628 81.5848C633.082 89.5426 649.544 95.6541 649.544 95.6541Z" fill="#31020E"/>
</g>
<path d="M654.125 93.578L644.81 98.0602C620.977 88.0738 521.851 48.8813 513.549 45.5955C513.455 45.5547 513.367 45.5211 513.293 45.4939C513.211 45.4666 513.144 45.4394 513.09 45.4266C513.056 45.413 513.036 45.4066 513.016 45.3994C513.469 45.4538 513.841 45.5211 514.104 45.5955C516.585 46.2717 654.125 93.578 654.125 93.578Z" fill="#F4F4F4"/>
<path opacity="0.5" d="M654.125 93.578L644.81 98.0602C620.977 88.0738 521.851 48.8813 513.549 45.5955C513.455 45.5547 513.367 45.5211 513.293 45.4939C513.211 45.4666 513.144 45.4394 513.09 45.4266C513.056 45.413 513.036 45.4066 513.016 45.3994C513.469 45.4538 513.841 45.5211 514.104 45.5955C516.585 46.2717 654.125 93.578 654.125 93.578Z" fill="#FEFEFE"/>
<path d="M586.938 94.3047C583.871 95.794 580.536 96.9639 580.296 93.8829C580.197 92.6193 581.176 91.2685 586.109 88.8942C587.267 88.3372 590.092 87.0992 590.924 89.6624C591.724 92.1296 588.093 93.7437 586.938 94.3047Z" fill="#F4F4F4"/>
<path opacity="0.1" d="M586.938 94.3047C583.871 95.794 580.536 96.9639 580.296 93.8829C580.197 92.6193 581.176 91.2685 586.109 88.8942C587.267 88.3372 590.092 87.0992 590.924 89.6624C591.724 92.1296 588.093 93.7437 586.938 94.3047Z" fill="#31020E"/>
<path d="M560.399 80.8956C557.332 82.3857 553.997 83.5548 553.756 80.473C553.658 79.2094 554.637 77.8586 559.57 75.4842C560.728 74.9273 563.553 73.6893 564.385 76.2525C565.185 78.7205 561.555 80.3346 560.399 80.8956Z" fill="#F4F4F4"/>
<path opacity="0.1" d="M560.399 80.8956C557.332 82.3857 553.997 83.5548 553.756 80.473C553.658 79.2094 554.637 77.8586 559.57 75.4842C560.728 74.9273 563.553 73.6893 564.385 76.2525C565.185 78.7205 561.555 80.3346 560.399 80.8956Z" fill="#31020E"/>
<path d="M533.765 67.3257C530.908 68.7134 527.8 69.8025 527.576 66.932C527.484 65.7548 528.397 64.4968 532.993 62.2849C534.07 61.7656 536.703 60.6132 537.478 63.0012C538.223 65.2995 534.84 66.8032 533.765 67.3257Z" fill="#F4F4F4"/>
<path opacity="0.1" d="M533.765 67.3257C530.908 68.7134 527.8 69.8025 527.576 66.932C527.484 65.7548 528.397 64.4968 532.993 62.2849C534.07 61.7656 536.703 60.6132 537.478 63.0012C538.223 65.2995 534.84 66.8032 533.765 67.3257Z" fill="#31020E"/>
<path d="M626.542 91.2685C624.128 95.5619 618.652 97.1104 615.184 98.4956C605.975 102.174 599.295 104.242 596.003 95.8788C595.577 94.7968 595.34 93.7901 595.266 92.8498C594.725 86.5414 601.256 83.3908 604.575 81.647C604.582 81.6398 604.582 81.6398 604.582 81.6398C608.585 79.5304 611.418 78.1643 613.526 77.2792C616.967 75.826 618.502 75.6427 620.084 75.5891C621.943 75.5283 626.149 75.9948 627.528 83.7093C628.097 86.9215 627.624 89.3623 626.542 91.2685Z" fill="#F4F4F4"/>
<path d="M620.087 93.779C623.712 93.779 626.651 89.97 626.651 85.2714C626.651 80.5729 623.712 76.7639 620.087 76.7639C616.462 76.7639 613.523 80.5729 613.523 85.2714C613.523 89.97 616.462 93.779 620.087 93.779Z" fill="#31020E"/>
<path d="M625.888 85.2714C625.888 89.4232 623.291 92.7882 620.089 92.7882C616.886 92.7882 614.289 89.4224 614.289 85.2714C614.289 81.1205 616.886 77.7546 620.089 77.7546C623.291 77.7546 625.888 81.1197 625.888 85.2714Z" fill="#31020E"/>
<path d="M526.738 109.431C526.414 109.323 526.103 109.222 525.812 109.127C526.103 109.222 526.407 109.323 526.738 109.431Z" fill="#F4F4F4"/>
</g>
<path d="M867.259 167.891C858.402 165.448 854.376 167.484 851.156 165.448C847.935 163.411 860.011 158.117 835.857 152.822C835.857 152.822 834.247 141.418 801.236 141.01C768.226 140.603 777.082 152.415 768.226 155.265C759.371 158.117 756.955 153.636 748.097 156.487C739.24 159.339 743.267 165.041 736.021 165.855C728.775 166.669 719.113 162.189 710.258 165.04C701.4 167.891 701.4 170.334 697.375 170.334C693.35 170.334 685.297 168.705 680.467 170.334C675.637 171.964 670 174 670 174H873.698C873.698 174 876.116 170.335 867.259 167.891Z" fill="#FEFEFE"/>
<path d="M695.055 23.1512C697.754 21.7753 698.982 22.9219 699.962 21.7753C700.945 20.6276 697.263 17.6444 704.626 14.6612C704.626 14.6612 705.117 8.23516 715.179 8.00584C725.24 7.77548 722.541 14.4309 725.24 16.0371C727.94 17.6444 728.676 15.1188 731.375 16.7261C734.074 18.3314 732.848 21.5449 735.056 22.0036C737.265 22.4632 740.21 19.9387 742.909 21.5449C745.608 23.1502 745.608 24.5281 746.835 24.5281C748.064 24.5281 750.517 23.6098 751.989 24.5281C753.461 25.4464 755.179 26.593 755.179 26.593H693.092C693.092 26.593 692.356 24.5292 695.055 23.1512Z" fill="#FEFEFE"/>
<defs>
<filter id="filter0_d_1357_10110" x="495" y="45" width="253" height="123" filterUnits="userSpaceOnUse" color-interpolation-filters="sRGB">
<feFlood flood-opacity="0" result="BackgroundImageFix"/>
<feColorMatrix in="SourceAlpha" type="matrix" values="0 0 0 0 0 0 0 0 0 0 0 0 0 0 0 0 0 0 127 0" result="hardAlpha"/>
<feOffset dy="4"/>
<feGaussianBlur stdDeviation="2"/>
<feComposite in2="hardAlpha" operator="out"/>
<feColorMatrix type="matrix" values="0 0 0 0 0 0 0 0 0 0 0 0 0 0 0 0 0 0 0.25 0"/>
<feBlend mode="normal" in2="BackgroundImageFix" result="effect1_dropShadow_1357_10110"/>
<feBlend mode="normal" in="SourceGraphic" in2="effect1_dropShadow_1357_10110" result="shape"/>
</filter>
</defs>
</svg>
