<svg width="985" height="228" viewBox="0 0 985 228" fill="none" xmlns="http://www.w3.org/2000/svg">
<path d="M684.486 193C684.821 188.695 685 184.337 685 179.795C685 82.074 598.602 3 492.011 3C385.421 3 299 82.233 299 179.795C299 184.214 299.179 188.616 299.536 193H684.486Z" fill="#A21441" fill-opacity="0.2"/>
<path d="M793 227.5H657H193.5L283 99.5L329 127L426 58L537.5 106L625.5 1.5L793 227.5Z" fill="#D4D4D4"/>
<path d="M613.754 142.681L619.41 145.502" stroke="white" stroke-miterlimit="10" stroke-linecap="round" stroke-linejoin="round"/>
<path d="M544.285 108.042L605.811 138.721" stroke="white" stroke-miterlimit="10" stroke-linecap="round" stroke-linejoin="round"/>
<path d="M319.949 136.647L277.169 167.297" stroke="white" stroke-miterlimit="10" stroke-linecap="round" stroke-linejoin="round"/>
<path d="M643.651 71V38.739L649.513 40.312L650 33.46L625.724 0L595 37.418L611.996 27.722L615.513 38.739L624.892 34.017L643.651 71Z" fill="white"/>
<path d="M455.964 83.753L459.462 72.336L425.903 58L400 76.396L419.328 71.49L431.54 83.753L432.479 74.556L455.964 83.753Z" fill="white"/>
<path d="M277.262 53.0191C272.76 50.5641 270.714 52.6101 269.077 50.5641C267.44 48.5181 273.578 43.1981 261.301 37.8781C261.301 37.8781 260.483 26.4201 243.704 26.0101C226.926 25.6011 231.427 37.4691 226.926 40.3331C222.425 43.1981 221.197 38.6961 216.695 41.5611C212.193 44.4261 214.24 50.1551 210.557 50.9731C206.874 51.7911 201.963 47.2901 197.462 50.1541C192.96 53.0191 192.96 55.4741 190.914 55.4741C188.868 55.4741 184.775 53.8371 182.32 55.4741C179.865 57.1111 177 59.1571 177 59.1571H280.535C280.535 59.1571 281.764 55.4751 277.262 53.0191Z" fill="white"/>
<path d="M29.7099 127.668C33.2699 126.336 34.888 127.446 36.182 126.336C37.477 125.225 32.622 122.337 42.332 119.449C42.332 119.449 42.9789 113.228 56.2479 113.006C69.5179 112.783 65.958 119.226 69.518 120.781C73.077 122.336 74.049 119.892 77.608 121.448C81.168 123.002 79.551 126.113 82.463 126.557C85.375 127.002 89.259 124.558 92.819 126.113C96.378 127.667 96.378 129.001 97.997 129.001C99.614 129.001 102.852 128.112 104.793 129.001C106.734 129.89 109 131 109 131H27.12C27.12 131 26.1499 129.001 29.7099 127.668Z" fill="white"/>
<path d="M701.115 58.668C703.893 57.336 705.157 58.446 706.166 57.336C707.177 56.225 703.388 53.337 710.966 50.449C710.966 50.449 711.472 44.228 721.828 44.006C732.184 43.783 729.406 50.226 732.184 51.781C734.963 53.337 735.721 50.892 738.499 52.448C741.277 54.002 740.015 57.113 742.288 57.557C744.561 58.002 747.592 55.558 750.371 57.113C753.149 58.667 753.149 60.001 754.412 60.001C755.676 60.001 758.201 59.112 759.716 60.001C761.232 60.89 763 62 763 62H699.094C699.094 62 698.337 60.002 701.115 58.668Z" fill="white"/>
<path d="M951.6 115.704C945.83 113.187 943.21 115.285 941.11 113.187C939.01 111.088 946.88 105.633 931.13 100.179C931.13 100.179 930.08 88.4291 908.56 88.0111C887.04 87.5921 892.81 99.7601 887.04 102.697C881.27 105.634 879.69 101.018 873.92 103.956C868.14 106.894 870.77 112.768 866.04 113.607C861.32 114.446 855.02 109.83 849.25 112.768C843.47 115.706 843.47 118.223 840.85 118.223C838.22 118.223 832.97 116.545 829.82 118.223C826.68 119.901 823 122 823 122H955.81C955.8 121.997 957.38 118.222 951.6 115.704Z" fill="white"/>
<path d="M822.11 30.065C819.14 27.829 815.62 27.121 812.26 28.083C808.89 29.046 805.94 31.608 804 35.25C804 35.25 813.96 24.91 822.97 36.496C828.54 21.811 840.59 27.488 840.59 27.488C837.83 24.834 834.38 23.624 830.95 24.103C827.52 24.581 824.36 26.713 822.11 30.065Z" fill="#670926"/>
<path d="M796.78 156.051C792.99 149.481 787.39 145.002 781.12 143.528C774.84 142.054 768.364 143.694 763 148.115C763 148.115 785.82 139.715 794.56 167.753C812.36 147.912 829.65 168.709 829.65 168.709C826.46 161.643 821.28 156.4 815.18 154.049C809.07 151.697 802.49 152.413 796.78 156.051Z" fill="#670926"/>
<path d="M124.844 71.0591C121.436 65.6871 116.556 62.1781 111.197 61.2471C105.839 60.3171 100.404 62.0331 96 66.0481C96 66.0481 115.041 57.7931 123.327 81.1091C137.794 63.4121 153.076 80.1541 153.076 80.1541C150.158 74.3271 145.613 70.1431 140.368 68.4531C135.123 66.7641 129.571 67.6951 124.844 71.0591Z" fill="#670926"/>
<path d="M26.419 195.927C22.373 192.379 17.39 190.876 12.483 191.722C7.576 192.568 3.113 195.701 0 200.484C0 200.484 15.208 187.579 27.004 205C36.362 185.442 53 195.08 53 195.08C49.305 191.021 44.508 188.851 39.575 189.008C34.642 189.165 29.941 191.638 26.419 195.927Z" fill="#670926"/>
<path d="M970.13 201.313C968.35 198.826 965.9 197.297 963.28 197.039C960.65 196.781 958.05 197.812 956 199.923C956 199.923 965.06 195.202 969.58 206.237C976.22 197.114 984.03 204.702 984.03 204.702C982.48 201.984 980.18 200.121 977.6 199.492C975.02 198.863 972.35 199.514 970.13 201.313Z" fill="#670926"/>
<path d="M236.476 161.174C233.658 158.626 230.186 157.546 226.767 158.154C223.348 158.762 220.239 161.012 218.07 164.447C218.07 164.447 228.666 155.179 236.884 167.691C243.404 153.644 254.996 160.566 254.996 160.566C252.422 157.65 249.08 156.092 245.643 156.205C242.206 156.318 238.93 158.094 236.476 161.174Z" fill="#670926"/>
<path d="M719.651 137.244L729 125.166L719.651 133.054L520.633 153.336C520.514 146.19 517.756 139.343 512.895 134.128L549.834 123.265C549.903 123.241 549.96 123.193 549.996 123.129C550.031 123.066 550.043 122.991 550.028 122.92C550.013 122.849 549.972 122.785 549.914 122.742C549.856 122.699 549.784 122.678 549.712 122.684L508.535 130.29C505.08 127.837 501.129 126.184 496.963 125.448L492.516 71.432C492.494 71.311 492.43 71.201 492.336 71.122C492.242 71.043 492.123 71 492 71C491.877 71 491.758 71.043 491.664 71.122C491.57 71.201 491.506 71.311 491.484 71.432L487.072 125.395C482.906 126.128 478.953 127.782 475.5 130.237L434.288 122.684C434.216 122.678 434.144 122.699 434.086 122.742C434.028 122.785 433.987 122.849 433.972 122.92C433.957 122.991 433.969 123.066 434.004 123.129C434.04 123.193 434.097 123.241 434.166 123.265L471.053 134.128C466.18 139.336 463.414 146.186 463.297 153.336L264.349 133.054L255 125.202L264.349 137.28C264.349 137.28 347.507 147.086 400.57 154.622V158.636C396.752 159.066 393.24 160.94 390.744 163.877C388.249 166.814 386.956 170.595 387.129 174.455C387.302 178.314 388.926 181.964 391.674 184.664C394.422 187.364 398.087 188.912 401.928 188.996C405.769 189.08 409.498 187.693 412.36 185.116C415.221 182.539 417.002 178.964 417.341 175.115C417.681 171.267 416.553 167.433 414.187 164.39C411.82 161.346 408.392 159.321 404.597 158.724V155.203C420.44 157.474 433.15 159.516 439.435 160.942C439.435 160.942 453.616 167.105 458.781 167.756C462.947 168.284 468.707 171.858 470.755 173.214C473.44 176.198 476.717 178.582 480.375 180.215C484.033 181.847 487.99 182.69 491.991 182.69C495.993 182.69 499.95 181.847 503.607 180.215C507.265 178.582 510.542 176.198 513.227 173.214C515.293 171.858 521.053 168.284 525.219 167.756C530.366 167.105 544.565 160.942 544.565 160.942C550.832 159.516 563.542 157.421 579.386 155.203V158.724C575.604 159.32 572.19 161.34 569.833 164.373C567.476 167.406 566.354 171.227 566.692 175.061C567.031 178.895 568.806 182.457 571.658 185.024C574.51 187.592 578.225 188.974 582.052 188.89C585.879 188.807 589.531 187.264 592.269 184.574C595.007 181.884 596.627 178.248 596.8 174.403C596.973 170.557 595.686 166.789 593.2 163.862C590.715 160.935 587.216 159.067 583.412 158.636V154.622C636.476 147.139 719.651 137.244 719.651 137.244ZM478.686 147.139L475.57 145.942L479.824 140.237L481.067 140.484L478.091 146.875L478.686 147.139ZM479.526 146.893L482.38 140.766L483.168 140.924L481.592 146.206L479.526 146.893ZM491.343 146.717L483.01 146.1L484.481 141.083L491.343 141.452V146.717ZM492.657 146.717V141.435L499.502 141.065L500.99 146.083L492.657 146.717ZM502.408 146.276L500.832 140.994L501.322 140.889L504.439 146.963L502.408 146.276ZM505.909 146.91L502.635 140.537L504.141 140.237L508.395 145.942L505.909 146.91Z" fill="#31020E"/>
</svg>
