<svg width="929" height="228" viewBox="0 0 929 228" fill="none" xmlns="http://www.w3.org/2000/svg">
<path d="M657.486 193C657.821 188.695 658 184.337 658 179.795C658 82.074 571.602 3 465.011 3C358.421 3 272 82.233 272 179.795C272 184.214 272.179 188.616 272.536 193H657.486Z" fill="#A21441" fill-opacity="0.2"/>
<path d="M766 227.5H630H166.5L256 99.5L302 127L399 58L510.5 106L598.5 1.5L766 227.5Z" fill="#D4D4D4"/>
<path d="M586.754 142.681L592.41 145.502" stroke="white" stroke-miterlimit="10" stroke-linecap="round" stroke-linejoin="round"/>
<path d="M517.285 108.042L578.811 138.721" stroke="white" stroke-miterlimit="10" stroke-linecap="round" stroke-linejoin="round"/>
<path d="M292.949 136.647L250.169 167.297" stroke="white" stroke-miterlimit="10" stroke-linecap="round" stroke-linejoin="round"/>
<path d="M616.651 71V38.739L622.513 40.312L623 33.46L598.724 0L568 37.418L584.996 27.722L588.513 38.739L597.892 34.017L616.651 71Z" fill="white"/>
<path d="M428.964 83.753L432.462 72.336L398.903 58L373 76.396L392.328 71.49L404.54 83.753L405.479 74.556L428.964 83.753Z" fill="white"/>
<path d="M250.262 53.0191C245.76 50.5641 243.714 52.6101 242.077 50.5641C240.44 48.5181 246.578 43.1981 234.301 37.8781C234.301 37.8781 233.483 26.4201 216.704 26.0101C199.926 25.6011 204.427 37.4691 199.926 40.3331C195.425 43.1981 194.197 38.6961 189.695 41.5611C185.193 44.4261 187.24 50.1551 183.557 50.9731C179.874 51.7911 174.963 47.2901 170.462 50.1541C165.96 53.0191 165.96 55.4741 163.914 55.4741C161.868 55.4741 157.775 53.8371 155.32 55.4741C152.865 57.1111 150 59.1571 150 59.1571H253.535C253.535 59.1571 254.764 55.4751 250.262 53.0191Z" fill="white"/>
<path d="M630.005 140.417H505.912V225.927H630.005V140.417Z" fill="white" stroke="black" stroke-miterlimit="10" stroke-linecap="round" stroke-linejoin="round"/>
<path d="M581.442 184.407H564.128V225.927H581.442V184.407Z" fill="white" stroke="#263238" stroke-miterlimit="10" stroke-linecap="round" stroke-linejoin="round"/>
<path d="M579.588 187.373H565.982V225.927H579.588V187.373Z" fill="#31020E"/>
<path d="M591.918 178.792H588.238V225.928H591.918V178.792Z" fill="white" stroke="#263238" stroke-miterlimit="10" stroke-linecap="round" stroke-linejoin="round"/>
<path d="M592.56 209.379H587.596V225.927H592.56V209.379Z" fill="white" stroke="#263238" stroke-miterlimit="10" stroke-linecap="round" stroke-linejoin="round"/>
<path d="M633.805 141.524H518.496C518.285 141.524 518.225 141.234 518.419 141.15L534.519 134.179L550.618 127.207C551.203 126.955 551.833 126.823 552.47 126.823H596.906C597.494 126.823 598.078 126.935 598.625 127.152L633.877 141.148C634.076 141.227 634.02 141.524 633.805 141.524Z" fill="#31020E"/>
<path d="M596.147 182.43H529.913L534.864 168.096H587.373L596.147 182.43Z" fill="#31020E"/>
<path d="M558.276 140.417H501.549V225.927H558.276V140.417Z" fill="white" stroke="#263238" stroke-miterlimit="10" stroke-linecap="round" stroke-linejoin="round"/>
<path d="M529.08 126.181L498.116 140.304C497.923 140.392 497.986 140.681 498.197 140.681H561.628C561.84 140.681 561.902 140.392 561.71 140.304L530.746 126.181C530.217 125.94 529.609 125.94 529.08 126.181Z" fill="#31020E"/>
<path d="M572.785 195.158C573.604 195.158 574.268 194.494 574.268 193.675C574.268 192.856 573.604 192.192 572.785 192.192C571.966 192.192 571.302 192.856 571.302 193.675C571.302 194.494 571.966 195.158 572.785 195.158Z" fill="white"/>
<path d="M626.298 188.115H598.865V211.099H626.298V188.115Z" fill="white" stroke="#31020E" stroke-miterlimit="10" stroke-linecap="round" stroke-linejoin="round"/>
<path d="M615.918 190.204H609.245V195.158H615.918V190.204Z" fill="#31020E" stroke="#31020E" stroke-miterlimit="10" stroke-linecap="round" stroke-linejoin="round"/>
<path d="M615.918 197.382H609.245V209.009H615.918V197.382Z" fill="#31020E" stroke="#31020E" stroke-miterlimit="10" stroke-linecap="round" stroke-linejoin="round"/>
<path d="M607.391 190.204H601.359V195.158H607.391V190.204Z" fill="#31020E" stroke="#31020E" stroke-miterlimit="10" stroke-linecap="round" stroke-linejoin="round"/>
<path d="M623.804 190.204H617.772V195.158H623.804V190.204Z" fill="#31020E" stroke="#31020E" stroke-miterlimit="10" stroke-linecap="round" stroke-linejoin="round"/>
<path d="M623.804 197.382H617.772V209.009H623.804V197.382Z" fill="#31020E" stroke="#31020E" stroke-miterlimit="10" stroke-linecap="round" stroke-linejoin="round"/>
<path d="M607.391 197.382H601.359V209.009H607.391V197.382Z" fill="#31020E" stroke="#31020E" stroke-miterlimit="10" stroke-linecap="round" stroke-linejoin="round"/>
<path d="M547.336 188.115H512.49V211.099H547.336V188.115Z" fill="white" stroke="#31020E" stroke-miterlimit="10" stroke-linecap="round" stroke-linejoin="round"/>
<path d="M529.542 190.204H522.869V195.158H529.542V190.204Z" fill="#31020E" stroke="#31020E" stroke-miterlimit="10" stroke-linecap="round" stroke-linejoin="round"/>
<path d="M529.542 197.382H522.869V209.009H529.542V197.382Z" fill="#31020E" stroke="#31020E" stroke-miterlimit="10" stroke-linecap="round" stroke-linejoin="round"/>
<path d="M521.015 190.204H514.983V195.158H521.015V190.204Z" fill="#31020E" stroke="#31020E" stroke-miterlimit="10" stroke-linecap="round" stroke-linejoin="round"/>
<path d="M537.428 190.204H531.396V195.158H537.428V190.204Z" fill="#31020E" stroke="#31020E" stroke-miterlimit="10" stroke-linecap="round" stroke-linejoin="round"/>
<path d="M537.428 197.382H531.396V209.009H537.428V197.382Z" fill="#31020E" stroke="#31020E" stroke-miterlimit="10" stroke-linecap="round" stroke-linejoin="round"/>
<path d="M545.213 190.204H539.181V195.158H545.213V190.204Z" fill="#31020E" stroke="#31020E" stroke-miterlimit="10" stroke-linecap="round" stroke-linejoin="round"/>
<path d="M545.213 197.382H539.181V209.009H545.213V197.382Z" fill="#31020E" stroke="#31020E" stroke-miterlimit="10" stroke-linecap="round" stroke-linejoin="round"/>
<path d="M521.015 197.382H514.983V209.009H521.015V197.382Z" fill="#31020E" stroke="#31020E" stroke-miterlimit="10" stroke-linecap="round" stroke-linejoin="round"/>
<path d="M547.336 144H512.49V166.984H547.336V144Z" fill="white" stroke="#263238" stroke-miterlimit="10" stroke-linecap="round" stroke-linejoin="round"/>
<path d="M529.542 146.089H522.869V151.043H529.542V146.089Z" fill="#31020E" stroke="#31020E" stroke-miterlimit="10" stroke-linecap="round" stroke-linejoin="round"/>
<path d="M529.542 153.268H522.869V164.895H529.542V153.268Z" fill="#31020E" stroke="#31020E" stroke-miterlimit="10" stroke-linecap="round" stroke-linejoin="round"/>
<path d="M521.015 146.089H514.983V151.043H521.015V146.089Z" fill="#31020E" stroke="#31020E" stroke-miterlimit="10" stroke-linecap="round" stroke-linejoin="round"/>
<path d="M537.428 146.089H531.396V151.043H537.428V146.089Z" fill="#31020E" stroke="#31020E" stroke-miterlimit="10" stroke-linecap="round" stroke-linejoin="round"/>
<path d="M537.428 153.268H531.396V164.895H537.428V153.268Z" fill="#31020E" stroke="#31020E" stroke-miterlimit="10" stroke-linecap="round" stroke-linejoin="round"/>
<path d="M545.213 146.089H539.181V151.043H545.213V146.089Z" fill="#31020E" stroke="#31020E" stroke-miterlimit="10" stroke-linecap="round" stroke-linejoin="round"/>
<path d="M545.213 153.268H539.181V164.895H545.213V153.268Z" fill="#31020E" stroke="#31020E" stroke-miterlimit="10" stroke-linecap="round" stroke-linejoin="round"/>
<path d="M521.015 153.268H514.983V164.895H521.015V153.268Z" fill="#31020E" stroke="#31020E" stroke-miterlimit="10" stroke-linecap="round" stroke-linejoin="round"/>
<path d="M626.298 144H598.865V166.984H626.298V144Z" fill="white" stroke="#263238" stroke-miterlimit="10" stroke-linecap="round" stroke-linejoin="round"/>
<path d="M615.918 146.089H609.245V151.043H615.918V146.089Z" fill="#31020E" stroke="#31020E" stroke-miterlimit="10" stroke-linecap="round" stroke-linejoin="round"/>
<path d="M615.918 153.268H609.245V164.895H615.918V153.268Z" fill="#31020E" stroke="#31020E" stroke-miterlimit="10" stroke-linecap="round" stroke-linejoin="round"/>
<path d="M607.391 146.089H601.359V151.043H607.391V146.089Z" fill="#31020E" stroke="#31020E" stroke-miterlimit="10" stroke-linecap="round" stroke-linejoin="round"/>
<path d="M623.804 146.089H617.772V151.043H623.804V146.089Z" fill="#31020E" stroke="#31020E" stroke-miterlimit="10" stroke-linecap="round" stroke-linejoin="round"/>
<path d="M623.804 153.268H617.772V164.895H623.804V153.268Z" fill="#31020E" stroke="#31020E" stroke-miterlimit="10" stroke-linecap="round" stroke-linejoin="round"/>
<path d="M607.391 153.268H601.359V164.895H607.391V153.268Z" fill="#31020E" stroke="#31020E" stroke-miterlimit="10" stroke-linecap="round" stroke-linejoin="round"/>
<path d="M582.925 144H563.648V166.984H582.925V144Z" fill="white" stroke="#31020E" stroke-miterlimit="10" stroke-linecap="round" stroke-linejoin="round"/>
<path d="M580.7 146.089H574.027V151.043H580.7V146.089Z" fill="#31020E" stroke="#31020E" stroke-miterlimit="10" stroke-linecap="round" stroke-linejoin="round"/>
<path d="M580.7 153.268H574.027V164.895H580.7V153.268Z" fill="#31020E" stroke="#31020E" stroke-miterlimit="10" stroke-linecap="round" stroke-linejoin="round"/>
<path d="M572.173 146.089H566.141V151.043H572.173V146.089Z" fill="#31020E" stroke="#31020E" stroke-miterlimit="10" stroke-linecap="round" stroke-linejoin="round"/>
<path d="M572.173 153.268H566.141V164.895H572.173V153.268Z" fill="#31020E" stroke="#31020E" stroke-miterlimit="10" stroke-linecap="round" stroke-linejoin="round"/>
<path d="M457.03 126.21H321.424V226.21H457.03V126.21Z" fill="white" stroke="#31020E" stroke-miterlimit="10" stroke-linecap="round" stroke-linejoin="round"/>
<path d="M468.454 129.027H310L321.845 133.341H456.608L468.454 129.027Z" fill="white" stroke="#31020E" stroke-miterlimit="10" stroke-linecap="round" stroke-linejoin="round"/>
<path d="M468.454 129.037H310L320.821 113.482C321.463 112.56 322.515 112.01 323.638 112.01H454.815C455.938 112.01 456.99 112.56 457.632 113.482L468.454 129.037Z" fill="#31020E" stroke="#31020E" stroke-miterlimit="10" stroke-linecap="round" stroke-linejoin="round"/>
<path d="M334.963 99.7529H323.705V114.843H334.963V99.7529Z" fill="white" stroke="#31020E" stroke-miterlimit="10" stroke-linecap="round" stroke-linejoin="round"/>
<path d="M334.963 99.7529H332.005V114.843H334.963V99.7529Z" fill="white" stroke="#31020E" stroke-miterlimit="10" stroke-linecap="round" stroke-linejoin="round"/>
<path d="M336.822 95H321.846V102.763H336.822V95Z" fill="white" stroke="#31020E" stroke-miterlimit="10" stroke-linecap="round" stroke-linejoin="round"/>
<path d="M336.822 95H331.643V102.763H336.822V95Z" fill="white" stroke="#31020E" stroke-miterlimit="10" stroke-linecap="round" stroke-linejoin="round"/>
<path d="M356.297 133.916H337.792V162.71H356.297V133.916Z" fill="white" stroke="#31020E" stroke-miterlimit="10" stroke-linecap="round" stroke-linejoin="round"/>
<path d="M354.295 135.71H339.795V161.282H354.295V135.71Z" fill="#31020E" stroke="white" stroke-miterlimit="10" stroke-linecap="round" stroke-linejoin="round"/>
<path d="M354.295 135.71H339.795V149.71H354.295V135.71Z" fill="#31020E" stroke="white" stroke-miterlimit="10" stroke-linecap="round" stroke-linejoin="round"/>
<path d="M350.295 135.71H343.795V149.71H350.295V135.71Z" fill="#31020E" stroke="white" stroke-miterlimit="10" stroke-linecap="round" stroke-linejoin="round"/>
<path d="M359.295 189.416H334.795V218.21H359.295V189.416Z" fill="white" stroke="#31020E" stroke-miterlimit="10" stroke-linecap="round" stroke-linejoin="round"/>
<path d="M356.644 191.21H337.446V216.782H356.644V191.21Z" fill="#31020E" stroke="white" stroke-miterlimit="10" stroke-linecap="round" stroke-linejoin="round"/>
<path d="M356.644 191.21H337.446V205.21H356.644V191.21Z" fill="#31020E" stroke="white" stroke-miterlimit="10" stroke-linecap="round" stroke-linejoin="round"/>
<path d="M351.348 191.21H342.742V205.21H351.348V191.21Z" fill="#31020E" stroke="white" stroke-miterlimit="10" stroke-linecap="round" stroke-linejoin="round"/>
<path d="M443.295 189.416H418.795V218.21H443.295V189.416Z" fill="white" stroke="#31020E" stroke-miterlimit="10" stroke-linecap="round" stroke-linejoin="round"/>
<path d="M440.644 191.21H421.446V216.782H440.644V191.21Z" fill="#31020E" stroke="white" stroke-miterlimit="10" stroke-linecap="round" stroke-linejoin="round"/>
<path d="M440.644 191.21H421.446V205.21H440.644V191.21Z" fill="#31020E" stroke="white" stroke-miterlimit="10" stroke-linecap="round" stroke-linejoin="round"/>
<path d="M435.348 191.21H426.742V205.21H435.348V191.21Z" fill="#31020E" stroke="white" stroke-miterlimit="10" stroke-linecap="round" stroke-linejoin="round"/>
<path d="M441.297 133.916H422.792V162.71H441.297V133.916Z" fill="white" stroke="#31020E" stroke-miterlimit="10" stroke-linecap="round" stroke-linejoin="round"/>
<path d="M439.295 135.71H424.795V161.282H439.295V135.71Z" fill="#31020E" stroke="white" stroke-miterlimit="10" stroke-linecap="round" stroke-linejoin="round"/>
<path d="M439.295 135.71H424.795V149.71H439.295V135.71Z" fill="#31020E" stroke="white" stroke-miterlimit="10" stroke-linecap="round" stroke-linejoin="round"/>
<path d="M435.295 135.71H428.795V149.71H435.295V135.71Z" fill="#31020E" stroke="white" stroke-miterlimit="10" stroke-linecap="round" stroke-linejoin="round"/>
<path d="M394.787 138.21H381.802V158.416H394.787V138.21Z" fill="white" stroke="#31020E" stroke-miterlimit="10" stroke-linecap="round" stroke-linejoin="round"/>
<path d="M393.382 139.469H383.207V156.988H393.382V139.469Z" fill="#31020E" stroke="white" stroke-miterlimit="10" stroke-linecap="round" stroke-linejoin="round"/>
<path d="M393.382 139.469H383.207V149.293H393.382V139.469Z" fill="#31020E" stroke="white" stroke-miterlimit="10" stroke-linecap="round" stroke-linejoin="round"/>
<path d="M390.575 139.469H386.014V149.293H390.575V139.469Z" fill="#31020E" stroke="white" stroke-miterlimit="10" stroke-linecap="round" stroke-linejoin="round"/>
<path d="M406.795 181.21H371.659V216.71H406.795V181.21Z" fill="white" stroke="#31020E" stroke-miterlimit="10" stroke-linecap="round" stroke-linejoin="round"/>
<path d="M402.795 186.21H375.659V216.71H402.795V186.21Z" fill="#31020E" stroke="#31020E" stroke-miterlimit="10" stroke-linecap="round" stroke-linejoin="round"/>
<path d="M384.295 186.21H380.659V216.71H384.295V186.21Z" fill="white" stroke="#31020E" stroke-miterlimit="10" stroke-linecap="round" stroke-linejoin="round"/>
<path d="M396.295 186.21H392.659V216.71H396.295V186.21Z" fill="white" stroke="#31020E" stroke-miterlimit="10" stroke-linecap="round" stroke-linejoin="round"/>
<path d="M377.295 179.37H373.071L389.227 165.377L405.383 179.37H401.295V181.703H413.464L389.809 161.214C389.475 160.925 388.979 160.925 388.645 161.214L364.99 181.703H377.295V179.37Z" fill="white" stroke="#31020E" stroke-miterlimit="10" stroke-linecap="round" stroke-linejoin="round"/>
<path d="M406.971 216.71H371.659V219.817H406.971V216.71Z" fill="white" stroke="#31020E" stroke-miterlimit="10" stroke-linecap="round" stroke-linejoin="round"/>
<path d="M406.971 219.731H371.659V222.838H406.971V219.731Z" fill="white" stroke="#31020E" stroke-miterlimit="10" stroke-linecap="round" stroke-linejoin="round"/>
<path d="M406.971 222.752H371.659V225.858H406.971V222.752Z" fill="white" stroke="#31020E" stroke-miterlimit="10" stroke-linecap="round" stroke-linejoin="round"/>
<path d="M375.659 186.21H372.128" stroke="#31020E" stroke-miterlimit="10" stroke-linecap="round" stroke-linejoin="round"/>
<path d="M406.659 186.21H403.128" stroke="#31020E" stroke-miterlimit="10" stroke-linecap="round" stroke-linejoin="round"/>
<path d="M2.70995 127.668C6.26995 126.336 7.88796 127.446 9.18196 126.336C10.477 125.225 5.62196 122.337 15.332 119.449C15.332 119.449 15.9789 113.228 29.2479 113.006C42.5179 112.783 38.958 119.226 42.518 120.781C46.077 122.336 47.049 119.892 50.608 121.448C54.168 123.002 52.551 126.113 55.463 126.557C58.375 127.002 62.259 124.558 65.819 126.113C69.378 127.667 69.378 129.001 70.997 129.001C72.614 129.001 75.852 128.112 77.793 129.001C79.734 129.89 82 131 82 131H0.119953C0.119953 131 -0.850051 129.001 2.70995 127.668Z" fill="white"/>
<path d="M674.115 58.668C676.893 57.336 678.157 58.446 679.166 57.336C680.177 56.225 676.388 53.337 683.966 50.449C683.966 50.449 684.472 44.228 694.828 44.006C705.184 43.783 702.406 50.226 705.184 51.781C707.963 53.337 708.721 50.892 711.499 52.448C714.277 54.002 713.015 57.113 715.288 57.557C717.561 58.002 720.592 55.558 723.371 57.113C726.149 58.667 726.149 60.001 727.412 60.001C728.676 60.001 731.201 59.112 732.716 60.001C734.232 60.89 736 62 736 62H672.094C672.094 62 671.337 60.002 674.115 58.668Z" fill="white"/>
<path d="M924.6 115.704C918.83 113.187 916.21 115.285 914.11 113.187C912.01 111.088 919.88 105.633 904.13 100.179C904.13 100.179 903.08 88.4291 881.56 88.0111C860.04 87.5921 865.81 99.7601 860.04 102.697C854.27 105.634 852.69 101.018 846.92 103.956C841.14 106.894 843.77 112.768 839.04 113.607C834.32 114.446 828.02 109.83 822.25 112.768C816.47 115.706 816.47 118.223 813.85 118.223C811.22 118.223 805.97 116.545 802.82 118.223C799.68 119.901 796 122 796 122H928.81C928.8 121.997 930.38 118.222 924.6 115.704Z" fill="white"/>
<path d="M476.083 203.915C476.083 203.915 487.733 205.067 493.638 212.29C493.638 212.29 499.876 203.924 511.081 204.095C514.333 200.176 516.289 195.143 516.291 189.653C516.295 177.147 506.16 167.004 493.653 167C481.147 166.996 471.004 177.131 471 189.637C470.998 195.058 472.903 200.035 476.078 203.934L476.083 203.915Z" fill="#A21441" fill-opacity="0.4"/>
<path opacity="0.3" d="M476.083 203.915C476.083 203.915 487.733 205.067 493.638 212.29C493.638 212.29 499.876 203.924 511.081 204.095C514.333 200.176 516.289 195.143 516.291 189.653C516.295 177.147 506.16 167.004 493.653 167C481.147 166.996 471.004 177.131 471 189.637C470.998 195.058 472.903 200.035 476.078 203.934L476.083 203.915Z" fill="white"/>
<path d="M493.253 168.596L492.86 227H494.826L493.253 168.596Z" fill="#31020E"/>
<path d="M493.842 210.088C493.842 210.088 497.776 203.009 504.854 200.846C504.854 200.846 497.382 202.615 493.645 208.711L493.842 210.088Z" fill="#31020E"/>
<path d="M493.842 190.03C493.842 190.03 497.776 182.951 504.854 180.788C504.854 180.788 497.382 182.557 493.645 188.654L493.842 190.03Z" fill="#31020E"/>
<path d="M493.842 200.059C493.842 200.059 497.776 192.98 504.854 190.817C504.854 190.817 497.382 192.586 493.645 198.682L493.842 200.059Z" fill="#31020E"/>
<path d="M493.259 195.143C493.259 195.143 489.464 188.064 482.633 185.901C482.633 185.901 489.843 187.67 493.449 193.766L493.259 195.143Z" fill="#31020E"/>
<path d="M493.259 204.976C493.259 204.976 489.464 197.896 482.633 195.734C482.633 195.734 489.843 197.503 493.449 203.599L493.259 204.976Z" fill="#31020E"/>
<path d="M628.106 207.826C628.106 207.826 637.519 208.757 642.29 214.593C642.29 214.593 647.33 207.833 656.384 207.972C659.011 204.805 660.592 200.739 660.593 196.303C660.596 186.198 652.408 178.004 642.303 178C632.198 177.996 624.004 186.185 624 196.29C623.999 200.67 625.537 204.691 628.103 207.842L628.106 207.826Z" fill="#31020E"/>
<path opacity="0.5" d="M628.106 207.826C628.106 207.826 637.519 208.757 642.29 214.593C642.29 214.593 647.33 207.833 656.384 207.972C659.011 204.805 660.592 200.739 660.593 196.303C660.596 186.198 652.408 178.004 642.303 178C632.198 177.996 624.004 186.185 624 196.29C623.999 200.67 625.537 204.691 628.103 207.842L628.106 207.826Z" fill="white"/>
<path d="M641.979 179.29L641.661 226.478H643.25L641.979 179.29Z" fill="#31020E"/>
<path d="M642.456 212.814C642.456 212.814 645.634 207.094 651.353 205.347C651.353 205.347 645.315 206.777 642.297 211.702L642.456 212.814Z" fill="#31020E"/>
<path d="M642.456 196.608C642.456 196.608 645.634 190.888 651.353 189.141C651.353 189.141 645.315 190.571 642.297 195.496L642.456 196.608Z" fill="#31020E"/>
<path d="M642.456 204.711C642.456 204.711 645.634 198.991 651.353 197.243C651.353 197.243 645.315 198.673 642.297 203.598L642.456 204.711Z" fill="#31020E"/>
<path d="M641.985 200.739C641.985 200.739 638.919 195.019 633.4 193.272C633.4 193.272 639.226 194.702 642.139 199.627L641.985 200.739Z" fill="#31020E"/>
<path d="M641.985 208.683C641.985 208.683 638.919 202.963 633.4 201.216C633.4 201.216 639.226 202.646 642.139 207.571L641.985 208.683Z" fill="#31020E"/>
<path d="M297.106 207.826C297.106 207.826 306.519 208.757 311.29 214.593C311.29 214.593 316.331 207.833 325.384 207.972C328.011 204.805 329.592 200.739 329.593 196.303C329.597 186.198 321.408 178.004 311.303 178C301.198 177.996 293.004 186.185 293 196.29C292.999 200.67 294.537 204.691 297.103 207.842L297.106 207.826Z" fill="#A21441" fill-opacity="0.4"/>
<path opacity="0.5" d="M297.106 207.826C297.106 207.826 306.519 208.757 311.29 214.593C311.29 214.593 316.331 207.833 325.384 207.972C328.011 204.805 329.592 200.739 329.593 196.303C329.597 186.198 321.408 178.004 311.303 178C301.198 177.996 293.004 186.185 293 196.29C292.999 200.67 294.537 204.691 297.103 207.842L297.106 207.826Z" fill="white"/>
<path d="M311.318 180L311 227.188H312.589L311.318 180Z" fill="#31020E"/>
<path d="M311.456 212.814C311.456 212.814 314.634 207.094 320.353 205.347C320.353 205.347 314.316 206.777 311.297 211.702L311.456 212.814Z" fill="#31020E"/>
<path d="M311.456 196.608C311.456 196.608 314.634 190.888 320.353 189.141C320.353 189.141 314.316 190.571 311.297 195.496L311.456 196.608Z" fill="#31020E"/>
<path d="M311.456 204.711C311.456 204.711 314.634 198.991 320.353 197.243C320.353 197.243 314.316 198.673 311.297 203.598L311.456 204.711Z" fill="#31020E"/>
<path d="M310.985 200.739C310.985 200.739 307.919 195.019 302.4 193.272C302.4 193.272 308.226 194.702 311.139 199.627L310.985 200.739Z" fill="#31020E"/>
<path d="M310.985 208.683C310.985 208.683 307.919 202.963 302.4 201.216C302.4 201.216 308.226 202.646 311.139 207.571L310.985 208.683Z" fill="#31020E"/>
<path opacity="0.3" d="M439.172 195.091C439.172 195.091 455.612 196.717 463.944 206.909C463.944 206.909 472.747 195.103 488.559 195.345C493.147 189.815 495.907 182.713 495.91 174.966C495.916 157.318 481.614 143.006 463.966 143C446.318 142.994 432.006 157.296 432 174.943C431.997 182.593 434.685 189.616 439.166 195.118L439.172 195.091Z" fill="white"/>
<path d="M463.401 145.252L462.846 227.666H465.621L463.401 145.252Z" fill="#31020E"/>
<path d="M464.233 203.802C464.233 203.802 469.783 193.812 479.772 190.76C479.772 190.76 469.228 193.257 463.955 201.859L464.233 203.802Z" fill="#31020E"/>
<path d="M464.233 175.498C464.233 175.498 469.783 165.508 479.772 162.456C479.772 162.456 469.228 164.953 463.955 173.556L464.233 175.498Z" fill="#31020E"/>
<path d="M464.233 189.65C464.233 189.65 469.783 179.66 479.772 176.608C479.772 176.608 469.228 179.105 463.955 187.707L464.233 189.65Z" fill="#31020E"/>
<path d="M463.41 182.713C463.41 182.713 458.055 172.723 448.416 169.671C448.416 169.671 458.59 172.168 463.678 180.77L463.41 182.713Z" fill="#31020E"/>
<path d="M463.41 196.588C463.41 196.588 458.055 186.598 448.416 183.546C448.416 183.546 458.59 186.043 463.678 194.645L463.41 196.588Z" fill="#31020E"/>
<path d="M439.172 195.091C439.172 195.091 455.612 196.717 463.944 206.909C463.944 206.909 472.747 195.103 488.559 195.345C493.147 189.815 495.907 182.713 495.91 174.966C495.916 157.318 481.614 143.006 463.966 143C446.318 142.994 432.006 157.296 432 174.943C431.997 182.593 434.685 189.616 439.166 195.118L439.172 195.091Z" fill="#31020E" fill-opacity="0.3"/>
</svg>
