<svg width="570" height="322" viewBox="0 0 570 322" fill="none" xmlns="http://www.w3.org/2000/svg">
<path d="M250.646 309.088C246.304 317.427 238.343 320.603 234 321L16.0322 321.468C7.73536 321.486 1 314.765 1 306.468V16C1 7.71573 7.71573 1 16 1H554.5C562.784 1 569.5 7.71573 569.5 16V306.299C569.5 314.661 562.662 321.409 554.3 321.297L532 321C527.657 320.603 519.696 317.427 515.354 309.088C509.893 298.603 502.441 294 497.013 294H268.987C263.559 294 256.107 298.603 250.646 309.088Z" fill="white" stroke="black"/>
</svg>
