<svg width="300" height="311" viewBox="0 0 300 311" fill="none" xmlns="http://www.w3.org/2000/svg">
<path d="M81.6614 115.778C81.6614 115.778 79.2753 85.6186 88.2235 65.5115C91.8026 60.7811 94.1895 62.5546 94.1895 62.5546C94.1895 62.5546 95.3826 74.9734 92.3995 86.8004C89.4165 98.6283 87.6274 121.692 87.6274 121.692L81.6614 115.778Z" fill="#D4D4D4"/>
<path d="M79.8718 113.413C79.8718 113.413 79.2748 99.2199 64.3606 86.8012C49.4465 74.3824 46.4634 74.3824 46.4634 74.3824C46.4634 74.3824 58.3946 73.7906 66.7467 79.1137C75.0988 84.4359 78.0818 99.2199 78.6787 101.586C79.2757 103.951 82.8548 113.414 82.8548 113.414L79.8718 113.413Z" fill="white"/>
<path d="M89.5466 115.587C89.5466 115.587 92.3423 101.655 109.008 91.6616C125.674 81.6688 128.622 82.1243 128.622 82.1243C128.622 82.1243 116.924 79.7174 107.845 83.7009C98.7652 87.6843 93.5204 101.837 92.5628 104.082C91.6061 106.329 86.5986 115.131 86.5986 115.131L89.5466 115.587Z" fill="white"/>
<path d="M82.8548 113.413C82.8548 113.413 67.3437 62.5555 53.6225 50.7276C54.2186 48.9532 70.3267 54.2755 75.0988 67.286C79.8718 80.2956 81.0648 99.811 82.8548 105.134C84.6448 110.456 87.0308 115.188 87.0308 115.188" fill="white"/>
<path d="M81.6614 115.778C81.6614 115.778 87.6275 87.9839 103.139 78.5221C104.332 82.0699 87.0314 111.047 88.8205 124.058C90.6096 137.067 81.6614 115.778 81.6614 115.778Z" fill="white"/>
<path d="M73.1441 147.105H96.0866C97.4984 137.62 98.6844 129.09 98.9041 125.832C99.3558 119.111 97.0713 113.417 95.936 111.047H73.2947C72.1594 113.417 69.8749 119.111 70.3266 125.832C70.5454 129.09 71.7314 137.62 73.1441 147.105Z" fill="#979797"/>
<path d="M282.056 90.4689H239.98V146.899H282.056V90.4689Z" fill="#979797"/>
<path d="M277.725 90.4689H235.649V146.899H277.725V90.4689Z" fill="#A21441"/>
<path d="M267.205 84.7439H225.128V146.899H267.205V84.7439Z" fill="#979797"/>
<path d="M262.874 84.7437H214.61V146.898H262.874V84.7437Z" fill="#A21441"/>
<path d="M262.874 84.7439H254.624V146.899H262.874V84.7439Z" fill="#A21441"/>
<path d="M21.9681 100.283C21.9681 100.283 15.3684 103.554 12.4808 112.96C9.59316 122.364 25.2688 147.717 25.2688 146.49C25.2688 145.263 40.9445 138.312 40.9445 138.312L33.1071 109.688L21.9681 100.283Z" fill="#31020E"/>
<path d="M186.827 149.918L178.111 127.087H156.324L165.039 149.918" fill="#A21441"/>
<path d="M107.768 131.611H231.647L233.813 120.093H109.934" fill="#D4D4D4"/>
<path d="M120.899 61.8034L109.936 120.094H233.814L244.523 63.1526C244.949 60.8889 243.196 58.7979 240.873 58.7979H124.548C122.76 58.7979 121.226 60.0612 120.899 61.8034Z" fill="#31020E"/>
<path d="M181.919 141.685L214.714 117.457L182.538 115.617L152.218 138.925L181.919 141.685Z" fill="white"/>
<path d="M172.741 133.814L180.991 129.316C180.991 129.316 188.958 126.045 189.19 126.045C189.422 126.045 190.118 126.812 189.267 128.421C188.417 130.031 186.173 130.415 186.173 130.415L184.704 134.478L192.335 133.405L194.088 132.996C194.088 132.996 192.851 136.063 192.335 136.778C191.82 137.494 188.932 139.335 188.932 139.335C188.932 139.335 183.466 143.832 181.507 144.343C179.547 144.855 172.741 145.161 172.741 145.161L168.41 145.058L164.388 145.877C164.388 145.877 162.326 142.095 162.635 136.778L172.741 133.814Z" fill="#FDC4B1"/>
<path d="M221.623 152.624L245.548 307.192H251.323L235.648 151.806L221.623 152.624Z" fill="#D4D4D4"/>
<path d="M270.299 152.624L294.224 307.192H299.999L284.324 151.806L270.299 152.624Z" fill="#D4D4D4"/>
<path d="M130.045 152.624L106.12 307.192H100.344L116.02 151.806L130.045 152.624Z" fill="#D4D4D4"/>
<path d="M81.3689 152.624L57.4435 307.192H51.6683L67.344 151.806L81.3689 152.624Z" fill="#D4D4D4"/>
<path d="M287.624 150.988H72.2943V158.348H287.624V150.988Z" fill="#979797"/>
<path d="M291.75 154.259H78.895C76.6166 154.259 74.7697 152.428 74.7697 150.17C74.7697 147.911 76.6166 146.081 78.895 146.081H291.75C294.028 146.081 295.875 147.911 295.875 150.17C295.875 152.428 294.028 154.259 291.75 154.259Z" fill="#423C3D"/>
<path d="M86.0237 291.654C86.0237 291.654 87.3769 288.369 93.0339 288.953C98.691 289.537 99.3912 290.577 100.176 293.328C100.961 296.079 103.053 298.983 104.38 299.561C105.707 300.141 110.617 303.121 114.536 303.575C118.454 304.029 119.002 306.363 118.191 307.475C117.38 308.588 102.737 310.155 99.477 309.884C99.477 309.884 88.4535 310.203 85.8197 309.473C83.1868 308.743 85.8609 292.735 86.0237 291.654Z" fill="#31020E"/>
<path d="M87.5241 268.107L85.826 293.738C85.826 293.738 89.8567 295.025 92.9246 297.253C97.4578 300.546 101.17 296.559 101.17 296.559L102.192 280.432L87.5241 268.107Z" fill="#FDC4B1"/>
<path d="M120.351 222.956L103.644 294.106C103.644 294.106 94.9815 295.333 84.4622 290.426C84.4622 290.426 93.7439 223.57 94.3627 219.276C94.9815 214.982 119.113 219.276 120.351 222.956Z" fill="#31020E"/>
<path d="M52.629 38.8777C52.629 38.8777 59.4878 40.1445 63.9956 50.1573C68.5034 60.1701 67.4189 82.1504 65.0442 84.8844C62.6695 87.6184 54.8671 87.1473 43.904 84.343C32.3203 81.3808 27.7075 69.9512 25.1657 62.38C20.2964 47.8806 32.2232 31.8445 52.629 38.8777Z" fill="#FDC4B1"/>
<path d="M33.5878 97.481L37.5327 78.7491C37.5327 78.7491 47.687 75.0737 54.6176 81.49L56.9757 84.342L57.7784 96.3175C57.7784 96.3175 47.1347 99.166 33.5878 97.481Z" fill="#FDC4B1"/>
<path d="M33.3674 212.676C33.3674 212.676 55.473 219.087 81.6925 218.203C107.912 217.318 111.382 209.949 112.199 202.923C113.017 195.897 92.6215 191.622 83.7495 189.314C74.8775 187.005 44.5441 178.358 36.3408 187.128C28.1384 195.898 26.2302 206.682 33.3674 212.676Z" fill="#31020E"/>
<path d="M147.283 291.653C147.283 291.653 148.636 288.369 154.293 288.953C159.95 289.537 160.65 290.577 161.435 293.328C162.22 296.079 164.311 298.983 165.639 299.561C166.966 300.141 171.876 303.121 175.794 303.575C179.713 304.029 180.261 306.363 179.45 307.475C178.638 308.587 163.996 310.155 160.736 309.884C160.736 309.884 149.712 310.203 147.079 309.472C144.445 308.743 147.119 292.734 147.283 291.653Z" fill="#31020E"/>
<path d="M140.771 269.98L146.958 294.924C146.958 294.924 151.908 293.697 154.796 296.15C157.683 298.604 163.046 296.969 163.046 296.969L158.509 277.34L140.771 269.98Z" fill="#FDC4B1"/>
<path d="M89.6196 186.563C90.8573 186.563 132.933 200.465 141.183 206.6C149.434 213.142 162.634 286.03 163.459 287.666C164.284 289.301 151.496 293.799 143.246 292.572C142.833 290.937 123.445 229.498 123.445 225.409C123.445 225.409 90.4442 223.773 76.4184 221.319C62.3935 218.866 52.9053 218.457 47.1301 203.328C41.3549 188.198 75.1808 186.972 75.1808 186.972L89.6196 186.563Z" fill="#31020E"/>
<path d="M161.603 132.791C161.603 132.791 169.647 132.586 170.266 133.405C170.884 134.223 173.772 141.583 171.091 144.649C168.822 146.285 168.822 146.285 168.822 146.285H161.809L161.603 132.791Z" fill="#D4D4D4"/>
<path d="M32.1774 94.7627L34.3429 89.2427C34.3429 89.2427 47.3367 85.2558 58.4748 90.1624C61.2592 92.9224 62.8067 97.2165 62.8067 97.2165L32.1774 94.7627Z" fill="#D4D4D4"/>
<path d="M29.3929 95.3761C29.3929 95.3761 31.0428 92.5137 33.9304 92.1051C36.818 91.6964 50.0184 90.0609 58.6812 92.5137C61.9811 93.7406 63.631 95.3761 63.631 95.3761C63.631 95.3761 76.0059 99.4654 80.1312 101.918C84.2565 104.372 85.4942 123.182 86.3187 129.315C87.1432 135.449 84.6688 141.992 84.6688 141.992C84.6688 141.992 94.5692 182.065 94.5692 187.79C94.5692 193.514 91.2694 200.056 79.719 204.146C68.1685 208.235 36.818 206.599 26.0921 200.056C22.7923 193.514 17.8416 115.821 17.0171 108.46C16.1925 101.101 29.3929 95.3761 29.3929 95.3761Z" fill="#31020E"/>
<path d="M73.3256 100.283C73.3256 100.283 76.4198 98.4426 83.8449 103.35C91.2701 108.257 111.689 126.658 114.164 127.885C116.64 129.112 164.285 131.565 164.285 131.565C164.285 131.565 171.091 140.153 163.666 146.9C163.666 146.9 117.671 148.74 109.008 148.126C100.345 147.513 71.4691 130.952 71.4691 130.952C71.4691 130.952 59.713 113.777 73.3256 100.283Z" fill="#31020E"/>
<path d="M63.4085 127.348C63.4085 127.348 101.983 147.423 106.484 148.059C110.984 148.696 128.021 148.059 128.021 148.059" stroke="#31020E" stroke-width="0.8263" stroke-miterlimit="10"/>
<path d="M115.485 132.446C115.485 132.446 116.77 139.457 112.27 143.599" stroke="#31020E" stroke-width="0.8263" stroke-miterlimit="10"/>
<path d="M118.376 130.534C118.376 130.534 122.234 136.588 120.305 141.049" stroke="#31020E" stroke-width="0.8263" stroke-miterlimit="10"/>
<path d="M63.0868 119.381C63.0868 119.381 59.8718 108.228 71.1229 100.899" stroke="#31020E" stroke-width="0.8263" stroke-miterlimit="10"/>
<path d="M21.6189 108.865C21.6189 108.865 19.3685 128.622 19.3685 137.863" stroke="#31020E" stroke-width="0.8263" stroke-miterlimit="10"/>
<path d="M33.1921 95.8003C33.1921 95.8003 47.9793 94.5257 60.1941 95.8003" stroke="#31020E" stroke-width="0.8263" stroke-miterlimit="10"/>
<path d="M129.949 224.216C129.949 224.216 137.022 221.985 139.593 211.152" stroke="#31020E" stroke-width="0.8263" stroke-miterlimit="10"/>
<path d="M134.772 225.172C134.772 225.172 138.95 223.898 140.879 218.162" stroke="#31020E" stroke-width="0.8263" stroke-miterlimit="10"/>
<path d="M109.055 237.6L98.4466 290.177" stroke="#31020E" stroke-width="0.8263" stroke-miterlimit="10"/>
<path d="M62.4968 52.1336C62.4968 52.1336 63.7344 57.6537 58.7838 61.3343L59.0927 67.4678C59.0927 67.4678 60.9492 72.9878 59.7116 73.6012C58.4739 74.2147 58.1649 73.2941 58.1649 73.2941C58.1649 73.2941 54.1429 66.8534 52.9053 66.5472C51.6676 66.24 55.6896 75.1344 55.6896 75.1344C55.6896 75.1344 51.6676 81.2678 44.2424 82.1876L45.7891 80.041C45.7891 80.041 42.3859 82.1876 37.1263 81.8813C31.8666 81.5741 27.8446 73.6012 27.8446 73.6012C27.8446 73.6012 28.7724 75.7478 27.8446 76.6684C26.9168 77.5881 21.6572 69.6143 21.3473 59.494L19.8007 62.5611C19.8007 62.5611 20.1096 55.5071 22.8948 47.5333C25.6792 39.5595 38.055 33.7324 44.8613 33.7324C51.6676 33.7324 58.4739 34.3458 60.3304 33.7324C62.1869 33.1189 61.2582 38.3327 61.2582 38.3327C61.2582 38.3327 62.186 36.1861 62.4959 34.3458C63.7336 33.4261 65.5901 40.7864 64.9712 43.5464C64.3524 46.3064 64.3524 46.3064 64.3524 46.3064C64.3524 46.3064 66.5179 43.5464 66.8277 42.0124C68.0654 41.7061 67.7564 48.453 62.4968 52.1336Z" fill="#31020E"/>
<path d="M58.0079 67.4133C58.0079 67.4133 56.758 63.3075 53.3268 65.4663C49.8965 67.625 54.7693 77.2924 57.6385 76.4586C60.5086 75.6248 58.7624 68.9742 58.0079 67.4133Z" fill="#A21441"/>
<path d="M183.569 138.516L192.335 136.778L194.088 132.995" stroke="#31020E" stroke-width="1.2805" stroke-miterlimit="10"/>
<path d="M192.025 136.982C192.025 136.982 187.591 140.663 186.972 140.969C186.353 141.276 183.569 141.991 183.569 141.991" stroke="#31020E" stroke-width="1.2805" stroke-miterlimit="10"/>
<path d="M56.6183 77.7929C56.6183 77.7929 55.3807 82.0861 62.8058 84.5398" stroke="#31020E" stroke-width="1.2805" stroke-miterlimit="10"/>
<path d="M225.748 110.097H159.747L167.996 67.5703H233.998L225.748 110.097Z" fill="#D4D4D4"/>
<path d="M138.538 82.2918C138.302 83.5109 139.244 84.6414 140.496 84.6414H212.349C213.305 84.6414 214.127 83.969 214.307 83.038L215.365 77.5874H139.45L138.538 82.2918Z" fill="white"/>
<path d="M221.072 35.7284H149.219C148.263 35.7284 147.441 36.4008 147.261 37.3318L139.451 77.5885H215.365L223.03 38.0789C223.266 36.8589 222.325 35.7284 221.072 35.7284Z" fill="#979797"/>
<path d="M171.947 84.6719C172.893 82.0854 173.477 80.2365 173.477 80.2365C173.477 80.2365 175.644 69.0072 165.991 71.8878C165.991 71.8878 162.642 74.378 161.065 79.6508C160.576 81.288 159.992 83.0373 159.419 84.6719H171.947Z" fill="#A21441"/>
<path d="M191.941 84.6719C191.764 79.1354 191.417 74.6956 190.814 73.4991C189.041 70.2766 181.801 67.3474 181.801 67.3474L171.901 68.812C171.901 68.812 167.764 69.9833 166.434 72.9134C165.988 73.8982 164.907 78.6876 163.752 84.6727L191.941 84.6719Z" fill="#31020E"/>
<path d="M173.591 60.7029C173.591 60.7029 172.993 65.0924 171.676 68.2958C171.676 68.2958 171.317 70.7868 176.583 69.7196C181.849 68.6515 181.131 66.0416 181.131 66.0416V55.7208L173.591 60.7029Z" fill="#FDC4B1"/>
<path d="M166.199 49.85C166.199 49.85 166.258 59.6641 169.099 64.392C171.039 66.3807 177.652 63.2571 180.434 59.0377C183.217 54.8182 183.163 48.4705 180.961 44.9365C178.759 41.4025 171.506 42.4654 169.381 43.6862C167.256 44.9061 166.079 48.2804 166.199 49.85Z" fill="#FDC4B1"/>
<path d="M179.559 55.3937C179.559 55.3937 181.426 52.5417 182.675 54.2397C183.924 55.9377 179.599 59.411 179.268 58.0895C178.938 56.7681 179.559 55.3937 179.559 55.3937Z" fill="white"/>
<path d="M166.199 49.8504C166.199 49.8504 162.726 46.8231 166.915 42.9083C169.309 41.1287 170.506 42.4336 173.019 41.959C175.532 41.4844 180.08 41.959 181.755 44.569C183.43 47.1789 182.832 53.229 182.354 53.8225C181.875 54.416 180.439 54.7717 180.439 55.839C180.439 56.9071 180.2 57.7374 179.84 57.7374C179.481 57.7374 179.481 55.9578 179.481 54.6529C179.481 53.3479 179.242 50.8569 178.643 49.0773C178.045 47.2977 175.293 47.4166 174.215 47.6535C173.139 47.8903 172.425 50.6235 166.199 49.8504Z" fill="#31020E"/>
<path opacity="0.53" d="M179.24 52.7986C179.24 52.7986 179.318 52.7596 179.438 52.7101C179.437 52.7067 179.437 52.7006 179.437 52.7006L179.24 52.7986Z" fill="#A21441"/>
<path d="M179.437 52.7101C179.459 52.9044 180.086 58.5867 177.811 60.1702C175.447 61.7328 175.349 59.7311 173.477 59.4379C171.605 59.1446 170.078 59.2427 169.241 60.4635C168.502 61.6843 168.65 62.2213 167.961 61.8795C167.813 62.2699 168.847 64.6621 170.424 65.2972C172 65.9314 175.743 63.9792 177.417 62.5146C179.092 61.05 180.126 60.1225 180.421 58.8531C180.717 57.5837 180.569 55.1421 180.914 53.4337C181.112 52.1426 179.921 52.5114 179.437 52.7101ZM170.817 63.1974C168.552 62.709 168.847 60.9519 171.162 60.2196C171.162 60.2196 173.625 59.0969 174.462 60.8053C174.807 61.9281 173.083 63.6859 170.817 63.1974Z" fill="#31020E"/>
<path d="M181.135 65.2974C181.135 65.2974 178.254 68.886 173.526 69.325C172.565 68.9589 172.048 67.201 172.048 67.201L171.309 68.2995C171.309 68.2995 170.94 70.4964 171.309 71.3753C171.752 71.4482 173.378 70.3497 173.378 70.3497C173.378 70.3497 174.486 71.8881 175.298 72.1805C176.11 72.4729 181.282 69.0318 181.799 67.3468C181.801 67.3477 181.764 66.139 181.135 65.2974Z" fill="white"/>
<path d="M192.695 84.6719C192.438 79.2143 192.109 75.0426 191.799 74.1828C190.617 71.4488 186.184 67.9339 181.801 67.3474C181.801 67.3474 180.154 74.8812 178.534 84.6719H192.695Z" fill="#A21441"/>
<path d="M167.195 84.6721C169.517 74.904 171.31 69.1054 171.31 69.1054C169.98 69.2521 167.616 70.2768 165.991 71.888C165.108 73.6372 163.738 78.661 162.322 84.6721H167.195Z" fill="#A21441"/>
<path d="M191.81 84.6721C191.971 79.447 191.676 74.6159 190.815 73.4992C188.008 71.1557 185.053 71.3023 183.575 73.9391C182.767 75.3803 181.695 80.4084 180.889 84.6729L191.81 84.6721Z" fill="#A21441"/>
<path d="M173.378 70.3497C172.541 73.7327 171.846 77.1539 171.219 80.5812" stroke="#A21441" stroke-width="0.3595" stroke-miterlimit="10"/>
<path d="M227.616 43.4991C234.58 37.4032 236.338 28.0975 231.543 22.7141C226.748 17.3307 217.214 17.9083 210.25 24.0041C203.286 30.1 201.527 39.4057 206.323 44.7891C211.118 50.1725 220.651 49.5949 227.616 43.4991Z" fill="#A21441"/>
<path d="M236.801 49.5605C236.24 51.786 233.966 53.5908 231.721 53.5908C229.476 53.5908 228.11 51.786 228.669 49.5605C229.229 47.3349 231.503 45.5302 233.749 45.5302C235.994 45.5302 237.36 47.3341 236.801 49.5605Z" fill="#A21441"/>
<path d="M215.097 41.2248C214.629 41.2248 214.207 41.0478 213.939 40.6947L210.1 35.625C209.564 34.9178 209.852 33.7717 210.744 33.0645C211.635 32.3574 212.791 32.3574 213.327 33.0645L216.197 36.8536L226.449 28.7193C227.34 28.0121 228.497 28.0121 229.032 28.7193C229.568 29.4264 229.28 30.5726 228.388 31.2797L216.523 40.6947C216.075 41.0478 215.563 41.2248 215.097 41.2248Z" fill="white"/>
<path d="M109.771 9.19434H104.912C103.692 9.19434 102.95 8.21389 103.255 7.00524L104.466 2.18887C104.771 0.979359 106.006 -0.000228882 107.225 -0.000228882H112.084C113.304 -0.000228882 114.046 0.980227 113.742 2.18887L112.53 7.00524C112.226 8.21475 110.991 9.19434 109.771 9.19434Z" fill="white"/>
<path d="M106.22 23.3154H101.361C100.142 23.3154 99.3991 22.3349 99.7037 21.1263L100.915 16.3099C101.22 15.1013 102.455 14.1208 103.674 14.1208H108.533C109.752 14.1208 110.495 15.1013 110.191 16.3099L108.979 21.1263C108.675 22.3349 107.44 23.3154 106.22 23.3154Z" stroke="#979797" stroke-width="0.75" stroke-miterlimit="10"/>
<path d="M121.679 23.3153H116.82C115.6 23.3153 114.858 22.3348 115.162 21.1262L116.374 16.3098C116.678 15.1011 117.913 14.1207 119.133 14.1207H123.992C125.212 14.1207 125.954 15.1011 125.649 16.3098L124.438 21.1262C124.134 22.3348 122.899 23.3153 121.679 23.3153Z" fill="#A21441"/>
<path d="M137.139 23.3153H132.28C131.06 23.3153 130.318 22.3348 130.622 21.1262L131.834 16.3098C132.138 15.1011 133.373 14.1207 134.593 14.1207H139.451C140.671 14.1207 141.414 15.1011 141.109 16.3098L139.898 21.1262C139.594 22.3348 138.359 23.3153 137.139 23.3153Z" fill="white"/>
<path d="M102.586 37.7643H97.7269C96.5076 37.7643 95.7645 36.7839 96.0691 35.5752L97.2805 30.7589C97.5851 29.5494 98.8201 28.5698 100.039 28.5698H104.898C106.118 28.5698 106.861 29.5502 106.556 30.7589L105.345 35.5752C105.041 36.7839 103.805 37.7643 102.586 37.7643Z" fill="#A21441"/>
<path d="M98.7044 53.1984H93.8457C92.6255 53.1984 91.8832 52.2179 92.1878 51.0093L93.3992 46.1929C93.703 44.9843 94.9389 44.0038 96.1582 44.0038H101.017C102.236 44.0038 102.979 44.9843 102.675 46.1929L101.463 51.0093C101.159 52.2188 99.9237 53.1984 98.7044 53.1984Z" fill="white"/>
<path d="M118.045 37.7643H113.186C111.966 37.7643 111.224 36.7839 111.529 35.5752L112.74 30.7589C113.044 29.5494 114.28 28.5698 115.499 28.5698H120.358C121.577 28.5698 122.32 29.5502 122.016 30.7589L120.804 35.5752C120.5 36.7839 119.265 37.7643 118.045 37.7643Z" fill="#D4D4D4"/>
<path d="M111.273 64.6923H106.414C105.194 64.6923 104.451 63.7119 104.756 62.5032L105.967 57.6869C106.272 56.4782 107.507 55.4978 108.726 55.4978H113.585C114.805 55.4978 115.548 56.4782 115.243 57.6869L114.032 62.5032C113.728 63.7119 112.493 64.6923 111.273 64.6923Z" stroke="#979797" stroke-width="0.75" stroke-miterlimit="10"/>
<path d="M257.441 45.9821H255.657C255.209 45.9821 254.937 45.6221 255.049 45.1787L255.493 43.4104C255.605 42.9662 256.059 42.6069 256.506 42.6069H258.29C258.738 42.6069 259.01 42.967 258.898 43.4104L258.453 45.1787C258.341 45.6229 257.888 45.9821 257.441 45.9821Z" fill="#979797"/>
<path d="M256.137 51.1666H254.353C253.905 51.1666 253.633 50.8065 253.745 50.3631L254.189 48.5948C254.301 48.1506 254.755 47.7914 255.202 47.7914H256.986C257.434 47.7914 257.706 48.1515 257.594 48.5948L257.15 50.3631C257.038 50.8065 256.585 51.1666 256.137 51.1666Z" fill="#979797"/>
<path d="M261.812 51.1666H260.028C259.58 51.1666 259.308 50.8065 259.42 50.3632L259.865 48.5949C259.977 48.1506 260.43 47.7914 260.877 47.7914H262.661C263.109 47.7914 263.382 48.1515 263.269 48.5949L262.825 50.3632C262.714 50.8065 262.26 51.1666 261.812 51.1666Z" fill="#979797"/>
<path d="M267.488 51.1666H265.704C265.256 51.1666 264.983 50.8065 265.095 50.3632L265.54 48.5949C265.652 48.1506 266.105 47.7914 266.553 47.7914H268.337C268.785 47.7914 269.057 48.1515 268.945 48.5949L268.5 50.3632C268.389 50.8065 267.936 51.1666 267.488 51.1666Z" fill="#979797"/>
<path d="M254.803 56.4702H253.019C252.571 56.4702 252.299 56.1101 252.411 55.6667L252.855 53.8984C252.967 53.4542 253.421 53.095 253.868 53.095H255.652C256.1 53.095 256.372 53.455 256.26 53.8984L255.816 55.6667C255.704 56.1101 255.251 56.4702 254.803 56.4702Z" fill="#979797"/>
<path d="M253.378 62.136H251.594C251.146 62.136 250.873 61.7759 250.985 61.3326L251.43 59.5643C251.542 59.12 251.996 58.7608 252.443 58.7608H254.227C254.675 58.7608 254.947 59.1209 254.835 59.5643L254.39 61.3326C254.278 61.7768 253.825 62.136 253.378 62.136Z" fill="#979797"/>
<path d="M260.478 56.4702H258.694C258.246 56.4702 257.974 56.1101 258.086 55.6667L258.53 53.8984C258.642 53.4542 259.096 53.095 259.543 53.095H261.327C261.775 53.095 262.047 53.455 261.935 53.8984L261.491 55.6667C261.379 56.1101 260.925 56.4702 260.478 56.4702Z" fill="#979797"/>
<path d="M257.991 66.3554H256.207C255.759 66.3554 255.487 65.9954 255.599 65.552L256.044 63.7837C256.156 63.3395 256.609 62.9803 257.057 62.9803H258.84C259.289 62.9803 259.561 63.3403 259.449 63.7837L259.004 65.552C258.893 65.9962 258.44 66.3554 257.991 66.3554Z" fill="#979797"/>
<path opacity="0.9" d="M256.869 112.976H198.226C197.61 112.976 197.159 112.399 197.315 111.807L202.789 90.9573C202.897 90.546 203.272 90.2588 203.7 90.2588H262.344C262.96 90.2588 263.411 90.8358 263.255 91.4276L257.781 112.277C257.673 112.689 257.298 112.976 256.869 112.976Z" fill="white"/>
<path d="M206.269 94.7186H226.675" stroke="#A21441" stroke-width="1.076" stroke-miterlimit="10" stroke-linecap="round" stroke-linejoin="round"/>
<path d="M204.699 104.054H225.105" stroke="#A21441" stroke-width="1.076" stroke-miterlimit="10" stroke-linecap="round" stroke-linejoin="round"/>
<path d="M213.281 100.527H233.686" stroke="#A21441" stroke-width="1.076" stroke-miterlimit="10" stroke-linecap="round" stroke-linejoin="round"/>
<path d="M205.745 97.8306H211.867" stroke="#A21441" stroke-width="1.076" stroke-miterlimit="10" stroke-linecap="round" stroke-linejoin="round"/>
<path d="M204.908 100.527H211.03" stroke="#A21441" stroke-width="1.076" stroke-miterlimit="10" stroke-linecap="round" stroke-linejoin="round"/>
<path d="M229.919 94.7186H237.192" stroke="#A21441" stroke-width="1.076" stroke-miterlimit="10" stroke-linecap="round" stroke-linejoin="round"/>
<path d="M233.482 108.434H222.621C222.566 108.434 222.527 108.383 222.541 108.33L223.027 106.479C223.036 106.443 223.069 106.417 223.108 106.417H233.968C234.023 106.417 234.062 106.468 234.049 106.521L233.563 108.372C233.554 108.409 233.52 108.434 233.482 108.434Z" stroke="white" stroke-width="0.3587" stroke-miterlimit="10"/>
<path d="M219.983 108.434H209.123C209.068 108.434 209.028 108.383 209.042 108.33L209.528 106.479C209.538 106.443 209.571 106.417 209.609 106.417H220.469C220.524 106.417 220.564 106.468 220.55 106.521L220.064 108.372C220.054 108.409 220.021 108.434 219.983 108.434Z" stroke="white" stroke-width="0.3587" stroke-miterlimit="10"/>
<path d="M252.571 105.751C252.014 105.016 249.756 104.482 249.132 103.747C248.813 103.371 248.813 102.674 248.89 102.081C249.112 101.94 249.297 101.8 249.406 101.669C249.593 101.397 249.805 101.018 250.017 100.602C250.081 100.664 250.167 100.712 250.277 100.709C250.574 100.7 251.702 99.1768 251.411 98.8246C251.245 98.6224 250.976 98.7977 250.777 98.9851C251.075 98.3066 251.285 97.7868 251.285 97.7868H251.274C251.302 97.701 251.328 97.6151 251.35 97.5283C251.798 95.7479 250.705 94.3041 248.909 94.3041C247.113 94.3041 245.294 95.7479 244.846 97.5283C244.824 97.6159 244.806 97.7018 244.792 97.7868H244.781C244.781 97.7868 244.729 98.3066 244.687 98.9851C244.581 98.7985 244.401 98.6233 244.133 98.8246C243.665 99.1777 244.027 100.7 244.32 100.709C244.428 100.713 244.538 100.664 244.633 100.602C244.636 101.018 244.656 101.397 244.707 101.669C244.761 101.828 244.917 102.004 245.122 102.175C244.899 102.746 244.559 103.391 244.077 103.747C243.084 104.482 240.556 105.016 239.63 105.751C238.797 106.412 238.053 108.343 237.912 108.725H252.794C252.843 108.343 253.072 106.412 252.571 105.751Z" fill="#A21441"/>
<path d="M177.354 105.54H129.234C125.01 105.54 122.439 102.145 123.492 97.9573C124.545 93.77 128.823 90.3748 133.048 90.3748H181.169C185.393 90.3748 187.964 93.77 186.911 97.9573C185.858 102.145 181.579 105.54 177.354 105.54Z" fill="white"/>
<path d="M134.339 99.9372L132.276 100.888C132.081 100.977 131.917 100.833 131.997 100.643L132.852 98.6296C132.885 98.5541 132.879 98.4778 132.837 98.424L131.72 96.9975C131.615 96.863 131.75 96.6297 131.949 96.6019L134.063 96.3077C134.142 96.2965 134.22 96.2496 134.271 96.1811L135.644 94.3494C135.773 94.1768 136.021 94.1768 136.064 94.3494L136.515 96.1811C136.532 96.2496 136.586 96.2973 136.66 96.3077L138.626 96.6019C138.81 96.6297 138.829 96.863 138.656 96.9975L136.821 98.424C136.753 98.4769 136.708 98.5541 136.702 98.6296L136.544 100.643C136.529 100.833 136.292 100.977 136.143 100.888L134.558 99.9372C134.497 99.9016 134.416 99.9016 134.339 99.9372Z" fill="#A21441"/>
<path d="M144.498 99.9371L142.435 100.888C142.241 100.977 142.076 100.833 142.157 100.643L143.012 98.6295C143.044 98.554 143.038 98.4777 142.996 98.4239L141.879 96.9974C141.774 96.863 141.91 96.6296 142.109 96.6018L144.223 96.3077C144.301 96.2964 144.379 96.2495 144.431 96.181L145.803 94.3493C145.933 94.1767 146.181 94.1767 146.224 94.3493L146.675 96.181C146.692 96.2495 146.746 96.2972 146.82 96.3077L148.786 96.6018C148.97 96.6296 148.989 96.863 148.816 96.9974L146.982 98.4239C146.913 98.4768 146.869 98.554 146.863 98.6295L146.704 100.643C146.689 100.832 146.452 100.977 146.303 100.888L144.718 99.9371C144.657 99.9015 144.575 99.9015 144.498 99.9371Z" fill="#A21441"/>
<path d="M154.658 99.9371L152.595 100.888C152.4 100.977 152.236 100.833 152.316 100.643L153.171 98.6295C153.203 98.554 153.198 98.4777 153.156 98.4239L152.039 96.9974C151.934 96.863 152.069 96.6296 152.268 96.6018L154.382 96.3077C154.461 96.2964 154.539 96.2495 154.59 96.181L155.963 94.3493C156.092 94.1767 156.34 94.1767 156.382 94.3493L156.834 96.181C156.85 96.2495 156.905 96.2972 156.978 96.3077L158.944 96.6018C159.129 96.6296 159.147 96.863 158.974 96.9974L157.139 98.4239C157.071 98.4768 157.026 98.554 157.02 98.6295L156.862 100.643C156.847 100.832 156.61 100.977 156.461 100.888L154.876 99.9371C154.816 99.9015 154.735 99.9015 154.658 99.9371Z" fill="#A21441"/>
<path d="M164.817 99.9371L162.754 100.888C162.56 100.977 162.395 100.833 162.475 100.643L163.331 98.6295C163.363 98.554 163.357 98.4777 163.315 98.4239L162.198 96.9974C162.093 96.863 162.229 96.6296 162.427 96.6018L164.54 96.3077C164.619 96.2964 164.698 96.2495 164.749 96.181L166.122 94.3493C166.252 94.1767 166.499 94.1767 166.541 94.3493L166.993 96.181C167.01 96.2495 167.064 96.2972 167.137 96.3077L169.103 96.6018C169.288 96.6296 169.306 96.863 169.134 96.9974L167.299 98.4239C167.231 98.4768 167.186 98.554 167.18 98.6295L167.022 100.643C167.007 100.832 166.77 100.977 166.621 100.888L165.036 99.9371C164.976 99.9015 164.895 99.9015 164.817 99.9371Z" fill="#A21441"/>
<path d="M174.977 99.9371L172.914 100.888C172.72 100.977 172.555 100.833 172.636 100.643L173.491 98.6295C173.523 98.554 173.517 98.4777 173.475 98.4239L172.358 96.9974C172.253 96.863 172.389 96.6296 172.588 96.6018L174.701 96.3077C174.779 96.2964 174.857 96.2495 174.909 96.181L176.281 94.3493C176.411 94.1767 176.659 94.1767 176.702 94.3493L177.153 96.181C177.17 96.2495 177.224 96.2972 177.298 96.3077L179.264 96.6018C179.448 96.6296 179.467 96.863 179.293 96.9974L177.459 98.4239C177.39 98.4768 177.346 98.554 177.34 98.6295L177.181 100.643C177.166 100.832 176.929 100.977 176.78 100.888L175.195 99.9371C175.137 99.9015 175.055 99.9015 174.977 99.9371Z" fill="#979797"/>
<path d="M59.0286 76.2837C61.2258 76.2837 63.0069 73.8228 63.0069 70.7871C63.0069 67.7514 61.2258 65.2905 59.0286 65.2905C56.8315 65.2905 55.0504 67.7514 55.0504 70.7871C55.0504 73.8228 56.8315 76.2837 59.0286 76.2837Z" fill="#31020E"/>
<path d="M59.631 71.2648C59.631 71.2648 70.7211 83.4528 70.7211 85.3651C70.7211 87.2765 67.1043 87.0379 67.1043 87.0379" stroke="#31020E" stroke-width="1.1018" stroke-miterlimit="10"/>
<path d="M67.949 87.0382C67.949 87.8303 67.3012 88.4724 66.5021 88.4724C65.703 88.4724 65.0552 87.8303 65.0552 87.0382C65.0552 86.246 65.703 85.6039 66.5021 85.6039C67.3012 85.6039 67.949 86.246 67.949 87.0382Z" fill="#31020E"/>
<path d="M39.9122 229.703C43.851 236.439 56.2076 241.357 70.8504 241.357C85.4933 241.357 97.8498 236.439 101.789 229.703H39.9122Z" fill="#A21441"/>
<path d="M123.445 195.15L116.02 229.09H111.482L115.607 195.969L123.445 195.15Z" fill="#979797"/>
<path d="M137.058 198.013H70.5894V189.834H130.457C134.103 189.834 137.057 192.763 137.057 196.376L137.058 198.013Z" fill="#A21441"/>
<path d="M16.1925 225.41L0.105421 148.716C-0.533546 145.669 1.81312 142.809 4.95194 142.809H58.1849C61.1171 142.809 63.6458 144.849 64.2428 147.694L80.5435 225.409" fill="#979797"/>
<path d="M125.514 233.823H24.4242C21.0132 233.823 18.0109 231.591 17.056 228.344L16.1929 225.41H125.515V233.823H125.514Z" fill="#979797"/>
<path d="M75.8005 237.677H67.7565V308.827H75.8005V237.677Z" fill="#D4D4D4"/>
<path d="M75.8005 250.864L67.7565 257.305V237.677H75.8005V250.864Z" fill="#A21441"/>
<path d="M75.5534 298.223H72.6115H71.8762H68.9344L38.7804 310.091H105.707L75.5534 298.223Z" fill="#D4D4D4"/>
<path d="M7.19647 148.056H55.0454" stroke="#A21441" stroke-miterlimit="10"/>
<path d="M60.0059 153.551L68.175 194.331" stroke="#A21441" stroke-miterlimit="10"/>
<path d="M69.6343 201.562L71.3849 213.42" stroke="#A21441" stroke-miterlimit="10"/>
<path d="M292.697 79.5111H254.168C252.181 79.5111 250.663 77.7515 250.973 75.8053L251.264 73.9745C251.513 72.4162 252.868 71.2683 254.459 71.2683H292.989C294.976 71.2683 296.494 73.0288 296.184 74.9741L295.892 76.8048C295.644 78.3632 294.289 79.5111 292.697 79.5111Z" fill="#979797"/>
<path d="M255.781 75.4616H289.042" stroke="white" stroke-width="2" stroke-miterlimit="10"/>
<path d="M152.353 32.0789H141.85C136.855 32.0789 131.944 36.0927 130.882 41.0445C129.821 45.9962 133.009 50.01 138.005 50.01H140.285C142.833 55.9899 148.851 55.2159 148.851 55.2159C147.713 52.9678 147.47 51.1683 147.478 50.01H148.508C153.504 50.01 158.414 45.9962 159.476 41.0445C160.538 36.0936 157.349 32.0789 152.353 32.0789Z" fill="#A21441"/>
<path d="M137.382 39.3102H147.302" stroke="white" stroke-width="2" stroke-miterlimit="10"/>
<path d="M136.545 43.2145H152.664" stroke="white" stroke-width="2" stroke-miterlimit="10"/>
</svg>
