<svg width="985" height="228" viewBox="0 0 985 228" fill="none" xmlns="http://www.w3.org/2000/svg">
<g clip-path="url(#clip0_751_4144)">
<path d="M684.486 193C684.821 188.695 685 184.337 685 179.795C685 82.074 598.602 3 492.011 3C385.421 3 299 82.233 299 179.795C299 184.214 299.179 188.616 299.536 193H684.486Z" fill="#A21441" fill-opacity="0.2"/>
<path d="M793 227.5H657H193.5L283 99.5L329 127L426 58L537.5 106L625.5 1.5L793 227.5Z" fill="#D4D4D4"/>
<path d="M613.754 142.681L619.41 145.502" stroke="white" stroke-miterlimit="10" stroke-linecap="round" stroke-linejoin="round"/>
<path d="M544.285 108.042L605.811 138.721" stroke="white" stroke-miterlimit="10" stroke-linecap="round" stroke-linejoin="round"/>
<path d="M319.95 136.647L277.17 167.297" stroke="white" stroke-miterlimit="10" stroke-linecap="round" stroke-linejoin="round"/>
<path d="M643.651 71V38.739L649.513 40.312L650 33.46L625.724 0L595 37.418L611.996 27.722L615.513 38.739L624.892 34.017L643.651 71Z" fill="white"/>
<path d="M455.964 83.753L459.462 72.336L425.903 58L400 76.396L419.328 71.49L431.54 83.753L432.479 74.556L455.964 83.753Z" fill="white"/>
<path d="M277.262 53.0191C272.76 50.5641 270.714 52.6101 269.077 50.5641C267.44 48.5181 273.578 43.1981 261.301 37.8781C261.301 37.8781 260.483 26.4201 243.704 26.0101C226.926 25.6011 231.427 37.4691 226.926 40.3331C222.425 43.1981 221.197 38.6961 216.695 41.5611C212.193 44.4261 214.24 50.1551 210.557 50.9731C206.874 51.7911 201.963 47.2901 197.462 50.1541C192.96 53.0191 192.96 55.4741 190.914 55.4741C188.868 55.4741 184.775 53.8371 182.32 55.4741C179.865 57.1111 177 59.1571 177 59.1571H280.535C280.535 59.1571 281.764 55.4751 277.262 53.0191Z" fill="white"/>
<path d="M29.7106 127.668C33.2706 126.336 34.8887 127.446 36.1827 126.336C37.4777 125.225 32.6227 122.337 42.3327 119.449C42.3327 119.449 42.9796 113.228 56.2486 113.006C69.5186 112.783 65.9587 119.226 69.5187 120.781C73.0777 122.336 74.0497 119.892 77.6087 121.448C81.1687 123.002 79.5517 126.113 82.4637 126.557C85.3757 127.002 89.2597 124.558 92.8197 126.113C96.3787 127.667 96.3787 129.001 97.9977 129.001C99.6147 129.001 102.853 128.112 104.794 129.001C106.735 129.89 109.001 131 109.001 131H27.1207C27.1207 131 26.1506 129.001 29.7106 127.668Z" fill="white"/>
<path d="M701.115 58.668C703.893 57.336 705.157 58.446 706.166 57.336C707.177 56.225 703.388 53.337 710.966 50.449C710.966 50.449 711.472 44.228 721.828 44.006C732.184 43.783 729.406 50.226 732.184 51.781C734.963 53.337 735.721 50.892 738.499 52.448C741.277 54.002 740.015 57.113 742.288 57.557C744.561 58.002 747.592 55.558 750.371 57.113C753.149 58.667 753.149 60.001 754.412 60.001C755.676 60.001 758.201 59.112 759.716 60.001C761.232 60.89 763 62 763 62H699.094C699.094 62 698.337 60.002 701.115 58.668Z" fill="white"/>
<path d="M951.6 115.704C945.83 113.187 943.21 115.285 941.11 113.187C939.01 111.088 946.88 105.633 931.13 100.179C931.13 100.179 930.08 88.4291 908.56 88.0111C887.04 87.5921 892.81 99.7601 887.04 102.697C881.27 105.634 879.69 101.018 873.92 103.956C868.14 106.894 870.77 112.768 866.04 113.607C861.32 114.446 855.02 109.83 849.25 112.768C843.47 115.706 843.47 118.223 840.85 118.223C838.22 118.223 832.97 116.545 829.82 118.223C826.68 119.901 823 122 823 122H955.81C955.8 121.997 957.38 118.222 951.6 115.704Z" fill="white"/>
<path d="M662.303 131.498C656.896 128.624 618.65 138.897 615.41 144.094C612.17 149.291 613.802 163.996 613.802 163.996L620.431 162.215C620.431 162.215 618.354 151.46 622.657 148.637C628.436 144.844 651.406 138.675 658.308 139.061C663.446 139.348 667.037 149.696 667.037 149.696L673.667 147.915C673.667 147.916 667.711 134.372 662.303 131.498Z" fill="#A21441"/>
<path d="M609.383 171.76C609.383 171.76 609.863 165.208 611.832 163.907C613.8 162.606 620.389 160.55 621.496 160.77C625.649 161.596 626.966 167.037 626.966 167.037L609.383 171.76Z" fill="#D4D4D4"/>
<path d="M681.379 152.421C681.379 152.421 677.681 146.992 675.325 146.852C672.97 146.712 666.237 148.234 665.389 148.98C662.21 151.775 663.796 157.144 663.796 157.144L681.379 152.421Z" fill="#D4D4D4"/>
<path d="M733.995 157.981C727.775 138.328 707.866 144.911 707.866 144.911L582.699 178.531C582.699 178.531 562.171 182.809 566.635 202.934C571.181 223.429 588.995 304.785 610.894 300.758C627.941 297.622 728.385 270.643 744.708 264.815C765.677 257.328 740.33 177.995 733.995 157.981Z" fill="#31020E"/>
<path d="M710.522 152.945L710.292 153.021L584.893 186.702L584.734 186.75L584.498 186.799C584.462 186.806 580.826 187.657 577.905 190.093C575.764 191.88 573.485 194.745 574.895 201.102L575.03 201.71C577.308 211.986 582.642 236.048 589.927 257.326C601.43 290.93 609.246 292.441 609.32 292.441L609.362 292.436C625.811 289.409 726.114 262.467 741.862 256.845C741.992 256.798 753.702 248.263 726.119 161.138L725.927 160.534C724.128 154.848 720.853 152.313 715.309 152.313C712.63 152.313 710.526 152.945 710.522 152.945ZM710.522 152.945C710.521 152.945 710.521 152.945 710.522 152.945Z" stroke="#A21441" stroke-width="0.75" stroke-miterlimit="10" stroke-linecap="round" stroke-linejoin="round" stroke-dasharray="7 7"/>
<path d="M733.995 157.981C728.421 140.37 711.856 143.826 708.473 144.734C708.081 144.84 707.866 144.911 707.866 144.911L582.7 178.531C582.7 178.531 582.478 178.577 582.086 178.682C578.704 179.591 562.635 184.899 566.635 202.934C571.181 223.429 588.995 304.785 610.894 300.758C619.417 299.19 648.789 291.661 678.072 283.796C707.354 275.931 736.547 267.728 744.708 264.815C765.677 257.328 740.33 177.995 733.995 157.981ZM676.91 279.472C655.385 285.254 636.324 290.185 623.727 293.254C619.652 290.843 609.138 285.484 598.951 287.327C594.939 281.105 590.822 271.994 586.709 260.216C579.458 239.455 574.085 215.825 571.529 204.324C574.341 203.328 581.802 200.393 584.587 196.412C587.156 192.74 585.959 185.824 585.171 182.503L707.715 149.587C708.698 152.856 711.126 159.44 715.19 161.332C719.594 163.381 727.522 162.183 730.455 161.636C734.005 172.869 741.195 196.012 745.323 217.613C747.664 229.866 748.667 239.814 748.312 247.208C738.573 250.718 732.16 260.624 729.84 264.752C717.402 268.407 698.435 273.691 676.91 279.472Z" fill="#A21441"/>
<path d="M597.106 174.789C598.907 183.432 615.712 262.197 636.612 294.821C636.737 295.016 636.974 295.105 637.199 295.044L644.353 293.123C644.671 293.037 644.839 292.692 644.699 292.393C641.974 286.526 618.903 235.719 607.199 172.203C607.11 171.72 606.629 171.414 606.155 171.541L597.713 173.809C597.281 173.925 597.015 174.352 597.106 174.789Z" fill="#D4D4D4"/>
<path d="M693.523 148.891C696.296 157.274 721.217 233.857 719.476 272.563C719.466 272.795 719.305 272.991 719.081 273.051L711.926 274.972C711.608 275.058 711.29 274.843 711.261 274.514C710.68 268.072 705.188 212.542 683.493 151.711C683.328 151.248 683.59 150.742 684.064 150.615L692.507 148.348C692.939 148.231 693.384 148.467 693.523 148.891Z" fill="#D4D4D4"/>
<path d="M632.841 187.798L625.335 186.692C623.809 186.465 622.336 187.351 621.822 188.805L619.279 195.953C618.964 196.863 619.067 197.868 619.561 198.69L630.936 217.608C631.856 219.138 633.837 219.631 635.358 218.717L645.407 212.674C646.928 211.76 647.431 209.773 646.51 208.243L635.135 189.325C634.642 188.504 633.793 187.947 632.841 187.798ZM626.827 193.151C625.892 193.713 624.677 193.403 624.114 192.467C623.552 191.532 623.853 190.323 624.788 189.76C625.724 189.198 626.933 189.499 627.496 190.435C628.058 191.37 627.762 192.589 626.827 193.151Z" fill="#A21441"/>
<path d="M634.747 164.73C632.719 162.354 628.97 162.134 626.222 163.125C623.307 164.177 621.452 167.173 620.652 170.04C619.242 175.096 620.556 180.748 623.009 185.256C623.76 186.636 624.588 187.938 625.458 189.247C625.616 189.486 625.824 189.736 625.841 190.034C625.888 190.866 624.899 191.165 624.364 190.636C624.126 190.402 623.969 190.049 623.793 189.772C623.294 188.988 622.759 188.216 622.328 187.391C621.503 185.814 620.686 184.221 620.109 182.533C618.613 178.152 618.119 173.283 619.724 168.863C621.073 165.145 623.87 162.146 627.926 161.624C629.784 161.384 631.74 161.655 633.4 162.551C634.06 162.908 634.787 163.375 635.267 163.964C635.353 164.07 635.452 164.143 635.488 164.278C635.601 164.702 635.109 165.151 634.747 164.73Z" fill="#D4D4D4"/>
<mask id="mask0_751_4144" style="mask-type:luminance" maskUnits="userSpaceOnUse" x="177" y="-126" width="746" height="359">
<path d="M922.983 -126H177V232.642H922.983V-126Z" fill="white"/>
</mask>
<g mask="url(#mask0_751_4144)">
<path d="M231.857 151.291C231.857 151.291 240.43 109.567 241.536 105.384L246.985 106.131L239.293 153.316L231.857 151.291Z" fill="black"/>
<path d="M288.723 166.782C288.723 166.782 302.496 126.475 303.664 122.309L298.589 120.189L281.287 164.756L288.723 166.782Z" fill="black"/>
<path d="M326.077 187.633C316.748 158.547 263.899 145.789 263.899 145.789C263.899 145.789 211.882 129.981 189.089 150.317C166.297 170.653 153.479 269.863 159.723 289.788C164.45 304.877 216.375 320.249 216.375 320.249C216.375 320.249 268.922 333.336 280.649 322.73C296.136 308.724 335.406 216.719 326.077 187.633Z" fill="#A21441"/>
<path d="M217.69 315.413C216.287 314.991 204.029 311.255 191.463 305.944C167.901 295.984 164.941 289.838 164.587 288.708C160.209 274.742 166.525 212.172 180.45 175.201C185.393 162.064 189.761 156.332 192.557 153.838C198.415 148.61 207.446 145.647 219.401 145.033C237.101 144.111 255.546 148.688 260.777 150.114C261.789 150.389 262.361 150.562 262.407 150.575L262.579 150.628L262.757 150.671C262.801 150.682 263.385 150.824 264.4 151.101C287.032 157.266 315.515 170.868 321.306 188.913C324.913 200.161 319.739 227.03 307.804 259.032C296.375 289.677 283.171 313.756 277.008 319.332C276.13 320.125 270.457 323.921 245.098 320.554C231.573 318.758 219.113 315.761 217.69 315.413Z" stroke="black" stroke-width="0.75" stroke-miterlimit="10" stroke-linecap="round" stroke-linejoin="round" stroke-dasharray="7 7"/>
<path d="M219.371 140.066L215.073 151.018C215.073 151.018 204.647 150.347 196.904 155.586C187.968 161.63 185.087 175.336 185.087 175.336L175.482 173.818C179.46 163.246 184.03 154.833 189.092 150.314C196.86 143.38 208.033 140.648 219.371 140.066Z" fill="black"/>
<path d="M305.18 163.441L303.33 175.06C303.33 175.06 312.656 179.77 316.671 188.212C321.308 197.953 316.839 211.227 316.839 211.227L325.887 214.789C327.821 203.661 328.149 194.091 326.078 187.629C322.9 177.715 314.656 169.693 305.18 163.441Z" fill="black"/>
<g opacity="0.5">
<path d="M256.86 171.621C256.731 171.576 246.733 168.772 244.224 177.982C241.699 187.254 217.425 287.309 216.603 292.46C215.414 299.916 227.512 303.211 230.268 296.182C232.172 291.326 261.998 192.783 264.524 183.512C267.033 174.301 256.994 171.647 256.86 171.621Z" fill="#D4D4D4"/>
<path d="M215.581 162.965C215.454 162.928 205.693 160.722 203.819 169.734C201.932 178.805 184.429 276.545 183.939 281.555C183.229 288.807 195.035 291.381 197.273 284.463C198.82 279.683 221.741 183.124 223.628 174.054C225.502 165.043 215.711 162.984 215.581 162.965Z" fill="#D4D4D4"/>
<path d="M296.481 185.002C296.609 185.034 306.14 188.084 303.185 196.801C300.211 205.576 265.723 298.69 263.605 303.257C260.539 309.867 249.059 306.098 250.639 299C251.73 294.096 280.949 199.253 283.923 190.478C286.876 181.76 296.359 184.952 296.481 185.002Z" fill="#D4D4D4"/>
</g>
<path d="M303.541 113.045C296.44 102.797 277.052 97.516 277.052 97.516C277.052 97.516 257.663 92.2346 246.346 97.4644C240.054 100.372 238.249 112.841 237.901 115.854C237.858 116.224 238.111 116.562 238.478 116.628L245.401 117.889C245.789 117.959 246.159 117.701 246.225 117.313C246.563 115.311 247.592 109.688 248.597 108.886C249.792 107.933 255.239 106.56 264.034 107.389C270.692 108.016 277.207 109.79 283.264 112.627C291.264 116.374 295.263 120.319 295.81 121.747C296.269 122.948 294.304 128.316 293.58 130.212C293.44 130.581 293.628 130.991 293.998 131.127L300.603 133.552C300.953 133.68 301.343 133.518 301.493 133.177C302.721 130.405 307.489 118.743 303.541 113.045Z" fill="#A21441"/>
</g>
<path d="M847.637 147.25C847.635 147.233 847.635 147.233 847.633 147.216C847.629 147.182 847.546 147.086 847.459 146.974C847.251 146.737 847.07 146.567 847.013 146.54L850.243 139.225L847.918 138.21L835.507 133.293L831.736 141.845L821.96 134.036C821.552 132.695 821.163 131.494 820.836 130.495C820.662 129.989 820.514 129.532 820.354 129.13C820.352 129.112 820.352 129.112 820.352 129.112C820.149 128.521 819.966 128.069 819.811 127.701C819.786 127.652 819.76 127.584 819.735 127.535C819.631 127.284 819.537 127.102 819.448 126.973C819.205 126.599 818.928 126.247 818.637 125.915C817.845 124.997 816.921 124.29 815.963 123.729C815.926 123.716 815.887 123.686 815.848 123.656C815.409 123.414 814.956 123.192 814.491 123.007C814.434 122.979 814.377 122.951 814.321 122.924C813.874 122.753 813.428 122.583 812.989 122.465C812.951 122.452 812.932 122.437 812.932 122.437L812.915 122.439C812.895 122.424 812.877 122.426 812.858 122.411L807.156 104.616C807.218 104.555 807.318 104.382 807.348 103.938C807.356 103.866 807.399 103.79 807.391 103.737C807.393 103.614 807.374 103.475 807.341 103.356C807.356 103.336 807.353 103.319 807.351 103.301C807.298 102.638 806.837 101.957 806.449 101.426C806.46 101.372 806.472 101.335 806.483 101.281C806.602 100.718 806.716 99.9788 806.732 99.0406L818.105 96.416L806.615 96.8313L806.605 96.7617C806.513 96.0681 806.299 95.3903 805.984 94.7433L815.247 87.7927L804.735 92.9149C804.074 92.1912 803.284 91.5542 802.348 91.0256L807.965 81.2223L800.288 90.134C799.057 89.7682 797.69 89.5788 796.197 89.6362L793.518 78.1114L793.955 89.8987C792.425 90.2079 791.004 90.8032 789.783 91.5829L779.968 84.9436L787.992 92.9859C787.26 93.719 786.661 94.5224 786.227 95.3745L776.828 93.5877C776.61 92.4867 776.403 91.4552 776.17 90.7623C775.565 88.8658 770.592 75.7573 770.332 74.4676C770.311 74.312 770.275 74.1749 770.257 74.0365L770.086 72.7525C770.062 72.7031 770.052 72.6335 770.043 72.5639L769.976 72.0611C769.963 71.9571 769.931 71.8552 769.915 71.734C769.904 71.6472 769.89 71.5432 769.858 71.4413C769.843 71.3201 769.806 71.1831 769.788 71.0447C769.775 70.9407 769.748 70.8733 769.734 70.7692C770.648 69.9415 769.576 66.1298 768.815 64.2541C768.597 63.6824 768.389 63.3044 768.29 63.2291C768.288 63.2119 768.288 63.2118 768.288 63.2118C768.164 62.8044 767.413 61.8103 766.889 61.0499C766.867 61.0177 766.865 61.0004 766.865 61.0004C766.819 60.9179 766.755 60.8383 766.709 60.7566C766.489 60.4323 766.082 60.0278 765.645 59.662L765.4 57.1522L765.712 57.1106C766.18 57.0482 766.511 56.6164 766.449 56.148L766.387 55.6796L769.584 52.3764L769.636 52.37L769.452 50.982L768.521 48.899L768.873 46.6281L763.825 47.2987L763.396 44.0724C763.93 43.8421 765.888 41.8344 765.497 38.9028C765.391 38.1045 765.135 37.2387 764.698 36.3435C763.851 34.6199 761.612 33.8409 759.608 32.7126C759.549 32.6674 759.509 32.6373 759.509 32.6373C757.809 31.6632 756.297 30.3807 756.015 28C753.002 32.9551 752.759 37.6304 753.415 40.4386C754.182 43.6908 757.464 44.6132 757.619 44.8406L758.048 48.067L753 48.7383L753.95 50.8364L753.579 53.0923L753.763 54.4803L753.816 54.4731L757.786 56.8581L757.798 56.9449C757.572 57.5044 757.401 58.0746 757.41 58.4089C757.388 59.1706 758.104 60.0464 758.293 60.2681C757.814 60.6497 757.585 61.3153 757.708 61.8469C757.861 62.4616 758.616 62.6968 758.616 62.6968C758.566 62.7212 758.497 62.7306 758.484 62.7671C757.651 63.6724 758.708 64.8559 759.037 64.9355C759.037 64.9355 759.162 64.9542 759.345 65.0001C759.189 65.0209 759.05 65.0395 759.005 65.0983C758.411 65.9361 758.915 67.2108 759.187 67.2631C759.113 67.5027 761.385 71.049 761.385 71.049C761.385 71.049 761.389 70.9421 761.39 70.8187L761.699 72.6134C761.699 72.6134 762.48 76.8877 763.498 76.9817C763.546 77.2048 763.546 77.4695 763.578 77.7126L763.597 77.8518C763.761 79.2247 763.954 80.8049 764.164 82.3836C764.584 85.5404 765.056 88.6915 765.451 90.2093C766.37 93.7943 767.912 96.7675 768.44 98.4797C768.793 99.5448 769.48 101.925 770.223 104.456C770.223 104.456 769.222 106.355 768.298 108.966C767.39 111.559 766.538 114.85 766.875 117.647C767.344 121.839 768.04 123.759 768.757 124.37C768.757 124.37 768.912 124.879 769.237 125.595C769.544 126.313 770.021 127.238 770.659 128.054C771.901 129.69 773.265 127.602 773.713 128.054C774.179 128.503 774.019 130.749 774.456 131.786C774.875 132.806 776.325 132.826 776.301 134.241C776.255 135.889 775.981 137.409 775.811 138.79C775.595 140.354 775.496 141.727 775.9 142.909C776.415 144.394 777.921 144.441 779.39 145.128L779.407 145.126C780.838 145.8 782.207 147.066 782.556 150.886C782.853 154.182 777.358 162.116 778.741 169.593C778.936 170.662 779.363 171.346 779.865 171.809C779.883 171.807 779.885 171.824 779.885 171.824C779.907 171.856 779.924 171.854 779.944 171.869C780.341 172.205 780.794 172.427 781.253 172.56C781.308 172.571 781.362 172.581 781.399 172.594C781.616 172.635 781.816 172.68 782.017 172.724C782.051 172.719 782.088 172.732 782.106 172.729C782.34 172.769 782.555 172.793 782.786 172.798C783.038 172.835 783.288 172.854 783.52 172.876C783.735 172.901 783.932 172.927 784.096 172.959C784.115 172.974 784.133 172.972 784.151 172.969C784.279 173.005 784.392 173.061 784.506 173.116C784.525 173.131 784.562 173.144 784.582 173.159C784.681 173.234 784.764 173.329 784.815 173.446C784.861 173.528 784.874 173.632 784.874 173.756C784.852 175.454 783.133 182.178 783.376 186.789C783.376 186.789 783.366 186.844 783.377 186.93C783.391 187.299 783.438 187.646 783.481 187.975C783.473 188.047 783.499 188.114 783.526 188.181C783.613 188.699 783.727 189.161 783.874 189.6C783.912 189.754 783.965 189.888 784.018 190.022C784.126 190.307 784.235 190.594 784.359 190.86C784.431 191.009 784.504 191.158 784.577 191.307C784.696 191.539 784.813 191.753 784.949 191.982C785.246 192.489 785.541 192.98 785.87 193.466C786.338 194.198 786.424 196.975 786.848 197.766C787.154 198.344 787.833 196.947 788.077 197.585C788.23 198.076 788.369 198.588 788.463 199.158C789.446 204.959 790.293 209.736 790.415 210.92C790.728 214.073 789.702 220.566 790.113 228.172C790.524 235.779 793.998 249.158 793.784 252.064C793.746 252.581 793.616 253.322 793.432 254.194C792.859 256.795 791.417 259.088 789.613 261.057C787.872 262.966 788.076 265.163 788.076 265.163L844.279 257.691C845.164 257.574 840.375 238.014 840.321 237.616C840.271 237.234 842.256 236.37 842.587 235.937C842.933 235.485 838.894 213.337 838.726 212.071C838.555 210.787 840.563 209.426 841.215 208.351C841.474 207.91 838.443 195.338 834.557 180.178C835.088 179.79 835.618 179.402 836.115 179.018L836.167 179.011C837.954 178.773 840.418 181.111 843.118 178.44C844.414 177.173 843.543 170.086 843.665 168.216C843.85 165.49 843.28 164.525 843.389 162.022C843.441 160.955 843.486 160.101 843.527 159.479C844.445 159.075 845.29 158.662 845.518 158.384C846.066 157.729 848.445 151.587 848.834 149.47C848.878 149.27 847.896 147.723 847.641 147.263L847.637 147.25ZM778.706 100.153C778.657 100.054 778.609 99.9544 778.563 99.8719C778.532 99.7701 778.485 99.6883 778.459 99.6209C778.384 99.4545 778.33 99.3203 778.279 99.2034C778.253 99.1367 778.209 99.0714 778.185 99.0219C778.112 98.8727 778.059 98.7386 778.013 98.6568C777.768 98.1418 777.535 97.1842 777.298 96.0681C777.178 95.4312 777.034 94.744 776.909 94.0719L785.577 97.5271C785.516 97.994 785.509 98.4718 785.571 98.9402C785.603 99.1833 785.665 99.3863 785.698 99.6295L779.464 101.076C779.232 100.789 778.98 100.487 778.706 100.153ZM785.474 110.958C785.142 110.72 784.928 110.571 784.928 110.571C784.85 110.511 784.771 110.451 784.692 110.39C783.358 109.385 782.522 107.872 782.3 106.207C782.184 105.34 781.963 104.469 781.555 103.922C781.248 103.345 780.817 102.75 780.203 101.984L786.281 101.758C786.624 102.613 786.989 103.235 787.331 103.684C787.353 103.717 787.375 103.749 787.38 103.783C787.375 104.014 787.348 104.212 787.368 104.491C787.435 105.259 787.733 105.908 788.142 106.454L785.474 110.958ZM805.623 119.1C805.57 118.966 805.516 118.832 805.5 118.711C805.384 117.967 805.199 116.579 805.067 115.185C805.022 114.714 804.996 114.259 804.954 113.805L806.114 119.477C805.865 119.333 805.708 119.213 805.623 119.1Z" fill="#D4D4D4"/>
<path d="M544.269 240.545L543.988 223.693C544.44 222.868 543.963 222.244 543.963 222.244L543.506 194.895V194.873L543.492 193.728C536.659 173.28 476.272 165.53 476.272 165.53L475.86 170.142C475.86 170.142 475.861 170.142 475.862 170.142L475.046 171.857L474.869 173.886V173.888C466.609 172.949 456.91 171.925 453.599 171.577L453.817 169.15L454.135 165.599C454.135 165.599 447.94 164.826 442.562 164.565L440.233 151.898L438.588 149.151L438.968 144.897L439.136 143.021L439.417 139.872L439.854 134.982L439.37 134.162L435.347 134.224L429.693 114.946L427.755 113.776L427.757 112.24L425.243 108C425.243 108 382.217 112.455 368.701 136.877L369.607 138.392L369.622 138.41C369.622 138.41 369.024 139.623 369.034 140.265C369.046 140.891 368.369 142.232 367.961 142.837C367.57 143.426 367.087 144.869 367.087 144.869L365.571 144.446C365.571 144.446 364.938 145.301 364.898 146.496C364.859 147.691 364.95 148.189 364.969 149.677C364.972 151.146 362.917 159.978 362.917 159.978C362.917 159.978 358.125 164.108 360.288 170.497L358.185 179.104C358.185 179.104 358.182 179.107 358.175 179.111C357.951 179.247 354.401 181.497 356.328 186.282C356.343 186.301 356.342 186.318 356.342 186.318L352.706 201.119C352.706 201.119 351.382 202.043 350.772 203.459C350.718 203.585 350.672 203.716 350.63 203.85C350.618 203.89 350.607 203.931 350.596 203.972C350.568 204.073 350.545 204.175 350.526 204.28C350.518 204.323 350.51 204.366 350.504 204.41C350.484 204.554 350.47 204.7 350.469 204.851C350.469 204.852 350.469 204.853 350.469 204.854C350.469 205.003 350.484 205.156 350.506 205.311C350.512 205.357 350.522 205.403 350.532 205.45C350.554 205.566 350.583 205.684 350.62 205.802C350.635 205.851 350.649 205.899 350.666 205.948C350.724 206.11 350.791 206.275 350.88 206.442L345 228.218L477.379 240.05L470.237 218.528L471.397 216.739C471.918 216.666 472.451 216.637 472.996 216.686C476.901 217.035 479.783 220.481 479.435 224.385L478.278 237.325L483.684 237.764L485.008 222.998C485.266 220.131 487.799 218.007 490.673 218.265C493.548 218.523 495.665 221.056 495.407 223.93L494.096 238.61L505.144 239.507L504.753 237.542C520.27 238.957 544.269 240.545 544.269 240.545ZM523.046 237.736L523.581 227.418C523.664 226.48 524.027 225.634 524.533 225.072C525.057 224.495 525.728 224.166 526.432 224.229C527.822 224.353 528.825 225.979 528.655 227.871L528.121 238.189L523.046 237.736ZM530.566 238.408L530.705 228.173C530.855 226.498 531.982 225.215 533.222 225.325C534.461 225.436 535.36 226.901 535.21 228.575L535.072 238.81L530.566 238.408ZM536.295 238.919L536.254 228.6C536.367 227.344 537.193 226.406 538.132 226.489C539.053 226.571 539.717 227.644 539.604 228.9L539.628 239.217L536.295 238.919ZM540.473 239.293L540.278 228.826C540.342 228.105 540.829 227.575 541.364 227.623L541.499 227.635C542.034 227.683 542.419 228.291 542.354 229.011L542.55 239.479L540.473 239.293ZM543.965 229.595L544.066 239.614L542.977 239.517L542.876 229.497C542.904 229.195 543.16 228.966 543.462 228.992C543.764 229.019 543.993 229.293 543.965 229.595ZM498.274 191.898C499.33 191.992 500.228 192.511 500.854 193.26C501.479 194.008 501.831 194.985 501.737 196.04L500.786 206.683L493.203 205.773L494.134 195.36C494.32 193.267 496.165 191.709 498.274 191.898ZM495.92 176.888C496.268 176.953 497.502 177.131 499.361 177.483L499.34 183.204C497.209 182.862 495.94 182.715 495.94 182.715L495.887 182.743L495.92 176.888ZM505.124 196.866C505.282 195.091 506.852 193.779 508.627 193.938C509.515 194.017 510.286 194.457 510.821 195.079C511.355 195.718 511.635 196.553 511.555 197.441L510.516 211.714C508.235 211.358 506.103 211.033 504.118 210.771L505.124 196.866ZM515.129 186.54L515.162 181.258C516.101 181.528 517.054 181.816 518.006 182.121L517.979 187.335C517.009 187.046 516.069 186.792 515.129 186.54ZM517.902 196.319C518.789 196.398 519.577 196.84 520.112 197.463C520.63 198.1 520.927 198.937 520.847 199.825L519.983 213.456C517.778 213.005 515.636 212.611 513.574 212.258L514.398 199.248C514.558 197.473 516.126 196.161 517.902 196.319ZM522.882 200.664C522.99 199.458 524.05 198.557 525.255 198.665L525.39 198.677C526.595 198.785 527.478 199.86 527.371 201.066L526.556 214.904C525.051 214.55 523.562 214.214 522.086 213.913L522.882 200.664ZM529.209 194.254L529.222 187.223L530.972 187.856L530.959 194.886L529.209 194.254ZM530.939 200.996C531.944 201.086 532.675 201.978 532.587 202.967L532.3 216.379C531.097 216.052 529.909 215.743 528.704 215.433L528.986 202.645C529.074 201.657 529.951 200.908 530.939 200.996ZM540.096 206.018L539.878 218.66C539.205 218.448 538.517 218.218 537.826 218.004L538.036 205.834C538.087 205.264 538.581 204.836 539.15 204.887C539.72 204.938 540.147 205.448 540.096 206.018ZM540.385 193.912C540.603 194.117 540.819 194.34 541.019 194.56L540.994 198.811C540.965 198.758 540.918 198.72 540.87 198.682C540.699 198.515 540.527 198.364 540.353 198.231L540.385 193.912ZM537.739 196.124L537.771 191.619C538.214 191.945 538.654 192.305 539.06 192.68L539.037 197.101C538.629 196.743 538.185 196.433 537.739 196.124ZM536.892 204.466L536.742 217.672C535.904 217.411 535.049 217.166 534.192 216.92L534.33 204.237C534.393 203.533 535.014 202.998 535.718 203.061C536.421 203.124 536.955 203.762 536.892 204.466ZM543.094 206.86C543.395 206.887 543.624 207.161 543.597 207.462L543.724 220.017C543.365 219.883 542.988 219.748 542.629 219.615L542.508 207.364C542.535 207.064 542.792 206.833 543.094 206.86ZM542.118 219.434C541.643 219.273 541.184 219.114 540.71 218.954L540.699 206.646C540.735 206.244 541.081 205.953 541.466 205.989C541.869 206.024 542.141 206.37 542.105 206.772L542.118 219.434ZM463.707 191.506L463.086 198.477L457.367 197.966L455.066 186.927C456.102 186.079 457.456 185.619 458.894 185.748C461.817 186.01 463.969 188.589 463.707 191.506ZM394.244 195.329C391.524 195.356 388.953 195.413 386.548 195.502L388.208 181.84C388.385 179.847 390.154 178.385 392.13 178.561L392.532 178.597C394.525 178.775 395.989 180.527 395.812 182.52L394.244 195.329ZM445.419 184.692L444.021 197.128C439.978 196.834 436.085 196.57 432.357 196.355L433.763 183.651C434.052 180.419 436.897 178.056 440.112 178.343C441.72 178.487 443.136 179.272 444.08 180.42C445.04 181.569 445.564 183.067 445.419 184.692ZM426.826 183.435L425.383 195.985C421.77 195.797 418.306 195.657 415.021 195.566L416.509 182.514C416.765 179.65 419.283 177.545 422.13 177.8C423.554 177.927 424.792 178.612 425.647 179.633C426.501 180.655 426.953 182.012 426.826 183.435ZM401.035 182.059C401.263 179.513 403.507 177.637 406.052 177.865C407.325 177.978 408.434 178.601 409.18 179.512C409.944 180.408 410.36 181.609 410.246 182.882L408.74 195.392C405.47 195.336 402.367 195.295 399.429 195.302L401.035 182.059ZM384.61 183.359L382.905 195.632C380.38 195.744 378.056 195.874 375.932 196.022L377.777 182.748C377.946 180.856 379.606 179.467 381.499 179.637C382.453 179.722 383.256 180.182 383.821 180.857C384.387 181.516 384.694 182.421 384.61 183.359ZM369.251 183.894C369.4 182.219 370.878 180.984 372.553 181.134C374.228 181.283 375.463 182.761 375.314 184.436L373.044 196.236C370.68 196.43 368.603 196.633 366.744 196.838L369.251 183.894ZM365.243 197.008C363.381 197.247 361.808 197.478 360.489 197.68L363.211 185.177C363.322 183.938 364.417 183.006 365.674 183.118C366.913 183.229 367.844 184.342 367.733 185.582L365.243 197.008ZM360.067 185.589L360.252 185.605C360.972 185.67 361.506 186.308 361.441 187.028L358.844 197.956C357.419 198.216 356.421 198.431 355.833 198.581L358.661 186.78C358.725 186.059 359.347 185.524 360.067 185.589ZM390.714 157.383L389.459 166.319C386.894 166.681 384.548 167.062 382.402 167.461L383.881 156.772C384.05 154.88 385.693 153.491 387.603 153.661C388.558 153.747 389.36 154.207 389.925 154.882C390.491 155.539 390.798 156.444 390.714 157.383ZM381.251 159.745L379.67 167.994C377.209 168.516 375.066 169.068 373.177 169.625L375.189 159.202C375.339 157.528 376.816 156.292 378.491 156.442C380.166 156.592 381.401 158.07 381.251 159.745ZM373.295 161.684L371.458 170.147C369.458 170.795 367.797 171.44 366.425 172.061L368.772 161.28C368.883 160.041 369.98 159.109 371.236 159.222C372.476 159.332 373.406 160.445 373.295 161.684ZM394.124 154.733C394.303 152.74 396.071 151.277 398.047 151.454L398.449 151.49C400.442 151.668 401.906 153.42 401.728 155.413L400.537 165.15C397.765 165.374 395.176 165.632 392.769 165.923L394.124 154.733ZM406.619 153.959C406.846 151.413 409.091 149.537 411.636 149.765C412.91 149.879 414.019 150.501 414.765 151.412C415.528 152.308 415.944 153.509 415.831 154.782L414.666 164.419C411.349 164.511 408.229 164.655 405.295 164.814L406.619 153.959ZM421.134 152.674C421.39 149.81 423.908 147.705 426.756 147.96C428.179 148.087 429.418 148.772 430.272 149.793C431.126 150.815 431.579 152.172 431.452 153.595L430.226 164.29C426.566 164.25 423.106 164.244 419.808 164.305L421.134 152.674ZM369.702 149.376L370.551 143.847C371.391 143.129 372.355 142.354 373.458 141.541L372.626 147.072C371.542 147.869 370.561 148.643 369.702 149.376ZM380.725 141.836L381.712 136.268C382.92 135.6 384.212 134.922 385.589 134.251L384.617 139.837C383.242 140.491 381.951 141.153 380.725 141.836ZM399.803 134.087L400.855 128.357C402.19 127.953 403.577 127.553 405.01 127.192L403.933 133.005C402.518 133.351 401.137 133.7 399.803 134.087ZM366.518 164.792L364.573 172.959C362.944 173.809 361.879 174.575 361.202 175.156L363.738 164.544C363.802 163.824 364.424 163.289 365.144 163.353L365.328 163.369C366.049 163.434 366.582 164.072 366.518 164.792ZM350.315 226.163L347.523 225.913L351.374 209.793C351.438 209.073 352.074 208.541 352.794 208.606L352.977 208.622C353.697 208.687 354.229 209.323 354.165 210.043L350.315 226.163ZM357.413 226.797L352.908 226.395L356.558 209.551C356.67 208.295 357.781 207.382 359.021 207.492C360.277 207.605 361.192 208.699 361.08 209.955L357.413 226.797ZM366.226 227.585L360.155 227.042L363.434 210.03C363.584 208.354 365.064 207.116 366.74 207.266C368.417 207.416 369.655 208.896 369.505 210.573L366.226 227.585ZM376.399 228.494L369.56 227.883L371.96 210.652C372.129 208.764 373.796 207.37 375.685 207.539C377.574 207.708 378.968 209.376 378.799 211.263L376.399 228.494ZM388.609 229.585L381.003 228.905L383.151 211.367C383.329 209.375 385.089 207.904 387.081 208.082L387.473 208.117C389.465 208.295 390.936 210.055 390.757 212.047L388.609 229.585ZM403.407 230.908L394.195 230.085L396.273 212.913C396.5 210.37 398.747 208.492 401.29 208.719C403.834 208.946 405.712 211.192 405.484 213.736L403.407 230.908ZM420.519 232.438L410.19 231.515L412.118 214.664C412.373 211.812 414.892 209.707 417.744 209.962C420.596 210.216 422.701 212.735 422.447 215.587L420.519 232.438ZM440.111 234.189L428.457 233.147L430.273 216.955C430.561 213.737 433.403 211.362 436.621 211.649C439.839 211.937 442.215 214.779 441.928 217.997L440.111 234.189ZM460.575 236.018L447.939 234.889L449.345 219.155C449.657 215.666 452.739 213.09 456.228 213.402C459.718 213.714 462.294 216.795 461.982 220.285L460.575 236.018ZM480.829 201.446L470.777 200.546L470.9 199.175L468.11 198.925L468.733 191.963C469.051 188.423 472.178 185.807 475.724 186.12C479.271 186.439 481.887 189.565 481.574 193.112L480.829 201.446ZM504.457 236.074L503.004 228.768L503.216 225.581C503.33 224.307 503.818 223.186 504.513 222.404C505.189 221.638 506.107 221.197 507.044 221.28C508.937 221.45 510.277 223.646 510.05 226.192L509.363 236.513L504.457 236.074ZM514.064 225.858C514.241 223.866 515.591 222.365 517.065 222.497L517.35 222.522C518.824 222.654 519.886 224.37 519.708 226.362L518.993 237.374L513.349 236.869L514.064 225.858Z" fill="#A21441"/>
<path d="M193.798 150.211L191.739 150.501C191.739 150.501 191.332 150.749 190.567 151.179C189.728 151.649 188.462 152.336 186.815 153.165C183.885 154.635 180.872 155.96 177.799 157.147L176.968 152.714L176.945 152.587L179.793 152.185C180.202 152.128 180.49 151.746 180.431 151.325L179.945 147.876C183.377 146.332 186.728 144.516 189.72 142.39L190.069 139.942L190.204 138.971C190.77 138.603 191.326 138.227 191.871 137.84L192.967 130L190.808 130.304C190.808 130.304 188.962 131.442 185.647 133.104C164.151 143.879 138.529 147.489 114.892 143.074C111.248 142.393 109.158 141.81 109.158 141.81L107 142.114L110.22 149.345C110.852 149.567 111.492 149.776 112.139 149.974L112.537 150.867L113.537 153.126C116.961 154.328 120.638 155.142 124.318 155.678L124.81 159.163C124.869 159.584 125.251 159.871 125.66 159.814L128.509 159.412L128.523 159.554L128.87 163.196L128.946 164C125.711 163.707 122.495 163.271 119.318 162.676C117.543 162.343 116.159 162.039 115.225 161.82C114.329 161.608 113.849 161.476 113.849 161.476L111.791 161.766L111.996 162.167L112.223 162.62L113.195 164.518L114.691 167.477C114.691 167.477 116.684 168.032 120.164 168.676C123.25 169.253 126.372 169.681 129.514 169.974L134.87 226.316L133.989 226.44L135.395 241.19L151.786 238.881L149.061 224.316L148.176 224.441L138.055 170.422C149.101 170.557 160.231 168.996 170.814 165.826L170.819 165.882L176.013 220.518L175.128 220.643L176.534 235.393L192.925 233.083L190.2 218.519L189.319 218.643L178.902 163.046C181.886 161.884 184.811 160.593 187.659 159.164C190.815 157.586 192.588 156.5 192.588 156.5L193.208 153.244L193.617 151.15L193.71 150.653L193.798 150.211ZM169.655 153.614L169.65 153.615L169.729 154.407L170.169 159.029L170.237 159.748C169.387 160.005 168.534 160.25 167.678 160.486C164.433 161.381 161.142 162.128 157.821 162.72L157.736 162.117L156.812 155.556L156.731 154.983C159.064 154.533 162.259 153.84 165.877 152.846L165.951 153.367C166.01 153.788 166.392 154.074 166.812 154.015L169.655 153.614ZM135.801 158.385L138.643 157.984C139.064 157.925 139.351 157.543 139.292 157.122L139.217 156.586C143.028 156.544 146.341 156.325 148.736 156.11L148.816 156.683L149.741 163.243L149.826 163.846C146.349 164.207 142.858 164.4 139.371 164.427C138.558 164.434 137.745 164.432 136.933 164.42L135.949 159.167L135.806 158.384L135.801 158.385Z" fill="#D4D4D4"/>
<path d="M322.438 229C322.438 229 305.106 206.781 304 186.627C304 186.627 318.474 201.376 324.005 218.233C324.005 218.233 316.909 198.877 321.608 183.421C321.608 183.421 328.614 192.114 331.472 213.835C331.472 213.835 329.259 188.092 338.017 176C338.017 176 342.995 185.253 339.031 213.835C339.031 213.835 345.392 193.314 353.781 184.611C353.781 184.611 353.689 197.712 345.484 215.851C345.484 215.851 354.519 205.294 363 199.656C363 199.656 361.02 208.491 347.205 229H322.438V229Z" fill="white"/>
<path d="M790.934 211.332C790.934 211.332 774.25 166.203 761.487 172.626C750.727 178.041 770.972 211.622 770.972 211.622C770.972 211.622 752.085 180.078 742.343 187.099C731.144 195.17 761.07 217.671 761.07 217.671C761.07 217.671 722.615 193.939 716.675 204.008C710.918 213.767 743.9 223.511 743.9 223.511C743.9 223.511 726.532 221.585 724.365 230.305H790.933L790.934 211.332Z" fill="white"/>
</g>
<defs>
<clipPath id="clip0_751_4144">
<rect width="985" height="228" fill="white"/>
</clipPath>
</defs>
</svg>
