<svg width="985" height="228" viewBox="0 0 985 228" fill="none" xmlns="http://www.w3.org/2000/svg">
<g clip-path="url(#clip0_83_6135)">
<path d="M684.486 193C684.821 188.695 685 184.337 685 179.795C685 82.074 598.602 3 492.011 3C385.421 3 299 82.233 299 179.795C299 184.214 299.179 188.616 299.536 193H684.486Z" fill="#A21441" fill-opacity="0.2"/>
<path d="M793 227.5H657H193.5L283 99.5L329 127L426 58L537.5 106L625.5 1.5L793 227.5Z" fill="#D4D4D4"/>
<path d="M613.754 142.681L619.41 145.502" stroke="white" stroke-miterlimit="10" stroke-linecap="round" stroke-linejoin="round"/>
<path d="M544.285 108.042L605.811 138.721" stroke="white" stroke-miterlimit="10" stroke-linecap="round" stroke-linejoin="round"/>
<path d="M319.949 136.647L277.169 167.297" stroke="white" stroke-miterlimit="10" stroke-linecap="round" stroke-linejoin="round"/>
<path d="M643.651 71V38.739L649.513 40.312L650 33.46L625.724 0L595 37.418L611.996 27.722L615.513 38.739L624.892 34.017L643.651 71Z" fill="white"/>
<path d="M455.964 83.753L459.462 72.336L425.903 58L400 76.396L419.328 71.49L431.54 83.753L432.479 74.556L455.964 83.753Z" fill="white"/>
<path d="M277.262 53.0191C272.76 50.5641 270.714 52.6101 269.077 50.5641C267.44 48.5181 273.578 43.1981 261.301 37.8781C261.301 37.8781 260.483 26.4201 243.704 26.0101C226.926 25.6011 231.427 37.4691 226.926 40.3331C222.425 43.1981 221.197 38.6961 216.695 41.5611C212.193 44.4261 214.24 50.1551 210.557 50.9731C206.874 51.7911 201.963 47.2901 197.462 50.1541C192.96 53.0191 192.96 55.4741 190.914 55.4741C188.868 55.4741 184.775 53.8371 182.32 55.4741C179.865 57.1111 177 59.1571 177 59.1571H280.535C280.535 59.1571 281.764 55.4751 277.262 53.0191Z" fill="white"/>
<path d="M29.7099 127.668C33.2699 126.336 34.888 127.446 36.182 126.336C37.477 125.225 32.622 122.337 42.332 119.449C42.332 119.449 42.9789 113.228 56.2479 113.006C69.5179 112.783 65.958 119.226 69.518 120.781C73.077 122.336 74.049 119.892 77.608 121.448C81.168 123.002 79.551 126.113 82.463 126.557C85.375 127.002 89.259 124.558 92.819 126.113C96.378 127.667 96.378 129.001 97.997 129.001C99.614 129.001 102.852 128.112 104.793 129.001C106.734 129.89 109 131 109 131H27.12C27.12 131 26.1499 129.001 29.7099 127.668Z" fill="white"/>
<path d="M701.115 58.6679C703.893 57.3359 705.157 58.4459 706.166 57.3359C707.177 56.2249 703.388 53.3369 710.966 50.4489C710.966 50.4489 711.472 44.2279 721.828 44.0059C732.184 43.7829 729.406 50.2259 732.184 51.7809C734.963 53.3369 735.721 50.8919 738.499 52.4479C741.277 54.0019 740.015 57.1129 742.288 57.5569C744.561 58.0019 747.592 55.5579 750.371 57.1129C753.149 58.6669 753.149 60.0009 754.412 60.0009C755.676 60.0009 758.201 59.1119 759.716 60.0009C761.232 60.8899 763 61.9999 763 61.9999H699.094C699.094 61.9999 698.337 60.0019 701.115 58.6679Z" fill="white"/>
<path d="M951.6 115.704C945.83 113.187 943.21 115.285 941.11 113.187C939.01 111.088 946.88 105.633 931.13 100.179C931.13 100.179 930.08 88.4291 908.56 88.0111C887.04 87.5921 892.81 99.7601 887.04 102.697C881.27 105.634 879.69 101.018 873.92 103.956C868.14 106.894 870.77 112.768 866.04 113.607C861.32 114.446 855.02 109.83 849.25 112.768C843.47 115.706 843.47 118.223 840.85 118.223C838.22 118.223 832.97 116.545 829.82 118.223C826.68 119.901 823 122 823 122H955.81C955.8 121.997 957.38 118.222 951.6 115.704Z" fill="white"/>
<path d="M607.301 124.745L597.529 134.442V168.784H588.913V102.28H561.004V141.225H553.615V134.442H535.863V165.207H525.256" stroke="white" stroke-miterlimit="10" stroke-linecap="round" stroke-linejoin="round"/>
<path d="M561.003 107.102H576.479V109.248H561.003" stroke="white" stroke-miterlimit="10" stroke-linecap="round" stroke-linejoin="round"/>
<path d="M561.003 112.997H576.479V115.143H561.003" stroke="white" stroke-miterlimit="10" stroke-linecap="round" stroke-linejoin="round"/>
<path d="M561.003 118.891H576.479V121.037H561.003" stroke="white" stroke-miterlimit="10" stroke-linecap="round" stroke-linejoin="round"/>
<path d="M561.003 124.787H576.479V126.932H561.003" stroke="white" stroke-miterlimit="10" stroke-linecap="round" stroke-linejoin="round"/>
<path d="M561.003 130.681H576.479V132.827H561.003" stroke="white" stroke-miterlimit="10" stroke-linecap="round" stroke-linejoin="round"/>
<path d="M537.983 134.442L539.991 132.163H549.549L551.494 134.388" stroke="white" stroke-miterlimit="10" stroke-linecap="round" stroke-linejoin="round"/>
<path d="M543.116 132.163V127.487H546.361V132.163" stroke="white" stroke-miterlimit="10" stroke-linecap="round" stroke-linejoin="round"/>
<path d="M473.512 150.487H464.613V136.704H437.472V98.7869H412.062V118.891L402.099 128.777" stroke="white" stroke-miterlimit="10" stroke-linecap="round" stroke-linejoin="round"/>
<path d="M437.472 103.481H417.1V106.096H437.472V103.481Z" stroke="white" stroke-miterlimit="10" stroke-linecap="round" stroke-linejoin="round"/>
<path d="M437.472 113.355H417.1V115.97H437.472V113.355Z" stroke="white" stroke-miterlimit="10" stroke-linecap="round" stroke-linejoin="round"/>
<path d="M437.472 123.228H417.1V125.843H437.472V123.228Z" stroke="white" stroke-miterlimit="10" stroke-linecap="round" stroke-linejoin="round"/>
<path d="M437.472 133.103H417.1V135.718H437.472V133.103Z" stroke="white" stroke-miterlimit="10" stroke-linecap="round" stroke-linejoin="round"/>
<path d="M631.891 227.166C631.891 227.166 634.07 203.762 641.419 203.251C645.536 202.964 645.068 211.936 640.81 219C640.81 219 650.219 205.069 654.866 208.557C660.272 212.613 645.676 221.98 645.676 221.98C645.676 221.98 658.551 214.451 660.019 218.397C661.59 222.621 649.982 224.586 649.982 224.586C649.982 224.586 658.904 223.124 660.56 227.166H631.891Z" fill="white"/>
<path d="M449.261 227.162C449.261 227.162 428.346 176.774 416.616 178.723C404.721 180.698 425.164 214.354 425.164 214.354C425.164 214.354 395.504 177.913 388.774 184.954C382.911 191.088 404.728 209.759 404.728 209.759C404.728 209.759 377.867 197.467 374.927 204.587C371.55 212.769 404.903 221.029 404.903 221.029C404.903 221.029 384.089 217.5 377.467 219.353C370.844 221.206 371.548 227.162 371.548 227.162H449.261Z" fill="white"/>
<path d="M458.42 150.487H414.901V221.566H458.42V150.487Z" fill="#31020E"/>
<path d="M453.082 150.487L441.256 166.915L443.486 221.566H405.373L403.143 166.915L414.969 150.487H453.082Z" fill="#A21441"/>
<path d="M418.078 221.549H412.303V227.162H418.078V221.549Z" fill="#31020E"/>
<path d="M453.082 221.549H447.307V227.162H453.082V221.549Z" fill="#31020E"/>
<path d="M426.408 109.181H424.381V150.487H426.408V109.181Z" fill="#31020E"/>
<path d="M427.498 149.095H423.291V150.487H427.498V149.095Z" fill="#31020E"/>
<path d="M445.862 109.181H443.834V150.487H445.862V109.181Z" fill="#31020E"/>
<path d="M446.951 149.095H442.744V150.487H446.951V149.095Z" fill="#31020E"/>
<path d="M448.637 107.952H421.606V111.595H448.637V107.952Z" fill="#31020E"/>
<path opacity="0.5" d="M403.143 166.915H441.256L443.486 221.566H405.373L403.143 166.915Z" fill="#A21441"/>
<path d="M413.911 217.891L411.98 170.591H407.885L409.816 217.891H413.911Z" stroke="#31020E" stroke-width="0.5" stroke-miterlimit="10"/>
<path d="M422.188 217.891L420.258 170.591H416.163L418.093 217.891H422.188Z" stroke="#31020E" stroke-width="0.5" stroke-miterlimit="10"/>
<path d="M430.466 217.891L428.535 170.591H424.441L426.371 217.891H430.466Z" stroke="#31020E" stroke-width="0.5" stroke-miterlimit="10"/>
<path d="M438.743 217.891L436.813 170.591H432.718L434.648 217.891H438.743Z" stroke="#31020E" stroke-width="0.5" stroke-miterlimit="10"/>
<path d="M443.835 133.455C443.835 133.455 434.289 134.41 431.038 143.01C429.298 147.614 429.571 154.39 433.623 159.064C436.661 162.567 443.835 165.751 446.665 162.953C448.807 160.836 448.024 157.561 444.52 153.47C441.189 149.583 443.835 146.625 443.835 146.625V133.455H443.835Z" fill="#8B8888"/>
<path d="M445.862 133.371C445.862 133.371 451.362 132.89 456.869 137.344C462.258 141.702 463.525 149.791 460.383 151.559C456.71 153.627 453.674 148.685 450.72 146.597C448.169 144.796 445.862 145.776 445.862 145.776V133.371Z" fill="#8B8888"/>
<path d="M440.225 162.454C440.225 162.454 444.506 164.087 446.276 161.617C447.898 159.354 444.962 155.513 443.486 153.766C442.405 152.486 439.182 147.852 441.631 144.116C444.334 139.992 449.436 141.3 452.544 144.217C454.526 146.077 456.565 149.448 459.099 149.381C461.633 149.313 461.329 146.497 461.228 145.994" stroke="black" stroke-width="0.5" stroke-miterlimit="10" stroke-linecap="round"/>
<path d="M619.273 186.671C617.16 189.611 613.29 192.778 613.543 198.994C614.17 214.272 613.544 224.583 603.43 226.904H597.529V223.639C597.529 223.639 605.285 223.084 607.161 217.501C609.772 209.728 602.902 200.505 608.14 183.571C609.16 180.265 610.217 180.98 610 182.568C610.062 182.239 610.627 179.587 612.528 178.173C614.559 176.667 613.714 179.047 613.714 179.047C613.714 179.047 616.077 176.965 618.341 177.068C619.32 177.109 619.6 177.345 619.6 177.592C619.6 177.921 619.123 178.281 619.123 178.281C619.988 178.471 620.698 178.898 621.149 179.582C622.071 180.99 621.905 183 619.273 186.671Z" fill="url(#paint0_linear_83_6135)"/>
<path d="M552.962 196.721C552.962 196.721 550.732 206.178 549.921 207.737C549.415 208.71 547.842 214.543 546.732 218.79C546.157 220.989 545.193 223.087 543.753 224.851C543.316 225.386 542.934 226.055 542.792 226.847H550.977C550.977 226.847 552.54 225.203 551.172 223.644L561.004 206.276L552.962 196.721Z" fill="#31020E"/>
<path d="M570.053 206.746C570.053 206.746 567.271 212.664 567.018 216.285C566.764 219.905 568.766 221.531 568.766 221.531C568.766 221.531 565.599 221.967 563.673 224.13C562.509 225.435 562.22 226.902 562.22 226.902H580.195L582.476 209.847" fill="#31020E"/>
<path d="M599.595 222.958C599.781 222.692 599.962 222.427 600.13 222.169C602.969 217.809 606.078 207.687 598.213 197.225C591.142 187.812 588.639 191.272 581.422 184.198C574.205 177.129 574.117 168.359 574.117 168.359C574.117 168.359 577.454 162.272 577.272 160.843C577.11 159.562 572.207 154.716 569.938 150.89C569.472 150.103 568.658 149.589 567.74 149.542C565.839 149.443 562.178 149.05 556.979 147.595C549.063 145.379 548.255 144.305 547.239 144.572C546.224 144.845 545.467 146.325 545.343 147.061C545.343 147.061 544.576 150.459 545.659 153.862C546.742 157.26 552.524 162.32 554.804 164.536C554.028 165.67 550.029 168.547 548.063 170.671C546.563 172.292 546.463 173.519 548.606 172.929C545.58 176.771 542.843 185.718 546.156 182.769C545.475 189.497 547.514 195.714 551.612 200.043C554.643 203.246 557.658 205.59 557.658 205.59L555.144 219.644C554.865 221.202 554.31 222.713 553.408 224.02C552.943 224.694 552.486 225.649 552.348 226.904H560.766C560.766 226.904 561.326 225.963 561.409 225.171C561.492 224.359 561.046 223.649 561.046 223.649L566.59 209.43L566.595 209.435C566.662 209.486 567.289 209.99 568.439 210.751C569.19 211.25 570.159 211.856 571.346 212.53C571.708 212.73 572.092 212.941 572.496 213.157C572.418 216.987 574.412 220.785 576.158 221.767C573.742 222.538 570.33 223.876 570.33 226.904L599.32 226.903C599.32 226.903 600.95 225.187 599.595 222.958Z" fill="url(#paint1_linear_83_6135)"/>
<path d="M569.501 206.33C569.092 207.425 568.703 209.301 568.439 210.751C567.289 209.99 566.662 209.486 566.595 209.435L566.589 209.43L568.164 206.078C568.164 206.078 569.113 203.862 568.843 202.654C568.574 201.451 567.962 194.742 568.03 191.791C568.03 191.791 568.579 198.639 569.553 201.682C570.211 203.749 570.247 204.351 569.501 206.33Z" fill="#A21441"/>
<path d="M590.017 206.17C589.737 206.088 583.909 204.34 578.371 205.374C572.692 206.427 572.495 213.157 572.495 213.157C572.091 212.941 571.708 212.73 571.345 212.53C571.454 210.622 572.268 205.97 577.583 204.489C583.142 202.947 589.691 206.016 590.017 206.17Z" fill="#A21441"/>
<path d="M547.622 148.718C547.622 148.718 545.754 147.815 545.551 146.394C545.348 144.973 547.915 142.865 548.747 144.017C550.09 145.877 550.358 149.623 547.622 148.718Z" fill="black"/>
<path d="M558.269 201.271C558.233 202.366 557.658 205.59 557.658 205.59C557.658 205.59 557.295 205.307 556.694 204.808C556.984 203.862 557.274 202.839 557.388 202.186C557.658 200.68 557.658 196.721 557.658 196.721C557.658 196.721 558.3 200.176 558.269 201.271Z" fill="#A21441"/>
<path d="M577.052 221.532C577.052 221.532 581.309 219.906 586.276 220.056" stroke="black" stroke-width="0.5" stroke-miterlimit="10" stroke-linecap="round"/>
<path d="M564.616 170.595C561.24 171.299 555.326 170.369 551.591 167.47L553.332 165.208C553.332 165.208 556.882 167.552 563.719 167.845C563.74 167.912 563.756 167.984 563.776 168.056C564.025 168.955 564.305 169.814 564.616 170.595Z" fill="#A21441"/>
<path d="M574.268 170.019C574.268 170.025 574.268 170.025 574.268 170.025C573.713 171.068 572.926 172.585 572.408 173.757C571.289 176.276 570.035 176.759 569.108 175.752C569.108 175.752 568.895 177.335 567.372 176.554C565.854 175.777 565.357 173.819 565.357 173.819C565.357 173.819 565.217 174.667 564.383 174.266C563.549 173.865 559.015 163.239 565.896 156.298C565.704 156.55 561.994 161.588 563.777 168.056C565.6 174.693 569.258 178.923 574.118 168.359C574.118 168.359 574.123 168.976 574.268 170.019Z" fill="#A21441"/>
<path d="M557.312 172.975C557.417 172.755 557.461 172.499 557.42 172.226C557.345 171.74 556.971 171.326 556.492 171.2C556.004 171.071 555.538 171.227 555.232 171.542C554.861 171.922 554.366 172.159 553.834 172.126L553.404 172.1C552.871 172.068 552.41 171.772 552.089 171.349C551.824 171 551.381 170.789 550.881 170.857C550.389 170.924 549.967 171.289 549.833 171.763C549.758 172.028 549.769 172.288 549.847 172.518C549.969 172.882 549.944 173.291 549.777 173.637C549.672 173.857 549.628 174.113 549.669 174.385C549.744 174.872 550.118 175.286 550.598 175.412C551.086 175.54 551.552 175.385 551.858 175.07C552.228 174.689 552.723 174.452 553.256 174.485L553.686 174.512C554.218 174.544 554.68 174.839 555.001 175.262C555.266 175.612 555.708 175.823 556.209 175.755C556.7 175.688 557.123 175.323 557.257 174.849C557.332 174.583 557.32 174.324 557.243 174.093C557.121 173.73 557.146 173.321 557.312 172.975Z" fill="#A21441"/>
<path d="M554.601 168.785C554.601 168.785 553.359 170.218 553.663 172.531" stroke="#A21441" stroke-miterlimit="10"/>
<path d="M558.926 151.398C558.926 151.398 559.87 152.611 561.413 152.953C562.966 153.297 563.721 152.258 563.721 152.258" stroke="black" stroke-miterlimit="10" stroke-linecap="round" stroke-linejoin="round"/>
<path d="M540.851 60.9888C540.851 60.9888 542.739 65.7842 543.423 67.7563C543.849 68.9819 542.83 74.9859 542.83 74.9859L538.525 68.9346L540.851 60.9888Z" fill="#FFDBDA"/>
<path d="M538.523 68.9362L542.287 74.2211L542.368 71.5761C542.368 71.5761 542.17 70.276 541.923 69.147C541.675 68.0176 541.915 66.5591 541.766 65.334C541.601 63.9758 540.38 63.6565 540.38 63.6565C540.38 63.6565 540.314 63.5357 540.112 63.5054L538.523 68.9362Z" fill="black"/>
<path d="M449.592 57.4622C449.592 57.4622 445.999 63.2884 445.51 63.968C445.263 64.3119 444.244 70.3263 444.522 71.2593C444.808 72.2197 450.533 69.3937 450.533 69.3937L452.165 67.9208L449.592 57.4622Z" fill="#FFDBDA"/>
<path d="M446.306 71.1749C448.082 70.6079 450.535 69.3931 450.535 69.3931L452.164 67.9223L450.186 59.8516C449.749 60.0726 449.277 60.4438 449.022 61.3424C448.801 62.1264 448.603 67.6251 448.603 67.6251L447.935 69.3191C447.935 69.3191 446.701 70.4321 446.306 71.1749Z" fill="black"/>
<path d="M509.731 40L545.055 48.5108L525.779 115.143L507.133 109.622L509.731 40Z" fill="white" stroke="black" stroke-width="0.5" stroke-miterlimit="10"/>
<path d="M509.731 40L472.111 47.0718L482.502 109.972L507.133 109.622L509.731 40Z" fill="white" stroke="black" stroke-width="0.5" stroke-miterlimit="10"/>
<path d="M472.111 47.0718L446.723 48.4115L464.613 115.143L482.502 109.972L472.111 47.0718Z" fill="white" stroke="black" stroke-width="0.5" stroke-miterlimit="10"/>
<path opacity="0.25" d="M481.973 106.466L507.626 106.101L523.364 110.761L540.634 51.0607L509.639 43.593L472.536 50.5677L451.267 51.69L467.103 110.764L481.973 106.466Z" fill="#625D5E"/>
<path d="M504.959 163.708C504.959 163.708 507.537 171.777 508.028 173.115C508.518 174.453 526.756 212.413 526.756 212.413L535.863 209.45C535.863 209.45 527.951 174.91 521.935 169.836L520.36 162.546C515.036 160.551 509.84 160.487 504.959 163.708Z" fill="#FFDBDA"/>
<path d="M480.869 217.279L491.214 217.477C491.214 217.477 493.571 190.687 493.204 184.12C492.832 177.549 491.996 173.328 491.996 173.328L493.937 163.192C488.6 159.972 483.149 159.16 478.438 160.959C477.94 164.443 477.357 168.84 477.145 171.779C476.892 175.276 480.869 217.279 480.869 217.279Z" fill="#FFDBDA"/>
<path d="M514.023 126.885C514.023 126.885 517.223 133.111 517.223 137.103C517.223 141.096 517.898 145.376 517.898 145.376L521.822 166.388C521.822 166.388 513.839 169.633 503.062 169.526L499.71 150.002L499.085 150.187L497.913 169.77C497.913 169.77 483.072 171.236 477.146 167.494C477.146 167.494 478.699 154.219 479.308 149.28C481.116 134.609 483.918 124.033 483.918 124.033L514.023 126.885Z" fill="#A21441"/>
<path d="M502.409 148.718C502.409 148.718 501.742 149.376 501.001 149.662C500.462 149.87 499.709 150.001 499.709 150.001L500.601 155.196L502.409 148.718Z" fill="black"/>
<path d="M499.085 150.187L500.722 149.811C500.722 149.811 503.213 149.098 504.227 145.497" stroke="black" stroke-width="0.5" stroke-miterlimit="10" stroke-linecap="round"/>
<path d="M525.775 96.5286C529.552 88.3453 535.124 79.8602 535.124 79.8602C535.352 78.7919 535.621 76.5936 536.167 74.1394C536.529 72.5097 537.717 70.9972 537.717 70.9972C537.717 70.9972 537.255 67.4295 538.344 65.5638C539.497 63.5871 541.524 64.2719 541.281 66.374C540.982 68.9517 541.84 70.441 541.84 70.441C541.84 70.441 543.402 72.9755 543.292 74.4345C543.094 77.0532 540.514 81.6857 540.514 81.6857C540.514 81.6857 536.727 107.422 531.697 110.417C527.81 112.731 521.675 107.637 521.675 107.637C521.675 107.637 524.535 99.2173 525.775 96.5286Z" fill="#FFDBDA"/>
<path d="M474.954 92.4825L470.915 93.8937L455.604 75.4321L449.576 78.31C449.576 78.31 457.229 95.4154 464.879 103.892C467.86 107.195 477.866 104.801 477.866 104.801L474.954 92.4825Z" fill="#FFDBDA"/>
<path d="M498.525 62.6364C496.849 64.883 495.475 68.1758 494.111 72.9255C492.732 77.7312 494.559 80.0554 499.629 81.1987C499.629 83.2237 499.385 87.555 499.385 87.555L497.82 88.5903C497.82 88.5903 498.825 89.6782 502.906 90.0699C506.987 90.4616 511.364 87.0733 511.364 87.0733L509.29 86.6733L508.009 80.5751C508.009 80.5751 513.459 75.9139 514.249 69.3823C515.04 62.8503 503.566 55.8803 498.525 62.6364Z" fill="#FFDBDA"/>
<path d="M505.856 88.3704C501.477 88.9662 499.385 87.5545 499.385 87.5545C499.385 87.5545 497.625 87.8532 495.552 87.7684C492.912 87.6604 491.652 87.1109 489.529 87.2209C486.893 87.3576 473.329 92.8553 473.329 92.8553C471.641 98.8085 477.206 108.387 477.206 108.387L487.983 106.155C485.825 112.882 484.18 119.097 482.134 129.825C482.134 129.825 485.283 134.304 498.445 135.311C510.411 136.225 517.836 132.288 517.836 132.288C517.836 132.288 513.376 117.83 514.382 114.907C515.388 111.984 516.826 107.832 516.826 107.832L521.453 111.492C528.782 108.569 530.26 100.648 530.26 100.648C530.26 100.648 521.219 89.0531 518.572 87.061C516.572 85.5552 513.027 86.2251 511.951 86.4677C510.687 86.7531 509.291 86.6723 509.291 86.6723C509.291 86.6723 508.491 88.0116 505.856 88.3704Z" fill="white"/>
<path d="M507.03 52.6558C509.391 53.3282 511.302 55.6715 511.007 58.0903C511.782 57.0333 513.162 56.896 513.851 57.2158C514.611 57.5674 514.495 58.6455 513.637 59.2588C514.893 58.9252 517.109 58.4167 518.572 60.0901C519.476 61.1244 519.185 63.1623 517.397 63.8111C519.308 64.6372 521.514 67.5424 522.005 69.7015C522.29 70.9595 522.434 75.2069 516.235 74.4024C517.57 76.5009 517.083 79.8466 515.399 80.4918C514.238 80.9365 512.905 80.4692 512.266 79.9443C512.212 80.8491 511.313 81.6542 510.262 81.6614C509.431 81.6675 508.685 81.4203 508.175 80.7689C507.493 81.8063 506.049 82.3364 504.802 82.2824C501.905 82.1569 501.269 80.1494 501.218 79.3911C498.603 78.4766 498.282 76.2691 498.128 74.8877C497.957 73.368 498.952 71.3975 499.86 71.1009C498.633 71.3744 497.144 70.4552 496.871 69.5499C496.519 68.3788 496.925 67.2457 497.514 66.6663C496.384 66.544 493.683 65.8083 493.408 62.9644C493.105 59.8418 495.001 58.3869 496.154 58.2152C495.762 57.8132 495.729 56.9557 495.875 56.4148C496.427 54.3564 499.079 54.2803 500.949 54.6762C502.034 52.6224 504.885 52.0446 507.03 52.6558Z" fill="black"/>
<path d="M493.698 217.66C493.698 217.66 493.337 214.937 491.617 214.363C489.99 213.821 486.548 213.781 484.548 214.553C483.082 215.118 482.766 216.976 482.766 216.976L480.847 217.038L480.558 213.964C480.558 213.964 478.287 213.421 477.674 214.284C477.362 214.723 478.233 216.664 478.509 217.234C477.62 217.28 473.995 217.204 471.929 219.45C470.241 221.284 470.14 223.607 470.347 225.221C469.673 226.009 470.064 227.162 470.064 227.162H495.533C495.533 227.162 495.743 225.918 495.209 225.221C495.693 223.21 495.938 220.036 493.698 217.66Z" fill="white"/>
<path d="M542.987 217.272C542.987 217.272 543.255 215.904 542.174 213.795C540.653 210.827 537.086 209.493 537.086 209.493C537.086 209.493 536.795 207.364 535.002 207.455C533.209 207.546 529.929 208.809 529.055 209.493C528.182 210.177 528.608 211.81 528.608 211.81L526.757 212.413L525.155 209.077C525.155 209.077 523.262 209.402 522.756 210.497C522.251 211.592 525.515 213.463 525.515 213.463L524.765 216.777C524.765 216.777 520.918 216.383 518.711 218.071C516.948 219.419 516.476 222.51 516.873 225.222C516.443 225.493 516.531 226.563 516.734 227.163H532.366L542.987 217.272Z" fill="white"/>
<path d="M494.656 225.221H470.871" stroke="black" stroke-width="0.5" stroke-miterlimit="10" stroke-linecap="round" stroke-linejoin="round"/>
<path d="M540.826 227.162C540.826 227.162 541.334 225.236 541.845 223.112C542.411 220.755 542.986 218.131 542.986 217.135C542.986 216.079 542.09 215.059 540.297 214.74C538.279 214.38 535.532 215.207 534.572 217.127C532.526 221.218 530.549 227.162 530.549 227.162H540.826Z" fill="black"/>
<path d="M542.09 214.215C542.09 214.215 540.952 212.969 538.573 213.029C535.863 213.097 534.281 213.843 533.346 215.591C532.463 217.244 529.124 225.211 529.124 225.211H517.346" stroke="black" stroke-width="0.5" stroke-miterlimit="10" stroke-linecap="round" stroke-linejoin="round"/>
<path d="M455.604 75.4322C455.604 75.4322 455.555 73.3702 455.019 70.9149C454.788 69.859 454.045 68.7547 453.254 66.7415C452.907 63.73 452.879 62.6571 452.231 61.5369C451.654 60.5385 450.153 60.3257 449.609 61.3734C449.227 62.1075 449.443 68.1332 449.443 68.1332L444.522 71.2588C444.854 72.6335 446.799 74.9989 449.575 78.3101L455.604 75.4322Z" fill="#FFDBDA"/>
<path d="M506.026 99.589C506.026 99.589 504.954 91.6272 498.627 87.2405C498.627 87.2405 495.105 87.422 493.667 87.6045C493.667 87.6045 496.252 91.5856 496.846 100.374L506.026 99.589Z" fill="black"/>
<path d="M511.047 102.142C511.047 102.142 517.221 96.7393 520.003 96.7393C520.003 96.7393 524.73 98.9118 525.248 99.8834C529.454 107.773 526.378 131.521 522.111 135.448C517.843 139.376 514.561 140.193 514.561 140.193L511.047 102.142Z" fill="black"/>
<path d="M520.003 104.499C520.003 104.499 520.152 101.946 519.706 100.031" stroke="white" stroke-width="0.5" stroke-miterlimit="10" stroke-linecap="round" stroke-linejoin="round"/>
<path d="M524.456 105.137C524.456 105.137 507.696 96.3316 499.483 95.4155C499.483 95.4155 494.101 95.4392 490.921 101.176C490.921 101.176 485.343 131.945 485.537 134.433C485.589 135.109 490.117 142.845 492.393 143.484C502.169 145.992 519.68 142.289 522.11 142.289C525.446 142.289 528.799 109.589 524.456 105.137Z" fill="url(#paint2_linear_83_6135)"/>
<path opacity="0.6" d="M493.938 134.781C494.034 135.865 503.526 140.98 523.178 141.225C526.076 135.568 528.327 109.108 524.458 105.138C524.458 105.138 508.035 96.5055 499.734 95.4517C499.962 97.7856 500.164 102.177 499.482 108.28C498.429 117.706 493.801 133.295 493.938 134.781Z" fill="url(#paint3_linear_83_6135)"/>
<path d="M528.923 120.788C528.887 120.244 528.536 119.626 528.019 119.441C525.02 118.37 513.527 114.694 509.463 114.662C507.88 114.65 502.895 116.757 501.635 117.674C500.376 118.59 497.687 130.668 498.182 137.886C498.195 138.073 500.649 141.613 504.96 142.256C512.701 143.41 523.698 143.419 524.523 143.205C526.094 142.796 529.297 126.451 528.923 120.788Z" fill="black"/>
<path d="M485.924 113.037C485.924 113.037 485.961 119.376 489.688 126.119L488.368 129.982C488.368 129.982 485.086 124.002 484.047 117.674C484.344 115.546 485.924 113.037 485.924 113.037Z" fill="black"/>
<path d="M489.309 124.163L487.758 130.808L488.534 131.888L490.842 126.242L489.309 124.163Z" fill="black"/>
<path d="M508.449 116.577C508.449 116.577 504.012 126.005 504.235 141.225" stroke="white" stroke-width="0.5" stroke-miterlimit="10" stroke-linecap="round" stroke-linejoin="round"/>
<path d="M528.415 121.782C528.415 121.782 525.182 128.606 523.17 129.469C522.628 129.702 512.106 127.325 511.624 127.035C510.536 126.381 509.348 116.725 509.348 116.725C509.348 116.725 509.241 115.718 508.424 115.767C507.608 115.817 502.784 117.721 502.116 118.229" stroke="white" stroke-width="0.5" stroke-miterlimit="10" stroke-linecap="round" stroke-linejoin="round"/>
<path d="M519.153 126.765C519.153 126.765 518.881 130.694 520.324 133.688L515.525 134.442C515.525 134.442 514.445 130.968 516.275 126.107L519.153 126.765Z" fill="white"/>
<path d="M495.19 96.7393C495.19 96.7393 495.824 105.268 493.218 113.037" stroke="black" stroke-miterlimit="10" stroke-linecap="round"/>
<path d="M494.121 111.764L494.158 111.791C494.312 111.901 494.419 112.064 494.459 112.247L495.527 117.15C495.617 117.562 495.355 117.969 494.939 118.056C494.412 118.167 493.68 118.274 492.998 118.21C492.576 118.17 492.276 117.783 492.324 117.365L492.909 112.295C492.936 112.065 493.065 111.861 493.262 111.737C493.526 111.572 493.866 111.582 494.121 111.764Z" fill="black"/>
<path d="M342 227.162H675.264" stroke="black" stroke-miterlimit="10" stroke-linecap="round"/>
</g>
<defs>
<linearGradient id="paint0_linear_83_6135" x1="604.627" y1="222.509" x2="615.43" y2="178.826" gradientUnits="userSpaceOnUse">
<stop stop-color="#A21441"/>
<stop offset="1" stop-color="#31020E"/>
</linearGradient>
<linearGradient id="paint1_linear_83_6135" x1="544.645" y1="185.718" x2="603.198" y2="185.718" gradientUnits="userSpaceOnUse">
<stop stop-color="#31020E"/>
<stop offset="1" stop-color="#A21441"/>
</linearGradient>
<linearGradient id="paint2_linear_83_6135" x1="506.026" y1="95.4155" x2="506.026" y2="144.355" gradientUnits="userSpaceOnUse">
<stop stop-color="#A21441"/>
<stop offset="1" stop-color="#31020E"/>
</linearGradient>
<linearGradient id="paint3_linear_83_6135" x1="510.227" y1="95.4517" x2="510.227" y2="141.225" gradientUnits="userSpaceOnUse">
<stop stop-color="#A21441"/>
<stop offset="1" stop-color="#3C0718"/>
</linearGradient>
<clipPath id="clip0_83_6135">
<rect width="985" height="228" fill="white"/>
</clipPath>
</defs>
</svg>
