<svg width="195" height="195" viewBox="0 0 195 195" fill="none" xmlns="http://www.w3.org/2000/svg">
<g clip-path="url(#clip0_662_21036)">
<path d="M195 0H0V195H195V0Z" fill="white"/>
<path d="M34.933 111.476C34.8331 111.342 34.7356 111.206 34.635 111.072C33.5017 109.566 32.2989 108.112 31.0299 106.72C31.0615 103.914 30.9944 93.3044 28.1513 93.8504C25.5262 94.3547 28.9527 102.755 30.4144 106.066C29.8606 105.477 29.2959 104.898 28.7175 104.332C26.7995 101.843 20.3505 93.8247 18.4602 95.9954C16.7087 98.0066 24.3733 102.445 27.7418 104.256C28.3673 104.853 28.982 105.462 29.5791 106.086C26.3327 104.465 18.239 100.718 17.5195 103.279C16.7395 106.055 27.3225 106.642 30.198 106.75C31.6913 108.361 33.0941 110.056 34.4049 111.821C31.4975 109.979 23.4502 105.171 22.46 107.709C21.3992 110.429 32.155 112.056 34.8468 112.419C36.2617 114.371 37.5651 116.406 38.7601 118.501C35.9805 116.146 29.037 110.61 27.7324 112.921C26.3159 115.429 36.4333 118.513 39.2128 119.306C39.4055 119.654 39.5978 120.002 39.7846 120.353C40.7315 122.136 41.6063 123.962 42.4108 125.819C39.8914 123.35 33.1647 117.113 31.678 119.363C30.0825 121.777 40.0584 125.584 42.7221 126.548C43.9135 129.379 44.9279 132.285 45.752 135.238C43.5996 132.436 37.8233 125.331 36.0371 127.348C34.1187 129.515 43.4638 134.685 45.9669 136.013C46 136.138 46.0378 136.261 46.0702 136.386C46.3342 137.399 46.5912 138.421 46.7706 139.453C46.8393 139.848 47.4547 139.753 47.3861 139.357C47.2074 138.331 46.9773 137.31 46.716 136.296C47.9929 133.728 52.497 124.238 49.7136 123.495C47.1809 122.818 46.5784 131.511 46.4364 135.259C45.9618 133.57 45.4053 131.9 44.8234 130.265C44.4065 129.094 43.9599 127.933 43.4872 126.781C44.3655 124.145 47.5592 113.978 44.6791 113.63C42.0501 113.312 42.7119 122.18 43.0957 125.846C42.1745 123.683 41.1539 121.562 40.0311 119.496C40.7229 116.806 43.1982 106.439 40.3005 106.293C37.6275 106.159 38.964 115.152 39.5954 118.707C38.372 116.521 37.0339 114.401 35.578 112.364C35.8943 109.439 36.8128 99.1053 33.9619 99.3677C31.368 99.6049 33.763 107.875 34.933 111.476Z" fill="#A21441"/>
<path d="M169.427 94.3845C169.498 94.2328 169.571 94.0819 169.64 93.9294C170.421 92.2141 171.124 90.463 171.741 88.6831C174.22 87.3703 183.509 82.2418 181.671 80.0056C179.974 77.9401 174.231 84.9644 172.021 87.8305C172.274 87.0622 172.513 86.2897 172.734 85.5112C174.004 82.6369 177.967 73.1404 175.157 72.5172C172.553 71.9396 172.316 80.7934 172.335 84.6177C172.109 85.4527 171.868 86.283 171.605 87.1063C171.478 83.4797 170.902 74.5795 168.309 75.1708C165.498 75.8119 170.039 85.3891 171.318 87.967C170.616 90.0489 169.798 92.0905 168.873 94.0854C169.102 90.651 169.481 81.2844 166.777 81.6276C163.881 81.9954 167.591 92.2212 168.559 94.7593C167.52 96.9351 166.355 99.052 165.085 101.103C165.827 97.5357 167.372 88.7915 164.718 88.7494C161.838 88.7034 163.963 99.0645 164.595 101.885C164.381 102.22 164.167 102.556 163.948 102.888C162.834 104.572 161.648 106.212 160.401 107.807C161.366 104.414 163.631 95.5245 160.945 95.2932C158.062 95.0448 159.484 105.627 159.91 108.428C157.992 110.827 155.924 113.107 153.723 115.242C155.156 112.012 158.638 103.543 156.013 102.938C153.193 102.287 153.117 112.967 153.145 115.801C153.052 115.889 152.961 115.982 152.867 116.07C152.104 116.785 151.328 117.499 150.508 118.15C150.193 118.4 150.571 118.895 150.886 118.645C151.702 117.998 152.488 117.308 153.255 116.594C156.121 116.489 166.609 115.911 165.932 113.111C165.317 110.563 157.392 114.187 154.032 115.853C155.289 114.629 156.49 113.343 157.648 112.05C158.478 111.124 159.285 110.177 160.071 109.212C162.806 108.724 173.263 106.671 172.193 103.975C171.216 101.514 163.741 106.333 160.705 108.421C162.165 106.579 163.54 104.668 164.819 102.695C167.513 102.018 177.802 99.2388 176.546 96.6235C175.388 94.2109 168.126 99.6819 165.305 101.935C166.64 99.8156 167.864 97.6273 168.957 95.3755C171.678 94.2558 181.195 90.1253 179.602 87.7463C178.153 85.5806 172.032 91.6362 169.427 94.3845Z" fill="#A21441"/>
<path d="M55.6173 102.522C55.6173 102.522 56.6406 100.345 57.1628 97.4728C57.0755 96.5719 56.9507 95.6967 56.7849 94.8493C56.6437 94.1083 56.4675 93.391 56.2748 92.6855C55.7585 93.5693 55.1103 94.4912 54.3864 95.0879C54.3864 95.0879 55.1976 93.3649 55.7448 90.9617C55.1836 89.3362 54.4843 87.8059 53.6638 86.3586C53.399 87.2302 53.0464 88.1155 52.5819 88.7797C52.5819 88.7797 52.8689 87.2092 52.8713 85.045C52.7137 84.7986 52.5589 84.5501 52.3943 84.3083C51.4794 82.9749 50.4486 81.7207 49.3008 80.5472C49.2076 81.5354 49.0212 82.583 48.6616 83.3961C48.6616 83.3961 48.6585 81.7339 48.2549 79.534C47.0927 78.4673 45.8158 77.4794 44.4052 76.5832C44.4453 77.5364 44.4075 78.5406 44.1864 79.3596C44.1864 79.3596 43.968 77.8878 43.3475 75.9342C42.0882 75.2061 40.7216 74.5517 39.2365 73.9788C39.4058 74.7682 39.5138 75.5782 39.4752 76.2892C39.4752 76.2892 39.0672 75.155 38.2689 73.6223C37.1952 73.2495 36.0494 72.9266 34.8268 72.6567C33.5831 72.3817 32.2695 72.1552 30.736 72.0791C30.2575 73.5381 29.9989 74.8458 29.8102 76.1055C29.6245 77.3437 29.5157 78.5293 29.4795 79.6654C30.6249 80.9598 31.5375 81.7468 31.5375 81.7468C30.8597 81.5284 30.1421 81.1372 29.4658 80.6965C29.4693 82.2881 29.5906 83.7986 29.8199 85.235C31.4213 86.5142 32.7176 87.245 32.7176 87.245C31.8737 87.1581 30.9225 86.834 30.0469 86.4549C30.3784 88.0929 30.8437 89.6389 31.4236 91.106C33.3331 92.2706 34.8837 92.8688 34.8837 92.8688C33.9961 92.9133 32.9513 92.712 31.995 92.4453C32.6798 93.937 33.4817 95.3485 34.3989 96.6803C34.5659 96.9205 34.7421 97.1542 34.9161 97.3897C36.9374 98.1623 38.5068 98.4568 38.5068 98.4568C37.7202 98.6529 36.7674 98.665 35.8587 98.5999C36.916 99.8842 38.0946 101.085 39.4112 102.191C41.8511 102.541 43.75 102.401 43.75 102.401C42.9333 102.863 41.8405 103.138 40.8304 103.304C41.4201 103.737 42.0262 104.158 42.6677 104.555C43.3997 105.013 44.1719 105.443 44.982 105.847C47.8508 106.388 50.2497 106.212 50.2497 106.212C49.536 106.616 48.6109 106.876 47.7151 107.047C47.9702 107.144 48.2279 107.24 48.4896 107.332C49.5781 107.714 50.7388 108.046 51.9801 108.323C53.2211 108.599 54.53 108.83 56.0572 108.91C56.5295 107.455 56.7834 106.15 56.969 104.893C57.1554 103.634 57.2611 102.432 57.2947 101.279C57.3017 101.001 57.3052 100.726 57.3056 100.453C56.8247 101.23 56.2502 102 55.6173 102.522Z" fill="#EFEFEF"/>
<mask id="mask0_662_21036" style="mask-type:luminance" maskUnits="userSpaceOnUse" x="29" y="72" width="29" height="37">
<path d="M55.6173 102.522C55.6173 102.522 56.6406 100.345 57.1628 97.4728C57.0755 96.5719 56.9507 95.6967 56.7849 94.8493C56.6437 94.1083 56.4675 93.391 56.2748 92.6855C55.7585 93.5693 55.1103 94.4912 54.3864 95.0879C54.3864 95.0879 55.1976 93.3649 55.7448 90.9617C55.1836 89.3362 54.4843 87.8059 53.6638 86.3586C53.399 87.2302 53.0464 88.1155 52.5819 88.7797C52.5819 88.7797 52.8689 87.2092 52.8713 85.045C52.7137 84.7986 52.5589 84.5501 52.3943 84.3083C51.4794 82.9749 50.4486 81.7207 49.3008 80.5472C49.2076 81.5354 49.0212 82.583 48.6616 83.3961C48.6616 83.3961 48.6585 81.7339 48.2549 79.534C47.0927 78.4673 45.8158 77.4794 44.4052 76.5832C44.4453 77.5364 44.4075 78.5406 44.1864 79.3596C44.1864 79.3596 43.968 77.8878 43.3475 75.9342C42.0882 75.2061 40.7216 74.5517 39.2365 73.9788C39.4058 74.7682 39.5138 75.5782 39.4752 76.2892C39.4752 76.2892 39.0672 75.155 38.2689 73.6223C37.1952 73.2495 36.0494 72.9266 34.8268 72.6567C33.5831 72.3817 32.2695 72.1552 30.736 72.0791C30.2575 73.5381 29.9989 74.8458 29.8102 76.1055C29.6245 77.3437 29.5157 78.5293 29.4795 79.6654C30.6249 80.9598 31.5375 81.7468 31.5375 81.7468C30.8597 81.5284 30.1421 81.1372 29.4658 80.6965C29.4693 82.2881 29.5906 83.7986 29.8199 85.235C31.4213 86.5142 32.7176 87.245 32.7176 87.245C31.8737 87.1581 30.9225 86.834 30.0469 86.4549C30.3784 88.0929 30.8437 89.6389 31.4236 91.106C33.3331 92.2706 34.8837 92.8688 34.8837 92.8688C33.9961 92.9133 32.9513 92.712 31.995 92.4453C32.6798 93.937 33.4817 95.3485 34.3989 96.6803C34.5659 96.9205 34.7421 97.1542 34.9161 97.3897C36.9374 98.1623 38.5068 98.4568 38.5068 98.4568C37.7202 98.6529 36.7674 98.665 35.8587 98.5999C36.916 99.8842 38.0946 101.085 39.4112 102.191C41.8511 102.541 43.75 102.401 43.75 102.401C42.9333 102.863 41.8405 103.138 40.8304 103.304C41.4201 103.737 42.0262 104.158 42.6677 104.555C43.3997 105.013 44.1719 105.443 44.982 105.847C47.8508 106.388 50.2497 106.212 50.2497 106.212C49.536 106.616 48.6109 106.876 47.7151 107.047C47.9702 107.144 48.2279 107.24 48.4896 107.332C49.5781 107.714 50.7388 108.046 51.9801 108.323C53.2211 108.599 54.53 108.83 56.0572 108.91C56.5295 107.455 56.7834 106.15 56.969 104.893C57.1554 103.634 57.2611 102.432 57.2947 101.279C57.3017 101.001 57.3052 100.726 57.3056 100.453C56.8247 101.23 56.2502 102 55.6173 102.522Z" fill="white"/>
</mask>
<g mask="url(#mask0_662_21036)">
<path d="M51.7648 81.1614L51.3655 81.1157C51.3623 81.1859 51.0242 88.0999 46.4175 94.547L42.9571 89.5136C47.7002 82.9168 47.1082 74.4397 47.1016 74.3543L46.7034 74.3586C46.7096 74.4425 47.2833 82.68 42.7051 89.1474L39.6265 84.6694C44.3509 78.0242 39.8823 68.6525 39.8363 68.5581L39.4814 68.7208C39.5258 68.8128 43.8326 77.8573 39.3734 84.3017L36.0724 79.5004C37.8083 72.9008 33.3046 64.579 33.2585 64.4951L32.9134 64.6776C32.9575 64.7584 37.2334 72.666 35.7627 79.0503L28.9631 69.1599L28.6417 69.3807L35.4414 79.2711C28.9541 78.3581 23.1018 71.5342 23.0421 71.464L22.748 71.7207C22.8097 71.7936 28.967 78.9785 35.7506 79.7211L39.0516 84.5224C31.438 86.378 24.5354 79.1182 24.4652 79.0441L24.1864 79.3171C24.2581 79.3939 31.4084 86.9217 39.3047 84.8906L42.3834 89.3685C34.7105 91.3259 27.2194 87.8417 27.1437 87.8058L26.9971 88.1763C27.0743 88.2134 34.7776 91.8014 42.6353 89.7348L46.0958 94.7681C38.4323 96.759 31.8499 94.6008 31.7832 94.5785L31.6829 94.9678C31.7504 94.9904 38.5126 97.2126 46.3473 95.1339L48.9506 98.9204C41.2906 100.946 35.6114 100.113 35.5545 100.105L35.5217 100.51C35.5798 100.519 41.3955 101.376 49.2014 99.2855L52.0406 103.415C45.6223 105.104 40.8671 104.412 40.8191 104.404L40.7867 104.81C40.8359 104.818 45.7272 105.535 52.2921 103.781L54.6578 107.222C50.6276 108.296 47.6655 107.901 47.6355 107.897L47.6074 108.303C47.7346 108.321 50.7356 108.725 54.9086 107.587L59.5188 114.292L59.8402 114.072L55.23 107.366C57.7868 103.878 58.4849 100.931 58.5134 100.806L58.1238 100.686C58.1168 100.716 57.4245 103.623 54.9788 107.001L52.6131 103.56C56.6016 98.0585 57.6835 93.2346 57.6936 93.1859L57.3032 93.0708C57.2931 93.1184 56.237 97.8062 52.3615 103.194L49.5223 99.0643C54.269 92.5244 55.5521 86.7879 55.5646 86.7302L55.1742 86.6155C55.1617 86.6717 53.9055 92.2725 49.2712 98.6993L46.6679 94.9128C51.4154 88.3421 51.7621 81.2328 51.7648 81.1614Z" fill="#EFEFEF"/>
</g>
<path opacity="0.1" d="M52.8706 85.046C52.713 84.7995 52.5582 84.5511 52.3936 84.3093C51.4787 82.9759 50.4479 81.7217 49.3001 80.5481C49.2069 81.5364 49.0205 82.584 48.6609 83.3971C48.6609 83.3971 48.6578 81.7349 48.2542 79.5349C47.092 78.4683 45.8151 77.4804 44.4045 76.5842C44.4446 77.5373 44.4068 78.5416 44.1857 79.3606C44.1857 79.3606 43.9673 77.8887 43.3468 75.9352C42.0875 75.2071 40.7209 74.5527 39.2358 73.9798C39.4051 74.7691 39.5131 75.5792 39.4745 76.2901C39.4745 76.2901 39.0665 75.156 38.2682 73.6233C37.1945 73.2505 36.0487 72.9275 34.8261 72.6577C33.5824 72.3827 32.2688 72.1561 30.7354 72.0801L56.0565 108.911C56.5288 107.456 56.7827 106.151 56.9683 104.894C57.1547 103.635 57.2604 102.433 57.294 101.28C57.301 101.002 57.3045 100.727 57.3049 100.454C56.8248 101.23 56.2503 102 55.6177 102.522C55.6177 102.522 56.6411 100.345 57.1633 97.473C57.076 96.5721 56.9512 95.6969 56.7854 94.8494C56.6442 94.1084 56.4679 93.3912 56.2753 92.6857C55.7589 93.5695 55.1107 94.4914 54.3869 95.0881C54.3869 95.0881 55.1981 93.3651 55.7453 90.9619C55.1841 89.3364 54.4848 87.806 53.6642 86.3588C53.3994 87.2304 53.0469 88.1157 52.5824 88.7799C52.5812 88.7807 52.8682 87.2097 52.8706 85.046Z" fill="#A21441"/>
<path d="M161.676 136.574C161.676 136.574 164.077 136.729 166.941 136.162C167.747 135.751 168.516 135.314 169.243 134.85C169.881 134.447 170.484 134.02 171.069 133.582C170.058 133.425 168.962 133.16 168.142 132.705C168.142 132.705 170.042 132.829 172.479 132.457C173.786 131.339 174.954 130.128 176 128.834C175.092 128.907 174.139 128.904 173.35 128.714C173.35 128.714 174.917 128.406 176.931 127.615C177.103 127.378 177.277 127.144 177.442 126.902C178.348 125.562 179.137 124.143 179.808 122.646C178.854 122.921 177.812 123.131 176.924 123.095C176.924 123.095 178.469 122.483 180.368 121.301C180.935 119.829 181.386 118.279 181.703 116.638C180.831 117.025 179.882 117.357 179.04 117.452C179.04 117.452 180.329 116.71 181.919 115.416C182.136 113.978 182.244 112.466 182.233 110.875C181.561 111.321 180.847 111.719 180.171 111.943C180.171 111.943 181.076 111.148 182.21 109.844C182.164 108.708 182.044 107.523 181.847 106.287C181.647 105.029 181.377 103.723 180.886 102.269C179.353 102.358 178.041 102.597 176.8 102.882C175.58 103.164 174.437 103.497 173.366 103.879C172.582 105.419 172.184 106.556 172.184 106.556C172.139 105.846 172.24 105.034 172.402 104.244C170.922 104.83 169.561 105.497 168.308 106.236C167.705 108.195 167.5 109.668 167.5 109.668C167.272 108.851 167.225 107.848 167.257 106.894C165.854 107.803 164.586 108.802 163.433 109.879C163.049 112.083 163.061 113.744 163.061 113.744C162.694 112.935 162.499 111.889 162.396 110.901C161.259 112.085 160.24 113.348 159.337 114.69C159.174 114.933 159.022 115.183 158.867 115.431C158.888 117.594 159.189 119.163 159.189 119.163C158.718 118.503 158.358 117.621 158.086 116.751C157.278 118.206 156.592 119.742 156.046 121.373C156.614 123.771 157.441 125.487 157.441 125.487C156.711 124.896 156.055 123.981 155.531 123.101C155.344 123.808 155.174 124.527 155.04 125.269C154.882 126.118 154.765 126.994 154.685 127.896C155.233 130.764 156.276 132.931 156.276 132.931C155.639 132.415 155.057 131.65 154.57 130.878C154.573 131.151 154.579 131.426 154.589 131.703C154.632 132.856 154.749 134.057 154.946 135.314C155.143 136.57 155.409 137.872 155.894 139.322C157.42 139.229 158.727 138.987 159.966 138.699C161.205 138.412 162.362 138.069 163.447 137.678C163.708 137.583 163.965 137.486 164.219 137.386C163.321 137.224 162.394 136.972 161.676 136.574Z" fill="#EFEFEF"/>
<mask id="mask1_662_21036" style="mask-type:luminance" maskUnits="userSpaceOnUse" x="154" y="102" width="29" height="38">
<path d="M161.676 136.574C161.676 136.574 164.077 136.729 166.941 136.162C167.747 135.751 168.516 135.314 169.243 134.85C169.881 134.447 170.484 134.02 171.069 133.582C170.058 133.425 168.962 133.16 168.142 132.705C168.142 132.705 170.042 132.829 172.479 132.457C173.786 131.339 174.954 130.128 176 128.834C175.092 128.907 174.139 128.904 173.35 128.714C173.35 128.714 174.917 128.406 176.931 127.615C177.103 127.378 177.277 127.144 177.442 126.902C178.348 125.562 179.137 124.143 179.808 122.646C178.854 122.921 177.812 123.131 176.924 123.095C176.924 123.095 178.469 122.483 180.368 121.301C180.935 119.829 181.386 118.279 181.703 116.638C180.831 117.025 179.882 117.357 179.04 117.452C179.04 117.452 180.329 116.71 181.919 115.416C182.136 113.978 182.244 112.466 182.233 110.875C181.561 111.321 180.847 111.719 180.171 111.943C180.171 111.943 181.076 111.148 182.21 109.844C182.164 108.708 182.044 107.523 181.847 106.287C181.647 105.029 181.377 103.723 180.886 102.269C179.353 102.358 178.041 102.597 176.8 102.882C175.58 103.164 174.437 103.497 173.366 103.879C172.582 105.419 172.184 106.556 172.184 106.556C172.139 105.846 172.24 105.034 172.402 104.244C170.922 104.83 169.561 105.497 168.308 106.236C167.705 108.195 167.5 109.668 167.5 109.668C167.272 108.851 167.225 107.848 167.257 106.894C165.854 107.803 164.586 108.802 163.433 109.879C163.049 112.083 163.061 113.744 163.061 113.744C162.694 112.935 162.499 111.889 162.396 110.901C161.259 112.085 160.24 113.348 159.337 114.69C159.174 114.933 159.022 115.183 158.867 115.431C158.888 117.594 159.189 119.163 159.189 119.163C158.718 118.503 158.358 117.621 158.086 116.751C157.278 118.206 156.592 119.742 156.046 121.373C156.614 123.771 157.441 125.487 157.441 125.487C156.711 124.896 156.055 123.981 155.531 123.101C155.344 123.808 155.174 124.527 155.04 125.269C154.882 126.118 154.765 126.994 154.685 127.896C155.233 130.764 156.276 132.931 156.276 132.931C155.639 132.415 155.057 131.65 154.57 130.878C154.573 131.151 154.579 131.426 154.589 131.703C154.632 132.856 154.749 134.057 154.946 135.314C155.143 136.57 155.409 137.872 155.894 139.322C157.42 139.229 158.727 138.987 159.966 138.699C161.205 138.412 162.362 138.069 163.447 137.678C163.708 137.583 163.965 137.486 164.219 137.386C163.321 137.224 162.394 136.972 161.676 136.574Z" fill="white"/>
</mask>
<g mask="url(#mask1_662_21036)">
<path d="M180.141 125.164L180.037 124.776C179.97 124.798 173.413 127.017 165.726 125.093L169.142 120.029C177.018 122.025 184.689 118.369 184.766 118.331L184.616 117.962C184.54 117.999 177.086 121.551 169.391 119.661L172.429 115.156C180.344 117.116 187.426 109.525 187.497 109.448L187.216 109.177C187.146 109.252 180.309 116.573 172.679 114.785L175.937 109.955C182.714 109.152 188.807 101.913 188.868 101.839L188.572 101.585C188.513 101.656 182.722 108.531 176.243 109.502L182.954 99.5512L182.631 99.3332L175.92 109.284C174.392 102.913 178.597 94.9676 178.641 94.8864L178.294 94.707C178.249 94.7913 173.82 103.152 175.614 109.736L172.356 114.567C167.84 108.163 172.066 99.0801 172.11 98.9877L171.753 98.8282C171.708 98.9229 167.323 108.334 172.107 114.937L169.068 119.442C164.436 113.02 164.933 104.773 164.938 104.69L164.54 104.689C164.534 104.774 164.018 113.257 168.82 119.811L165.404 124.875C160.743 118.473 160.34 111.558 160.336 111.488L159.937 111.537C159.941 111.608 160.351 118.714 165.156 125.242L162.586 129.052C157.895 122.667 156.589 117.077 156.576 117.021L156.187 117.139C156.2 117.197 157.533 122.922 162.339 129.419L159.536 133.574C155.613 128.221 154.516 123.542 154.505 123.495L154.115 123.613C154.126 123.662 155.251 128.476 159.288 133.942L156.953 137.404C154.477 134.047 153.759 131.147 153.752 131.117L153.363 131.24C153.394 131.365 154.118 134.305 156.705 137.771L152.155 144.517L152.479 144.735L157.029 137.989C161.211 139.09 164.209 138.66 164.336 138.641L164.305 138.235C164.275 138.239 161.316 138.66 157.277 137.622L159.612 134.161C166.192 135.856 171.077 135.095 171.126 135.087L171.09 134.681C171.042 134.689 166.293 135.424 159.86 133.792L162.662 129.638C170.486 131.658 176.294 130.75 176.352 130.741L176.316 130.335C176.259 130.344 170.588 131.228 162.91 129.27L165.48 125.461C173.331 127.47 180.073 125.187 180.141 125.164Z" fill="#EFEFEF"/>
</g>
<path opacity="0.1" d="M176.931 127.615C177.103 127.378 177.277 127.144 177.442 126.902C178.348 125.562 179.137 124.143 179.808 122.646C178.854 122.921 177.812 123.131 176.924 123.095C176.924 123.095 178.469 122.483 180.368 121.301C180.935 119.829 181.386 118.279 181.703 116.638C180.831 117.025 179.882 117.357 179.04 117.452C179.04 117.452 180.329 116.71 181.919 115.416C182.136 113.978 182.244 112.466 182.233 110.875C181.561 111.321 180.847 111.719 180.171 111.943C180.171 111.943 181.076 111.148 182.21 109.844C182.164 108.708 182.044 107.523 181.847 106.287C181.647 105.029 181.377 103.723 180.886 102.269L155.894 139.323C157.42 139.229 158.727 138.987 159.965 138.7C161.204 138.412 162.362 138.07 163.447 137.679C163.708 137.583 163.965 137.486 164.219 137.386C163.321 137.224 162.394 136.972 161.677 136.574C161.677 136.574 164.077 136.728 166.941 136.162C167.748 135.75 168.516 135.314 169.244 134.849C169.882 134.446 170.484 134.02 171.07 133.582C170.058 133.425 168.963 133.16 168.142 132.705C168.142 132.705 170.043 132.828 172.479 132.457C173.786 131.339 174.954 130.127 176 128.834C175.092 128.907 174.139 128.903 173.351 128.714C173.351 128.714 174.917 128.406 176.931 127.615Z" fill="#A21441"/>
<path d="M97.4996 169.133C146.977 169.133 187.086 166.154 187.086 162.478C187.086 158.803 146.977 155.823 97.4996 155.823C48.0223 155.823 7.91309 158.803 7.91309 162.478C7.91309 166.154 48.0223 169.133 97.4996 169.133Z" fill="#D4D4D4"/>
<path d="M50.7822 57.4746H163.461V158.453H50.7822V57.4746Z" fill="#EFEFEF" stroke="#A21441"/>
<path d="M50.7822 57.4746H163.461V68.5342H50.7822V57.4746Z" fill="#A21441" fill-opacity="0.2" stroke="#A21441"/>
<path d="M59.4541 63.0047C59.4541 64.2839 58.4171 65.3213 57.1375 65.3213C55.8583 65.3213 54.8213 64.2843 54.8213 63.0047C54.8213 61.7251 55.8583 60.6885 57.1375 60.6885C58.4171 60.6881 59.4541 61.7251 59.4541 63.0047Z" fill="#A21441"/>
<path d="M67.2539 63.0047C67.2539 64.2839 66.2169 65.3213 64.9373 65.3213C63.6581 65.3213 62.6211 64.2843 62.6211 63.0047C62.6211 61.7251 63.6581 60.6885 64.9373 60.6885C66.2169 60.6881 67.2539 61.7251 67.2539 63.0047Z" fill="#A21441" fill-opacity="0.2"/>
<path d="M75.0537 63.0047C75.0537 64.2839 74.0167 65.3213 72.7371 65.3213C71.4575 65.3213 70.4209 64.2843 70.4209 63.0047C70.4209 61.7251 71.4579 60.6885 72.7371 60.6885C74.0163 60.6885 75.0537 61.7251 75.0537 63.0047Z" fill="#EFEFEF"/>
<path d="M147.303 103.85C147.848 102.469 147.078 101.339 145.594 101.339H90.8767C89.392 101.339 87.7314 102.469 87.1866 103.85L75.058 134.609C74.5131 135.99 75.2826 137.12 76.7673 137.12H131.484C132.969 137.12 134.63 135.99 135.174 134.609L147.303 103.85Z" fill="#A21441"/>
<path d="M72.4349 131.986L84.5635 101.228C85.1084 99.8463 86.7686 98.716 88.2537 98.716H131.207V95.9903C131.207 94.5056 129.992 93.2907 128.508 93.2907H109.347C107.862 93.2907 106.068 92.2229 105.359 90.918L102.75 86.112C102.042 84.8071 100.247 83.7393 98.7623 83.7393H74.1439C72.6592 83.7393 71.4443 84.9541 71.4443 86.4388V131.797C71.4443 133.1 72.3815 134.196 73.6155 134.443C72.4856 134.206 71.9591 133.192 72.4349 131.986Z" fill="#A21441"/>
<path d="M112.19 109.851C106.556 109.851 101.988 114.418 101.988 120.052C101.988 125.687 106.556 130.254 112.19 130.254C117.824 130.254 122.392 125.687 122.392 120.052C122.391 114.418 117.824 109.851 112.19 109.851ZM117.182 123.574L115.712 125.043L112.19 121.522L108.668 125.043L107.198 123.574L110.72 120.052L107.198 116.531L108.668 115.061L112.19 118.583L115.712 115.061L117.182 116.531L113.66 120.052L117.182 123.574Z" fill="#FEFEFE"/>
<path d="M48.6213 164.155C64.9592 164.155 78.2036 161.991 78.2036 159.321C78.2036 156.651 64.9592 154.487 48.6213 154.487C32.2835 154.487 19.0391 156.651 19.0391 159.321C19.0391 161.991 32.2835 164.155 48.6213 164.155Z" fill="#A21441"/>
<path d="M56.9367 98.6055H48.6215H40.3059L27.5381 158.262C38.1281 160.544 48.6215 160.544 48.6215 160.544C48.6215 160.544 59.1144 160.544 69.7045 158.262L56.9367 98.6055Z" fill="#A21441"/>
<path d="M48.6218 99.8709C53.2142 99.8709 56.937 99.3043 56.937 98.6054C56.937 97.9064 53.2142 97.3398 48.6218 97.3398C44.0295 97.3398 40.3066 97.9064 40.3066 98.6054C40.3066 99.3043 44.0295 99.8709 48.6218 99.8709Z" fill="#A21441"/>
<mask id="mask2_662_21036" style="mask-type:luminance" maskUnits="userSpaceOnUse" x="27" y="98" width="43" height="63">
<path d="M56.9367 98.6055H48.6215H40.3059L27.5381 158.262C38.1281 160.544 48.6215 160.544 48.6215 160.544C48.6215 160.544 59.1144 160.544 69.7045 158.262L56.9367 98.6055Z" fill="white"/>
</mask>
<g mask="url(#mask2_662_21036)">
<path d="M48.2595 155.639C31.1424 155.639 19.5832 152.778 18.8652 152.595L21.2466 143.217L20.0559 147.906L21.2415 143.216C21.4868 143.277 46.1578 149.323 76.265 143.166L78.2041 152.646C67.2404 154.888 57.0209 155.639 48.2595 155.639Z" fill="#EFEFEF"/>
<path d="M48.2595 134.587C31.1424 134.587 19.5832 131.726 18.8652 131.544L21.2466 122.165L20.0559 126.854L21.2415 122.164C21.4868 122.225 46.1578 128.272 76.265 122.114L78.2041 131.594C67.2404 133.836 57.0209 134.587 48.2595 134.587Z" fill="#EFEFEF"/>
<path d="M48.2595 113.535C31.1424 113.535 19.5832 110.674 18.8652 110.492L21.2466 101.114L20.0559 105.803L21.2415 101.112C21.4868 101.174 46.1578 107.22 76.265 101.062L78.2041 110.543C67.2404 112.785 57.0209 113.535 48.2595 113.535Z" fill="#EFEFEF"/>
</g>
<path opacity="0.1" d="M59.0157 127.389C59.0157 140.361 56.3306 152.078 52.0117 160.447C55.9546 160.266 62.8077 159.748 69.7049 158.262L56.937 98.6055H53.9582C57.1219 106.49 59.0157 116.497 59.0157 127.389Z" fill="#A21441"/>
<g opacity="0.3">
<path d="M41.2089 107.81C40.9051 109.276 40.6013 110.741 40.2971 112.207C39.567 115.729 38.8369 119.25 38.1069 122.771C37.2192 127.051 36.332 131.332 35.4443 135.613C34.6807 139.297 33.9171 142.981 33.1531 146.664C32.7834 148.448 32.3271 150.236 32.0396 152.035C32.0357 152.061 32.0291 152.085 32.024 152.111C31.7183 153.585 34.0162 154.004 34.3211 152.534C34.6249 151.068 34.9291 149.602 35.233 148.136C35.963 144.615 36.6931 141.094 37.4232 137.572C38.3108 133.292 39.1981 129.011 40.0857 124.73C40.8493 121.047 41.6134 117.363 42.377 113.679C42.7467 111.896 43.203 110.107 43.4904 108.308C43.4943 108.283 43.501 108.257 43.506 108.232C43.8114 106.758 41.5135 106.34 41.2089 107.81Z" fill="white"/>
</g>
<path d="M157.82 142.939L102.676 158.681L103.643 162.068L158.787 146.326L157.82 142.939Z" fill="#A21441"/>
<path d="M157.82 142.94L132.673 150.118L133.64 153.505L158.787 146.327L157.82 142.94Z" fill="#A21441"/>
<path d="M159.802 162.208C169.516 161.383 176.721 152.839 175.895 143.125C175.069 133.411 166.525 126.205 156.811 127.031C147.097 127.857 139.892 136.401 140.718 146.115C141.544 155.829 150.088 163.034 159.802 162.208Z" fill="#A21441"/>
<path d="M171.293 150.409C174.489 143.241 171.269 134.839 164.101 131.644C156.933 128.448 148.531 131.669 145.336 138.837C142.14 146.005 145.361 154.406 152.529 157.601C159.696 160.797 168.098 157.577 171.293 150.409Z" fill="#EFEFEF"/>
<path d="M168.984 141.577L167.291 142.06C165.876 137.105 160.693 134.224 155.738 135.639L155.254 133.946C161.143 132.264 167.303 135.688 168.984 141.577Z" fill="white"/>
<path d="M145.147 56.3322L128.252 51.21L118.093 84.7203L144.346 92.6794L151.747 68.2635L145.147 56.3322Z" fill="#D4D4D4"/>
<path d="M143.441 69.5775L142.234 67.3194L136.824 70.2116L133.932 64.8027L131.674 66.0102L134.567 71.4191L129.157 74.3113L130.364 76.5694L135.774 73.6768L138.666 79.0861L140.924 77.8787L138.032 72.4697L143.441 69.5775Z" fill="#A21441"/>
<path d="M143.441 69.5775L142.234 67.3194L136.824 70.2116L133.932 64.8027L131.674 66.0102L134.567 71.4191L129.157 74.3113L130.364 76.5694L135.774 73.6768L138.666 79.0861L140.924 77.8787L138.032 72.4697L143.441 69.5775Z" fill="black" fill-opacity="0.25"/>
<path d="M100.314 33.3867L83.1602 37.5652L91.4477 71.5868L118.101 65.0941L112.063 40.3061L100.314 33.3867Z" fill="#D4D4D4"/>
<path d="M105.577 45.6604L103.39 44.3301L100.202 49.5705L94.9612 46.383L93.6309 48.5705L98.8717 51.758L95.6838 56.9988L97.8713 58.3291L101.059 53.0887L106.3 56.2762L107.63 54.0887L102.389 50.9012L105.577 45.6604Z" fill="#A21441"/>
<path d="M105.577 45.6604L103.39 44.3301L100.202 49.5705L94.9612 46.383L93.6309 48.5705L98.8717 51.758L95.6838 56.9988L97.8713 58.3291L101.059 53.0887L106.3 56.2762L107.63 54.0887L102.389 50.9012L105.577 45.6604Z" fill="black" fill-opacity="0.25"/>
<path d="M160.421 36.4504H156.06V32.0898H154.509V36.4504H150.148V38.0022H154.509V42.3624H156.06V38.0022H160.421V36.4504Z" fill="#D4D4D4"/>
<path d="M170.187 51.4542H167.812V49.0791H166.967V51.4542H164.592V52.2993H166.967V54.6744H167.812V52.2993H170.187V51.4542Z" fill="#D4D4D4"/>
<path d="M143.977 47.3095H141.101V44.4336H140.077V47.3095H137.201V48.3332H140.077V51.2095H141.101V48.3332H143.977V47.3095Z" fill="#D4D4D4"/>
<path d="M35.0851 46.8612H30.7245V42.501H29.1727V46.8612H24.8125V48.4134H29.1727V52.7736H30.7245V48.4134H35.0851V46.8612Z" fill="#D4D4D4"/>
<path d="M54.1172 44.2589H51.7421V41.8838H50.8966V44.2589H48.5215V45.104H50.8966V47.4791H51.7421V45.104H54.1172V44.2589Z" fill="#D4D4D4"/>
<path d="M39.6567 63.6272H36.7805V60.751H35.7567V63.6272H32.8809V64.6506H35.7567V67.5268H36.7805V64.6506H39.6567V63.6272Z" fill="#D4D4D4"/>
<path d="M135.147 29.2325C135.147 29.7547 134.723 30.1778 134.201 30.1778C133.679 30.1778 133.256 29.7547 133.256 29.2325C133.256 28.7107 133.679 28.2871 134.201 28.2871C134.723 28.2871 135.147 28.7103 135.147 29.2325Z" fill="#A21441"/>
<path d="M135.147 29.2325C135.147 29.7547 134.723 30.1778 134.201 30.1778C133.679 30.1778 133.256 29.7547 133.256 29.2325C133.256 28.7107 133.679 28.2871 134.201 28.2871C134.723 28.2871 135.147 28.7103 135.147 29.2325Z" fill="black" fill-opacity="0.25"/>
<path d="M177.832 63.2198C177.832 64.2084 177.031 65.0099 176.042 65.0099C175.053 65.0099 174.252 64.2084 174.252 63.2198C174.252 62.2311 175.053 61.4297 176.042 61.4297C177.031 61.4297 177.832 62.2311 177.832 63.2198Z" fill="#A21441"/>
<path d="M177.832 63.2198C177.832 64.2084 177.031 65.0099 176.042 65.0099C175.053 65.0099 174.252 64.2084 174.252 63.2198C174.252 62.2311 175.053 61.4297 176.042 61.4297C177.031 61.4297 177.832 62.2311 177.832 63.2198Z" fill="black" fill-opacity="0.25"/>
<path d="M121.17 39.0909C121.17 39.6131 120.747 40.0362 120.225 40.0362C119.702 40.0362 119.279 39.6131 119.279 39.0909C119.279 38.5687 119.702 38.1455 120.225 38.1455C120.747 38.1455 121.17 38.5687 121.17 39.0909Z" fill="#A21441"/>
<path d="M121.17 39.0909C121.17 39.6131 120.747 40.0362 120.225 40.0362C119.702 40.0362 119.279 39.6131 119.279 39.0909C119.279 38.5687 119.702 38.1455 120.225 38.1455C120.747 38.1455 121.17 38.5687 121.17 39.0909Z" fill="black" fill-opacity="0.25"/>
<path d="M67.3361 29.2325C67.3361 30.2211 66.5346 31.0226 65.546 31.0226C64.5573 31.0226 63.7559 30.2211 63.7559 29.2325C63.7559 28.2438 64.5573 27.4424 65.546 27.4424C66.5346 27.4424 67.3361 28.2438 67.3361 29.2325Z" fill="#A21441"/>
<path d="M67.3361 29.2325C67.3361 30.2211 66.5346 31.0226 65.546 31.0226C64.5573 31.0226 63.7559 30.2211 63.7559 29.2325C63.7559 28.2438 64.5573 27.4424 65.546 27.4424C66.5346 27.4424 67.3361 28.2438 67.3361 29.2325Z" fill="black" fill-opacity="0.25"/>
<path d="M74.2921 48.211C74.2921 48.7332 73.8689 49.1563 73.3467 49.1563C72.8245 49.1563 72.4014 48.7332 72.4014 48.211C72.4014 47.6888 72.8245 47.2656 73.3467 47.2656C73.8689 47.266 74.2921 47.6892 74.2921 48.211Z" fill="#A21441"/>
<path d="M74.2921 48.211C74.2921 48.7332 73.8689 49.1563 73.3467 49.1563C72.8245 49.1563 72.4014 48.7332 72.4014 48.211C72.4014 47.6888 72.8245 47.2656 73.3467 47.2656C73.8689 47.266 74.2921 47.6892 74.2921 48.211Z" fill="black" fill-opacity="0.25"/>
<path d="M19.0567 66.5167C19.0567 67.0389 18.6336 67.462 18.1114 67.462C17.5892 67.462 17.166 67.0389 17.166 66.5167C17.166 65.9944 17.5892 65.5713 18.1114 65.5713C18.6336 65.5713 19.0567 65.9944 19.0567 66.5167Z" fill="#A21441"/>
<path d="M19.0567 66.5167C19.0567 67.0389 18.6336 67.462 18.1114 67.462C17.5892 67.462 17.166 67.0389 17.166 66.5167C17.166 65.9944 17.5892 65.5713 18.1114 65.5713C18.6336 65.5713 19.0567 65.9944 19.0567 66.5167Z" fill="black" fill-opacity="0.25"/>
</g>
<defs>
<clipPath id="clip0_662_21036">
<rect width="195" height="195" fill="white"/>
</clipPath>
</defs>
</svg>
